<svg width="415" height="70" viewBox="0 0 415 70" fill="none" xmlns="http://www.w3.org/2000/svg">
<path d="M0 20C0 8.9543 8.9543 0 20 0H395C406.046 0 415 8.95431 415 20V50C415 61.0457 406.046 70 395 70H20C8.95432 70 0 61.0457 0 50V20Z" fill="#D9ECD4"/>
<path d="M20 1H395V-1H20V1ZM414 20V50H416V20H414ZM395 69H20V71H395V69ZM1 50V20H-1V50H1ZM20 69C9.5066 69 1 60.4934 1 50H-1C-1 61.598 8.40203 71 20 71V69ZM414 50C414 60.4934 405.493 69 395 69V71C406.598 71 416 61.598 416 50H414ZM395 1C405.493 1 414 9.50659 414 20H416C416 8.40202 406.598 -1 395 -1V1ZM20 -1C8.40202 -1 -1 8.40202 -1 20H1C1 9.50659 9.50659 1 20 1V-1Z" fill="white" fill-opacity="0.1"/>
<path d="M21 35C21 23.9543 29.9543 15 41 15C52.0457 15 61 23.9543 61 35C61 46.0457 52.0457 55 41 55C29.9543 55 21 46.0457 21 35Z" fill="#E6A000"/>
<path d="M36.4137 42V27.4545H41.3285C42.4696 27.4545 43.4023 27.6605 44.1268 28.0724C44.8559 28.4796 45.3957 29.0312 45.7461 29.7273C46.0965 30.4233 46.2717 31.1998 46.2717 32.0568C46.2717 32.9138 46.0965 33.6927 45.7461 34.3935C45.4005 35.0942 44.8654 35.6529 44.141 36.0696C43.4165 36.4815 42.4885 36.6875 41.3569 36.6875H37.8342V35.125H41.3001C42.0813 35.125 42.7087 34.9901 43.1822 34.7202C43.6557 34.4503 43.9989 34.0857 44.212 33.6264C44.4298 33.1624 44.5387 32.6392 44.5387 32.0568C44.5387 31.4744 44.4298 30.9536 44.212 30.4943C43.9989 30.035 43.6533 29.6752 43.1751 29.4148C42.6969 29.1496 42.0624 29.017 41.2717 29.017H38.1751V42H36.4137Z" fill="#F5F5F5"/>
<path d="M77.44 25.16H81.928C82.92 25.16 83.812 25.324 84.604 25.652C85.404 25.972 86.04 26.476 86.512 27.164C86.984 27.852 87.22 28.748 87.22 29.852C87.22 30.948 86.984 31.856 86.512 32.576C86.04 33.296 85.404 33.836 84.604 34.196C83.812 34.548 82.92 34.724 81.928 34.724H79.492V41H77.44V25.16ZM79.492 33.008H81.364C82.044 33.008 82.66 32.908 83.212 32.708C83.772 32.508 84.216 32.18 84.544 31.724C84.88 31.268 85.048 30.656 85.048 29.888C85.048 29.112 84.88 28.508 84.544 28.076C84.216 27.636 83.772 27.328 83.212 27.152C82.66 26.968 82.044 26.876 81.364 26.876H79.492V33.008ZM96.8519 41V39.08C96.7879 39.28 96.5999 39.556 96.2879 39.908C95.9839 40.26 95.5639 40.58 95.0279 40.868C94.4999 41.148 93.8759 41.288 93.1559 41.288C92.2439 41.288 91.4159 41.072 90.6719 40.64C89.9359 40.208 89.3479 39.604 88.9079 38.828C88.4759 38.044 88.2599 37.128 88.2599 36.08C88.2599 35.032 88.4759 34.12 88.9079 33.344C89.3479 32.56 89.9359 31.952 90.6719 31.52C91.4159 31.08 92.2439 30.86 93.1559 30.86C93.8679 30.86 94.4839 30.988 95.0039 31.244C95.5319 31.5 95.9519 31.796 96.2639 32.132C96.5839 32.468 96.7719 32.756 96.8279 32.996V31.148H98.8919V41H96.8519ZM90.3239 36.08C90.3239 36.792 90.4799 37.408 90.7919 37.928C91.1039 38.448 91.5079 38.852 92.0039 39.14C92.5079 39.42 93.0439 39.56 93.6119 39.56C94.2199 39.56 94.7639 39.416 95.2439 39.128C95.7239 38.84 96.1039 38.436 96.3839 37.916C96.6639 37.388 96.8039 36.776 96.8039 36.08C96.8039 35.384 96.6639 34.776 96.3839 34.256C96.1039 33.728 95.7239 33.32 95.2439 33.032C94.7639 32.736 94.2199 32.588 93.6119 32.588C93.0439 32.588 92.5079 32.732 92.0039 33.02C91.5079 33.308 91.1039 33.712 90.7919 34.232C90.4799 34.752 90.3239 35.368 90.3239 36.08ZM101.634 41V24.488H103.746V32.996C103.794 32.748 103.982 32.456 104.31 32.12C104.638 31.784 105.078 31.492 105.63 31.244C106.182 30.988 106.818 30.86 107.538 30.86C108.458 30.86 109.274 31.08 109.986 31.52C110.698 31.952 111.258 32.56 111.666 33.344C112.082 34.12 112.29 35.032 112.29 36.08C112.29 37.128 112.082 38.044 111.666 38.828C111.258 39.604 110.698 40.208 109.986 40.64C109.274 41.072 108.458 41.288 107.538 41.288C106.858 41.288 106.242 41.16 105.69 40.904C105.146 40.648 104.702 40.348 104.358 40.004C104.014 39.66 103.798 39.352 103.71 39.08V41H101.634ZM110.214 36.08C110.214 35.368 110.07 34.752 109.782 34.232C109.494 33.712 109.11 33.308 108.63 33.02C108.158 32.732 107.638 32.588 107.07 32.588C106.454 32.588 105.894 32.736 105.39 33.032C104.886 33.32 104.486 33.728 104.19 34.256C103.894 34.776 103.746 35.384 103.746 36.08C103.746 36.776 103.894 37.388 104.19 37.916C104.486 38.436 104.886 38.84 105.39 39.128C105.894 39.416 106.454 39.56 107.07 39.56C107.638 39.56 108.158 39.42 108.63 39.14C109.11 38.852 109.494 38.448 109.782 37.928C110.07 37.408 110.214 36.792 110.214 36.08ZM116.44 41H114.34V24.488H116.44V41ZM124.008 41.288C122.992 41.288 122.088 41.06 121.296 40.604C120.512 40.148 119.896 39.532 119.448 38.756C119 37.972 118.776 37.088 118.776 36.104C118.776 35.12 119 34.232 119.448 33.44C119.896 32.648 120.512 32.02 121.296 31.556C122.088 31.092 122.992 30.86 124.008 30.86C125.016 30.86 125.908 31.092 126.684 31.556C127.468 32.02 128.08 32.648 128.52 33.44C128.96 34.232 129.18 35.12 129.18 36.104C129.18 37.088 128.96 37.972 128.52 38.756C128.08 39.532 127.468 40.148 126.684 40.604C125.908 41.06 125.016 41.288 124.008 41.288ZM124.008 39.5C124.648 39.5 125.204 39.352 125.676 39.056C126.156 38.76 126.528 38.356 126.792 37.844C127.056 37.324 127.188 36.74 127.188 36.092C127.188 35.444 127.056 34.86 126.792 34.34C126.528 33.82 126.156 33.408 125.676 33.104C125.204 32.8 124.648 32.648 124.008 32.648C123.36 32.648 122.796 32.8 122.316 33.104C121.836 33.408 121.46 33.82 121.188 34.34C120.924 34.86 120.792 35.444 120.792 36.092C120.792 36.74 120.924 37.324 121.188 37.844C121.46 38.356 121.836 38.76 122.316 39.056C122.796 39.352 123.36 39.5 124.008 39.5ZM137.531 25.16H139.583V39.14H145.811V41H137.531V25.16ZM153.023 41.288C152.007 41.288 151.103 41.06 150.311 40.604C149.527 40.148 148.911 39.532 148.463 38.756C148.015 37.972 147.791 37.088 147.791 36.104C147.791 35.12 148.015 34.232 148.463 33.44C148.911 32.648 149.527 32.02 150.311 31.556C151.103 31.092 152.007 30.86 153.023 30.86C154.031 30.86 154.923 31.092 155.699 31.556C156.483 32.02 157.095 32.648 157.535 33.44C157.975 34.232 158.195 35.12 158.195 36.104C158.195 37.088 157.975 37.972 157.535 38.756C157.095 39.532 156.483 40.148 155.699 40.604C154.923 41.06 154.031 41.288 153.023 41.288ZM153.023 39.5C153.663 39.5 154.219 39.352 154.691 39.056C155.171 38.76 155.543 38.356 155.807 37.844C156.071 37.324 156.203 36.74 156.203 36.092C156.203 35.444 156.071 34.86 155.807 34.34C155.543 33.82 155.171 33.408 154.691 33.104C154.219 32.8 153.663 32.648 153.023 32.648C152.375 32.648 151.811 32.8 151.331 33.104C150.851 33.408 150.475 33.82 150.203 34.34C149.939 34.86 149.807 35.444 149.807 36.092C149.807 36.74 149.939 37.324 150.203 37.844C150.475 38.356 150.851 38.76 151.331 39.056C151.811 39.352 152.375 39.5 153.023 39.5ZM151.511 29.792L150.779 28.796L154.415 25.784L155.615 27.272L151.511 29.792ZM162.622 45.992H160.546V31.148H162.658V32.996C162.73 32.748 162.93 32.456 163.258 32.12C163.586 31.784 164.026 31.492 164.578 31.244C165.138 30.988 165.778 30.86 166.498 30.86C167.41 30.86 168.218 31.08 168.922 31.52C169.634 31.952 170.19 32.56 170.59 33.344C170.998 34.12 171.202 35.032 171.202 36.08C171.202 37.128 170.994 38.044 170.578 38.828C170.162 39.604 169.594 40.208 168.874 40.64C168.162 41.072 167.346 41.288 166.426 41.288C165.682 41.288 165.03 41.148 164.47 40.868C163.918 40.588 163.482 40.272 163.162 39.92C162.85 39.568 162.67 39.288 162.622 39.08V45.992ZM169.138 36.08C169.138 35.368 168.99 34.752 168.694 34.232C168.406 33.712 168.022 33.308 167.542 33.02C167.062 32.732 166.542 32.588 165.982 32.588C165.366 32.588 164.806 32.736 164.302 33.032C163.798 33.32 163.398 33.728 163.102 34.256C162.806 34.776 162.658 35.384 162.658 36.08C162.658 36.776 162.806 37.388 163.102 37.916C163.398 38.436 163.798 38.84 164.302 39.128C164.806 39.416 165.366 39.56 165.982 39.56C166.542 39.56 167.062 39.42 167.542 39.14C168.022 38.852 168.406 38.448 168.694 37.928C168.99 37.408 169.138 36.792 169.138 36.08ZM174.685 36.5C174.693 37.092 174.821 37.632 175.069 38.12C175.317 38.608 175.685 38.996 176.173 39.284C176.669 39.572 177.277 39.716 177.997 39.716C178.605 39.716 179.121 39.628 179.545 39.452C179.977 39.268 180.329 39.052 180.601 38.804C180.873 38.548 181.069 38.32 181.189 38.12L182.209 39.38C181.945 39.764 181.621 40.1 181.237 40.388C180.861 40.676 180.401 40.896 179.857 41.048C179.313 41.208 178.649 41.288 177.865 41.288C176.809 41.288 175.893 41.064 175.117 40.616C174.349 40.16 173.757 39.532 173.341 38.732C172.925 37.924 172.717 37 172.717 35.96C172.717 35 172.913 34.136 173.305 33.368C173.697 32.592 174.265 31.98 175.009 31.532C175.761 31.084 176.665 30.86 177.721 30.86C178.689 30.86 179.529 31.064 180.241 31.472C180.961 31.872 181.517 32.44 181.909 33.176C182.309 33.912 182.509 34.792 182.509 35.816C182.509 35.88 182.505 35.996 182.497 36.164C182.489 36.324 182.481 36.436 182.473 36.5H174.685ZM180.517 34.928C180.509 34.6 180.413 34.24 180.229 33.848C180.053 33.456 179.765 33.12 179.365 32.84C178.965 32.56 178.425 32.42 177.745 32.42C177.041 32.42 176.473 32.556 176.041 32.828C175.617 33.1 175.305 33.432 175.105 33.824C174.905 34.208 174.789 34.576 174.757 34.928H180.517ZM184.431 31.148H193.023L187.131 39.416H192.783V41H183.759L189.651 32.72H184.431V31.148Z" fill="black"/>
<path d="M335.975 25.16H339.707C341.395 25.16 342.783 25.5 343.871 26.18C344.967 26.852 345.779 27.784 346.307 28.976C346.835 30.168 347.099 31.532 347.099 33.068C347.099 34.612 346.835 35.98 346.307 37.172C345.779 38.364 344.971 39.3 343.883 39.98C342.795 40.66 341.403 41 339.707 41H335.975V25.16ZM338.015 27.032V39.128H339.539C340.787 39.128 341.807 38.868 342.599 38.348C343.391 37.828 343.975 37.116 344.351 36.212C344.735 35.3 344.931 34.26 344.939 33.092C344.939 31.916 344.751 30.876 344.375 29.972C343.999 29.06 343.411 28.344 342.611 27.824C341.811 27.296 340.787 27.032 339.539 27.032H338.015ZM349.879 41V31.148H351.967V41H349.879ZM350.947 27.776C350.571 27.776 350.247 27.644 349.975 27.38C349.711 27.108 349.579 26.784 349.579 26.408C349.579 26.032 349.711 25.708 349.975 25.436C350.247 25.164 350.571 25.028 350.947 25.028C351.195 25.028 351.423 25.092 351.631 25.22C351.847 25.348 352.019 25.516 352.147 25.724C352.275 25.924 352.339 26.152 352.339 26.408C352.339 26.784 352.203 27.108 351.931 27.38C351.659 27.644 351.331 27.776 350.947 27.776ZM356.466 36.5C356.474 37.092 356.602 37.632 356.85 38.12C357.098 38.608 357.466 38.996 357.954 39.284C358.45 39.572 359.058 39.716 359.778 39.716C360.386 39.716 360.902 39.628 361.326 39.452C361.758 39.268 362.11 39.052 362.382 38.804C362.654 38.548 362.85 38.32 362.97 38.12L363.99 39.38C363.726 39.764 363.402 40.1 363.018 40.388C362.642 40.676 362.182 40.896 361.638 41.048C361.094 41.208 360.43 41.288 359.646 41.288C358.59 41.288 357.674 41.064 356.898 40.616C356.13 40.16 355.538 39.532 355.122 38.732C354.706 37.924 354.498 37 354.498 35.96C354.498 35 354.694 34.136 355.086 33.368C355.478 32.592 356.046 31.98 356.79 31.532C357.542 31.084 358.446 30.86 359.502 30.86C360.47 30.86 361.31 31.064 362.022 31.472C362.742 31.872 363.298 32.44 363.69 33.176C364.09 33.912 364.29 34.792 364.29 35.816C364.29 35.88 364.286 35.996 364.278 36.164C364.27 36.324 364.262 36.436 364.254 36.5H356.466ZM362.298 34.928C362.29 34.6 362.194 34.24 362.01 33.848C361.834 33.456 361.546 33.12 361.146 32.84C360.746 32.56 360.206 32.42 359.526 32.42C358.822 32.42 358.254 32.556 357.822 32.828C357.398 33.1 357.086 33.432 356.886 33.824C356.686 34.208 356.57 34.576 356.538 34.928H362.298ZM370.292 30.86C370.804 30.86 371.28 30.912 371.72 31.016C372.168 31.12 372.552 31.244 372.872 31.388C373.2 31.532 373.432 31.66 373.568 31.772L372.74 33.092C372.58 32.948 372.292 32.788 371.876 32.612C371.46 32.428 370.996 32.336 370.484 32.336C369.924 32.336 369.448 32.448 369.056 32.672C368.664 32.888 368.468 33.204 368.468 33.62C368.468 34.036 368.668 34.368 369.068 34.616C369.476 34.856 370.02 35.056 370.7 35.216C371.244 35.344 371.752 35.516 372.224 35.732C372.704 35.948 373.092 36.248 373.388 36.632C373.684 37.008 373.832 37.512 373.832 38.144C373.832 38.72 373.712 39.212 373.472 39.62C373.232 40.02 372.908 40.344 372.5 40.592C372.092 40.832 371.636 41.008 371.132 41.12C370.628 41.232 370.116 41.288 369.596 41.288C368.988 41.288 368.44 41.224 367.952 41.096C367.464 40.976 367.052 40.832 366.716 40.664C366.388 40.488 366.148 40.336 365.996 40.208L366.824 38.72C367.032 38.92 367.372 39.132 367.844 39.356C368.324 39.58 368.868 39.692 369.476 39.692C370.148 39.692 370.692 39.552 371.108 39.272C371.524 38.984 371.732 38.612 371.732 38.156C371.732 37.812 371.632 37.536 371.432 37.328C371.232 37.12 370.964 36.952 370.628 36.824C370.292 36.696 369.924 36.584 369.524 36.488C369.14 36.4 368.764 36.284 368.396 36.14C368.036 35.996 367.704 35.812 367.4 35.588C367.104 35.356 366.868 35.076 366.692 34.748C366.516 34.412 366.428 34.02 366.428 33.572C366.428 33.004 366.608 32.52 366.968 32.12C367.328 31.712 367.8 31.4 368.384 31.184C368.968 30.968 369.604 30.86 370.292 30.86ZM375.248 31.148H377.18V27.104H379.256V31.148H381.788V32.936H379.256V37.808C379.256 38.384 379.356 38.808 379.556 39.08C379.764 39.352 380.04 39.488 380.384 39.488C380.688 39.488 380.924 39.432 381.092 39.32C381.26 39.208 381.36 39.132 381.392 39.092L382.22 40.628C382.172 40.668 382.044 40.744 381.836 40.856C381.628 40.968 381.36 41.068 381.032 41.156C380.704 41.244 380.32 41.288 379.88 41.288C379.112 41.288 378.468 41.056 377.948 40.592C377.436 40.12 377.18 39.376 377.18 38.36V32.936H375.248V31.148ZM386.085 41H384.009V31.148H386.085V32.852H386.025C386.065 32.644 386.213 32.384 386.469 32.072C386.725 31.76 387.077 31.48 387.525 31.232C387.973 30.984 388.509 30.86 389.133 30.86C389.589 30.86 389.989 30.924 390.333 31.052C390.685 31.172 390.933 31.292 391.077 31.412L390.225 33.14C390.113 33.028 389.917 32.916 389.637 32.804C389.357 32.684 389.009 32.624 388.593 32.624C388.065 32.624 387.613 32.788 387.237 33.116C386.861 33.444 386.573 33.84 386.373 34.304C386.181 34.76 386.085 35.184 386.085 35.576V41ZM396.773 41.288C395.757 41.288 394.853 41.06 394.061 40.604C393.277 40.148 392.661 39.532 392.213 38.756C391.765 37.972 391.541 37.088 391.541 36.104C391.541 35.12 391.765 34.232 392.213 33.44C392.661 32.648 393.277 32.02 394.061 31.556C394.853 31.092 395.757 30.86 396.773 30.86C397.781 30.86 398.673 31.092 399.449 31.556C400.233 32.02 400.845 32.648 401.285 33.44C401.725 34.232 401.945 35.12 401.945 36.104C401.945 37.088 401.725 37.972 401.285 38.756C400.845 39.532 400.233 40.148 399.449 40.604C398.673 41.06 397.781 41.288 396.773 41.288ZM396.773 39.5C397.413 39.5 397.969 39.352 398.441 39.056C398.921 38.76 399.293 38.356 399.557 37.844C399.821 37.324 399.953 36.74 399.953 36.092C399.953 35.444 399.821 34.86 399.557 34.34C399.293 33.82 398.921 33.408 398.441 33.104C397.969 32.8 397.413 32.648 396.773 32.648C396.125 32.648 395.561 32.8 395.081 33.104C394.601 33.408 394.225 33.82 393.953 34.34C393.689 34.86 393.557 35.444 393.557 36.092C393.557 36.74 393.689 37.324 393.953 37.844C394.225 38.356 394.601 38.76 395.081 39.056C395.561 39.352 396.125 39.5 396.773 39.5Z" fill="black"/>
</svg>
