<svg width="415" height="110" viewBox="0 0 415 110" fill="none" xmlns="http://www.w3.org/2000/svg">
<path d="M0 20C0 8.95431 8.9543 0 20 0H395C406.046 0 415 8.95431 415 20V90C415 101.046 406.046 110 395 110H20C8.95432 110 0 101.046 0 90V20Z" fill="#D9ECD4"/>
<path d="M20 1H395V-1H20V1ZM414 20V90H416V20H414ZM395 109H20V111H395V109ZM1 90V20H-1V90H1ZM20 109C9.5066 109 1 100.493 1 90H-1C-1 101.598 8.40203 111 20 111V109ZM414 90C414 100.493 405.493 109 395 109V111C406.598 111 416 101.598 416 90H414ZM395 1C405.493 1 414 9.50659 414 20H416C416 8.40202 406.598 -1 395 -1V1ZM20 -1C8.40202 -1 -1 8.40202 -1 20H1C1 9.50659 9.50659 1 20 1V-1Z" fill="white" fill-opacity="0.1"/>
<path d="M83.836 36.188C83.836 37.244 83.672 38.152 83.344 38.912C83.016 39.672 82.524 40.26 81.868 40.676C81.22 41.084 80.412 41.288 79.444 41.288C78.684 41.288 78.044 41.184 77.524 40.976C77.004 40.768 76.6 40.54 76.312 40.292C76.024 40.036 75.844 39.848 75.772 39.728L76.672 37.964C76.76 38.108 76.9 38.288 77.092 38.504C77.284 38.712 77.552 38.896 77.896 39.056C78.24 39.216 78.672 39.296 79.192 39.296C79.808 39.296 80.304 39.156 80.68 38.876C81.064 38.588 81.344 38.192 81.52 37.688C81.696 37.184 81.784 36.6 81.784 35.936V25.16H83.836V36.188ZM94.5081 41V39.08C94.4441 39.28 94.2561 39.556 93.9441 39.908C93.6401 40.26 93.2201 40.58 92.6841 40.868C92.1561 41.148 91.5321 41.288 90.8121 41.288C89.9001 41.288 89.0721 41.072 88.3281 40.64C87.5921 40.208 87.0041 39.604 86.5641 38.828C86.1321 38.044 85.9161 37.128 85.9161 36.08C85.9161 35.032 86.1321 34.12 86.5641 33.344C87.0041 32.56 87.5921 31.952 88.3281 31.52C89.0721 31.08 89.9001 30.86 90.8121 30.86C91.5241 30.86 92.1401 30.988 92.6601 31.244C93.1881 31.5 93.6081 31.796 93.9201 32.132C94.2401 32.468 94.4281 32.756 94.4841 32.996V31.148H96.5481V41H94.5081ZM87.9801 36.08C87.9801 36.792 88.1361 37.408 88.4481 37.928C88.7601 38.448 89.1641 38.852 89.6601 39.14C90.1641 39.42 90.7001 39.56 91.2681 39.56C91.8761 39.56 92.4201 39.416 92.9001 39.128C93.3801 38.84 93.7601 38.436 94.0401 37.916C94.3201 37.388 94.4601 36.776 94.4601 36.08C94.4601 35.384 94.3201 34.776 94.0401 34.256C93.7601 33.728 93.3801 33.32 92.9001 33.032C92.4201 32.736 91.8761 32.588 91.2681 32.588C90.7001 32.588 90.1641 32.732 89.6601 33.02C89.1641 33.308 88.7601 33.712 88.4481 34.232C88.1361 34.752 87.9801 35.368 87.9801 36.08ZM98.3541 31.148H100.598L103.814 39.068L107.03 31.148H109.262L105.05 41H102.59L98.3541 31.148ZM111.449 41V31.148H113.537V41H111.449ZM112.517 27.776C112.141 27.776 111.817 27.644 111.545 27.38C111.281 27.108 111.149 26.784 111.149 26.408C111.149 26.032 111.281 25.708 111.545 25.436C111.817 25.164 112.141 25.028 112.517 25.028C112.765 25.028 112.993 25.092 113.201 25.22C113.417 25.348 113.589 25.516 113.717 25.724C113.845 25.924 113.909 26.152 113.909 26.408C113.909 26.784 113.773 27.108 113.501 27.38C113.229 27.644 112.901 27.776 112.517 27.776ZM118.037 36.5C118.045 37.092 118.173 37.632 118.421 38.12C118.669 38.608 119.037 38.996 119.525 39.284C120.021 39.572 120.629 39.716 121.349 39.716C121.957 39.716 122.473 39.628 122.897 39.452C123.329 39.268 123.681 39.052 123.953 38.804C124.225 38.548 124.421 38.32 124.541 38.12L125.561 39.38C125.297 39.764 124.973 40.1 124.589 40.388C124.213 40.676 123.753 40.896 123.209 41.048C122.665 41.208 122.001 41.288 121.217 41.288C120.161 41.288 119.245 41.064 118.469 40.616C117.701 40.16 117.109 39.532 116.693 38.732C116.277 37.924 116.069 37 116.069 35.96C116.069 35 116.265 34.136 116.657 33.368C117.049 32.592 117.617 31.98 118.361 31.532C119.113 31.084 120.017 30.86 121.073 30.86C122.041 30.86 122.881 31.064 123.593 31.472C124.313 31.872 124.869 32.44 125.261 33.176C125.661 33.912 125.861 34.792 125.861 35.816C125.861 35.88 125.857 35.996 125.849 36.164C125.841 36.324 125.833 36.436 125.825 36.5H118.037ZM123.869 34.928C123.861 34.6 123.765 34.24 123.581 33.848C123.405 33.456 123.117 33.12 122.717 32.84C122.317 32.56 121.777 32.42 121.097 32.42C120.393 32.42 119.825 32.556 119.393 32.828C118.969 33.1 118.657 33.432 118.457 33.824C118.257 34.208 118.141 34.576 118.109 34.928H123.869ZM130.218 41H128.142V31.148H130.218V32.852H130.158C130.198 32.644 130.346 32.384 130.602 32.072C130.858 31.76 131.21 31.48 131.658 31.232C132.106 30.984 132.642 30.86 133.266 30.86C133.722 30.86 134.122 30.924 134.466 31.052C134.818 31.172 135.066 31.292 135.21 31.412L134.358 33.14C134.246 33.028 134.05 32.916 133.77 32.804C133.49 32.684 133.142 32.624 132.726 32.624C132.198 32.624 131.746 32.788 131.37 33.116C130.994 33.444 130.706 33.84 130.506 34.304C130.314 34.76 130.218 35.184 130.218 35.576V41ZM149.469 32.396H157.461V33.26C157.461 34.364 157.269 35.404 156.885 36.38C156.501 37.348 155.957 38.2 155.253 38.936C154.557 39.672 153.737 40.248 152.793 40.664C151.849 41.08 150.813 41.288 149.685 41.288C148.533 41.288 147.477 41.076 146.517 40.652C145.557 40.22 144.725 39.628 144.021 38.876C143.317 38.116 142.773 37.24 142.389 36.248C142.005 35.256 141.813 34.196 141.813 33.068C141.813 31.948 142.005 30.892 142.389 29.9C142.773 28.908 143.317 28.036 144.021 27.284C144.725 26.532 145.557 25.944 146.517 25.52C147.477 25.088 148.533 24.872 149.685 24.872C150.469 24.872 151.185 24.96 151.833 25.136C152.489 25.304 153.077 25.544 153.597 25.856C154.125 26.16 154.593 26.508 155.001 26.9C155.409 27.284 155.761 27.692 156.057 28.124L154.197 29.12C153.717 28.456 153.101 27.908 152.349 27.476C151.597 27.044 150.709 26.828 149.685 26.828C148.853 26.828 148.085 26.992 147.381 27.32C146.677 27.648 146.065 28.1 145.545 28.676C145.033 29.252 144.637 29.916 144.357 30.668C144.077 31.42 143.937 32.22 143.937 33.068C143.937 33.916 144.077 34.72 144.357 35.48C144.637 36.232 145.033 36.9 145.545 37.484C146.065 38.06 146.677 38.512 147.381 38.84C148.085 39.168 148.853 39.332 149.685 39.332C150.477 39.332 151.201 39.196 151.857 38.924C152.513 38.652 153.085 38.276 153.573 37.796C154.061 37.316 154.445 36.756 154.725 36.116C155.005 35.476 155.161 34.788 155.193 34.052H149.469V32.396ZM167.703 41V39.08C167.639 39.28 167.451 39.556 167.139 39.908C166.835 40.26 166.415 40.58 165.879 40.868C165.351 41.148 164.727 41.288 164.007 41.288C163.095 41.288 162.267 41.072 161.523 40.64C160.787 40.208 160.199 39.604 159.759 38.828C159.327 38.044 159.111 37.128 159.111 36.08C159.111 35.032 159.327 34.12 159.759 33.344C160.199 32.56 160.787 31.952 161.523 31.52C162.267 31.08 163.095 30.86 164.007 30.86C164.719 30.86 165.335 30.988 165.855 31.244C166.383 31.5 166.803 31.796 167.115 32.132C167.435 32.468 167.623 32.756 167.679 32.996V31.148H169.743V41H167.703ZM161.175 36.08C161.175 36.792 161.331 37.408 161.643 37.928C161.955 38.448 162.359 38.852 162.855 39.14C163.359 39.42 163.895 39.56 164.463 39.56C165.071 39.56 165.615 39.416 166.095 39.128C166.575 38.84 166.955 38.436 167.235 37.916C167.515 37.388 167.655 36.776 167.655 36.08C167.655 35.384 167.515 34.776 167.235 34.256C166.955 33.728 166.575 33.32 166.095 33.032C165.615 32.736 165.071 32.588 164.463 32.588C163.895 32.588 163.359 32.732 162.855 33.02C162.359 33.308 161.955 33.712 161.643 34.232C161.331 34.752 161.175 35.368 161.175 36.08ZM174.585 41H172.509V31.148H174.585V32.852H174.525C174.565 32.644 174.713 32.384 174.969 32.072C175.225 31.76 175.577 31.48 176.025 31.232C176.473 30.984 177.009 30.86 177.633 30.86C178.089 30.86 178.489 30.924 178.833 31.052C179.185 31.172 179.433 31.292 179.577 31.412L178.725 33.14C178.613 33.028 178.417 32.916 178.137 32.804C177.857 32.684 177.509 32.624 177.093 32.624C176.565 32.624 176.113 32.788 175.737 33.116C175.361 33.444 175.073 33.84 174.873 34.304C174.681 34.76 174.585 35.184 174.585 35.576V41ZM185.357 39.56C185.981 39.56 186.485 39.46 186.869 39.26C187.253 39.06 187.493 38.916 187.589 38.828L188.609 40.328C188.529 40.4 188.337 40.516 188.033 40.676C187.737 40.828 187.353 40.968 186.881 41.096C186.417 41.224 185.889 41.288 185.297 41.288C184.393 41.288 183.553 41.088 182.777 40.688C182.001 40.28 181.373 39.688 180.893 38.912C180.421 38.136 180.185 37.188 180.185 36.068C180.185 34.94 180.421 33.992 180.893 33.224C181.373 32.448 182.001 31.86 182.777 31.46C183.553 31.06 184.393 30.86 185.297 30.86C185.881 30.86 186.401 30.932 186.857 31.076C187.313 31.212 187.689 31.364 187.985 31.532C188.281 31.7 188.477 31.828 188.573 31.916L187.541 33.416C187.477 33.352 187.353 33.256 187.169 33.128C186.993 32.992 186.753 32.868 186.449 32.756C186.145 32.644 185.781 32.588 185.357 32.588C184.845 32.588 184.345 32.728 183.857 33.008C183.377 33.28 182.981 33.676 182.669 34.196C182.357 34.716 182.201 35.34 182.201 36.068C182.201 36.796 182.357 37.424 182.669 37.952C182.981 38.472 183.377 38.872 183.857 39.152C184.345 39.424 184.845 39.56 185.357 39.56ZM190.53 41V31.148H192.486V41H190.53ZM190.026 29.792L189.294 28.796L192.93 25.784L194.13 27.272L190.026 29.792ZM203.188 41V39.08C203.124 39.28 202.936 39.556 202.624 39.908C202.32 40.26 201.9 40.58 201.364 40.868C200.836 41.148 200.212 41.288 199.492 41.288C198.58 41.288 197.752 41.072 197.008 40.64C196.272 40.208 195.684 39.604 195.244 38.828C194.812 38.044 194.596 37.128 194.596 36.08C194.596 35.032 194.812 34.12 195.244 33.344C195.684 32.56 196.272 31.952 197.008 31.52C197.752 31.08 198.58 30.86 199.492 30.86C200.204 30.86 200.82 30.988 201.34 31.244C201.868 31.5 202.288 31.796 202.6 32.132C202.92 32.468 203.108 32.756 203.164 32.996V31.148H205.228V41H203.188ZM196.66 36.08C196.66 36.792 196.816 37.408 197.128 37.928C197.44 38.448 197.844 38.852 198.34 39.14C198.844 39.42 199.38 39.56 199.948 39.56C200.556 39.56 201.1 39.416 201.58 39.128C202.06 38.84 202.44 38.436 202.72 37.916C203 37.388 203.14 36.776 203.14 36.08C203.14 35.384 203 34.776 202.72 34.256C202.44 33.728 202.06 33.32 201.58 33.032C201.1 32.736 200.556 32.588 199.948 32.588C199.38 32.588 198.844 32.732 198.34 33.02C197.844 33.308 197.44 33.712 197.128 34.232C196.816 34.752 196.66 35.368 196.66 36.08Z" fill="black"/>
<path d="M294.876 30.68C295.772 30.68 296.6 30.904 297.36 31.352C298.128 31.792 298.748 32.408 299.22 33.2C299.692 33.984 299.928 34.896 299.928 35.936C299.928 36.968 299.676 37.888 299.172 38.696C298.676 39.496 298.004 40.128 297.156 40.592C296.316 41.056 295.388 41.288 294.372 41.288C293.332 41.288 292.392 41.06 291.552 40.604C290.72 40.14 290.06 39.492 289.572 38.66C289.084 37.828 288.84 36.856 288.84 35.744C288.84 34.576 289.04 33.588 289.44 32.78C289.84 31.964 290.312 31.22 290.856 30.548L295.164 25.16H297.624L292.404 31.484C292.58 31.292 292.88 31.112 293.304 30.944C293.736 30.768 294.26 30.68 294.876 30.68ZM294.408 39.548C295.064 39.548 295.66 39.388 296.196 39.068C296.74 38.74 297.172 38.304 297.492 37.76C297.812 37.216 297.972 36.616 297.972 35.96C297.972 35.304 297.812 34.708 297.492 34.172C297.172 33.628 296.74 33.196 296.196 32.876C295.66 32.556 295.064 32.396 294.408 32.396C293.744 32.396 293.14 32.556 292.596 32.876C292.06 33.196 291.628 33.628 291.3 34.172C290.98 34.708 290.82 35.304 290.82 35.96C290.82 36.616 290.98 37.216 291.3 37.76C291.628 38.304 292.06 38.74 292.596 39.068C293.14 39.388 293.744 39.548 294.408 39.548Z" fill="black"/>
<path d="M288.792 80.092C288.792 78.684 288.96 77.464 289.296 76.432C289.64 75.4 290.096 74.548 290.664 73.876C291.24 73.196 291.88 72.692 292.584 72.364C293.296 72.036 294.028 71.872 294.78 71.872C295.532 71.872 296.264 72.036 296.976 72.364C297.688 72.692 298.324 73.196 298.884 73.876C299.452 74.548 299.9 75.4 300.228 76.432C300.564 77.464 300.732 78.684 300.732 80.092C300.732 81.524 300.564 82.76 300.228 83.8C299.9 84.832 299.452 85.68 298.884 86.344C298.324 87 297.688 87.488 296.976 87.808C296.264 88.128 295.532 88.288 294.78 88.288C294.028 88.288 293.296 88.128 292.584 87.808C291.88 87.488 291.24 87 290.664 86.344C290.096 85.68 289.64 84.832 289.296 83.8C288.96 82.76 288.792 81.524 288.792 80.092ZM290.892 80.092C290.892 81.508 291.068 82.688 291.42 83.632C291.772 84.568 292.24 85.268 292.824 85.732C293.416 86.196 294.068 86.428 294.78 86.428C295.492 86.428 296.14 86.196 296.724 85.732C297.308 85.268 297.776 84.568 298.128 83.632C298.48 82.688 298.656 81.508 298.656 80.092C298.656 78.692 298.48 77.524 298.128 76.588C297.776 75.644 297.308 74.932 296.724 74.452C296.14 73.972 295.492 73.732 294.78 73.732C294.068 73.732 293.416 73.972 292.824 74.452C292.24 74.932 291.772 75.644 291.42 76.588C291.068 77.524 290.892 78.692 290.892 80.092Z" fill="black"/>
<path d="M312.392 72.16H322.628V73.636L314.468 88H312.164L320.204 74.008H312.392V72.16Z" fill="black"/>
<path d="M335.392 72.16H345.628V73.636L337.468 88H335.164L343.204 74.008H335.392V72.16Z" fill="black"/>
<path d="M357.792 80.092C357.792 78.684 357.96 77.464 358.296 76.432C358.64 75.4 359.096 74.548 359.664 73.876C360.24 73.196 360.88 72.692 361.584 72.364C362.296 72.036 363.028 71.872 363.78 71.872C364.532 71.872 365.264 72.036 365.976 72.364C366.688 72.692 367.324 73.196 367.884 73.876C368.452 74.548 368.9 75.4 369.228 76.432C369.564 77.464 369.732 78.684 369.732 80.092C369.732 81.524 369.564 82.76 369.228 83.8C368.9 84.832 368.452 85.68 367.884 86.344C367.324 87 366.688 87.488 365.976 87.808C365.264 88.128 364.532 88.288 363.78 88.288C363.028 88.288 362.296 88.128 361.584 87.808C360.88 87.488 360.24 87 359.664 86.344C359.096 85.68 358.64 84.832 358.296 83.8C357.96 82.76 357.792 81.524 357.792 80.092ZM359.892 80.092C359.892 81.508 360.068 82.688 360.42 83.632C360.772 84.568 361.24 85.268 361.824 85.732C362.416 86.196 363.068 86.428 363.78 86.428C364.492 86.428 365.14 86.196 365.724 85.732C366.308 85.268 366.776 84.568 367.128 83.632C367.48 82.688 367.656 81.508 367.656 80.092C367.656 78.692 367.48 77.524 367.128 76.588C366.776 75.644 366.308 74.932 365.724 74.452C365.14 73.972 364.492 73.732 363.78 73.732C363.068 73.732 362.416 73.972 361.824 74.452C361.24 74.932 360.772 75.644 360.42 76.588C360.068 77.524 359.892 78.692 359.892 80.092Z" fill="black"/>
<path d="M380.792 80.092C380.792 78.684 380.96 77.464 381.296 76.432C381.64 75.4 382.096 74.548 382.664 73.876C383.24 73.196 383.88 72.692 384.584 72.364C385.296 72.036 386.028 71.872 386.78 71.872C387.532 71.872 388.264 72.036 388.976 72.364C389.688 72.692 390.324 73.196 390.884 73.876C391.452 74.548 391.9 75.4 392.228 76.432C392.564 77.464 392.732 78.684 392.732 80.092C392.732 81.524 392.564 82.76 392.228 83.8C391.9 84.832 391.452 85.68 390.884 86.344C390.324 87 389.688 87.488 388.976 87.808C388.264 88.128 387.532 88.288 386.78 88.288C386.028 88.288 385.296 88.128 384.584 87.808C383.88 87.488 383.24 87 382.664 86.344C382.096 85.68 381.64 84.832 381.296 83.8C380.96 82.76 380.792 81.524 380.792 80.092ZM382.892 80.092C382.892 81.508 383.068 82.688 383.42 83.632C383.772 84.568 384.24 85.268 384.824 85.732C385.416 86.196 386.068 86.428 386.78 86.428C387.492 86.428 388.14 86.196 388.724 85.732C389.308 85.268 389.776 84.568 390.128 83.632C390.48 82.688 390.656 81.508 390.656 80.092C390.656 78.692 390.48 77.524 390.128 76.588C389.776 75.644 389.308 74.932 388.724 74.452C388.14 73.972 387.492 73.732 386.78 73.732C386.068 73.732 385.416 73.972 384.824 74.452C384.24 74.932 383.772 75.644 383.42 76.588C383.068 77.524 382.892 78.692 382.892 80.092Z" fill="black"/>
<path d="M317.876 30.68C318.772 30.68 319.6 30.904 320.36 31.352C321.128 31.792 321.748 32.408 322.22 33.2C322.692 33.984 322.928 34.896 322.928 35.936C322.928 36.968 322.676 37.888 322.172 38.696C321.676 39.496 321.004 40.128 320.156 40.592C319.316 41.056 318.388 41.288 317.372 41.288C316.332 41.288 315.392 41.06 314.552 40.604C313.72 40.14 313.06 39.492 312.572 38.66C312.084 37.828 311.84 36.856 311.84 35.744C311.84 34.576 312.04 33.588 312.44 32.78C312.84 31.964 313.312 31.22 313.856 30.548L318.164 25.16H320.624L315.404 31.484C315.58 31.292 315.88 31.112 316.304 30.944C316.736 30.768 317.26 30.68 317.876 30.68ZM317.408 39.548C318.064 39.548 318.66 39.388 319.196 39.068C319.74 38.74 320.172 38.304 320.492 37.76C320.812 37.216 320.972 36.616 320.972 35.96C320.972 35.304 320.812 34.708 320.492 34.172C320.172 33.628 319.74 33.196 319.196 32.876C318.66 32.556 318.064 32.396 317.408 32.396C316.744 32.396 316.14 32.556 315.596 32.876C315.06 33.196 314.628 33.628 314.3 34.172C313.98 34.708 313.82 35.304 313.82 35.96C313.82 36.616 313.98 37.216 314.3 37.76C314.628 38.304 315.06 38.74 315.596 39.068C316.14 39.388 316.744 39.548 317.408 39.548Z" fill="black"/>
<path d="M340.876 30.68C341.772 30.68 342.6 30.904 343.36 31.352C344.128 31.792 344.748 32.408 345.22 33.2C345.692 33.984 345.928 34.896 345.928 35.936C345.928 36.968 345.676 37.888 345.172 38.696C344.676 39.496 344.004 40.128 343.156 40.592C342.316 41.056 341.388 41.288 340.372 41.288C339.332 41.288 338.392 41.06 337.552 40.604C336.72 40.14 336.06 39.492 335.572 38.66C335.084 37.828 334.84 36.856 334.84 35.744C334.84 34.576 335.04 33.588 335.44 32.78C335.84 31.964 336.312 31.22 336.856 30.548L341.164 25.16H343.624L338.404 31.484C338.58 31.292 338.88 31.112 339.304 30.944C339.736 30.768 340.26 30.68 340.876 30.68ZM340.408 39.548C341.064 39.548 341.66 39.388 342.196 39.068C342.74 38.74 343.172 38.304 343.492 37.76C343.812 37.216 343.972 36.616 343.972 35.96C343.972 35.304 343.812 34.708 343.492 34.172C343.172 33.628 342.74 33.196 342.196 32.876C341.66 32.556 341.064 32.396 340.408 32.396C339.744 32.396 339.14 32.556 338.596 32.876C338.06 33.196 337.628 33.628 337.3 34.172C336.98 34.708 336.82 35.304 336.82 35.96C336.82 36.616 336.98 37.216 337.3 37.76C337.628 38.304 338.06 38.74 338.596 39.068C339.14 39.388 339.744 39.548 340.408 39.548Z" fill="black"/>
<path d="M363.876 30.68C364.772 30.68 365.6 30.904 366.36 31.352C367.128 31.792 367.748 32.408 368.22 33.2C368.692 33.984 368.928 34.896 368.928 35.936C368.928 36.968 368.676 37.888 368.172 38.696C367.676 39.496 367.004 40.128 366.156 40.592C365.316 41.056 364.388 41.288 363.372 41.288C362.332 41.288 361.392 41.06 360.552 40.604C359.72 40.14 359.06 39.492 358.572 38.66C358.084 37.828 357.84 36.856 357.84 35.744C357.84 34.576 358.04 33.588 358.44 32.78C358.84 31.964 359.312 31.22 359.856 30.548L364.164 25.16H366.624L361.404 31.484C361.58 31.292 361.88 31.112 362.304 30.944C362.736 30.768 363.26 30.68 363.876 30.68ZM363.408 39.548C364.064 39.548 364.66 39.388 365.196 39.068C365.74 38.74 366.172 38.304 366.492 37.76C366.812 37.216 366.972 36.616 366.972 35.96C366.972 35.304 366.812 34.708 366.492 34.172C366.172 33.628 365.74 33.196 365.196 32.876C364.66 32.556 364.064 32.396 363.408 32.396C362.744 32.396 362.14 32.556 361.596 32.876C361.06 33.196 360.628 33.628 360.3 34.172C359.98 34.708 359.82 35.304 359.82 35.96C359.82 36.616 359.98 37.216 360.3 37.76C360.628 38.304 361.06 38.74 361.596 39.068C362.14 39.388 362.744 39.548 363.408 39.548Z" fill="black"/>
<path d="M386.876 30.68C387.772 30.68 388.6 30.904 389.36 31.352C390.128 31.792 390.748 32.408 391.22 33.2C391.692 33.984 391.928 34.896 391.928 35.936C391.928 36.968 391.676 37.888 391.172 38.696C390.676 39.496 390.004 40.128 389.156 40.592C388.316 41.056 387.388 41.288 386.372 41.288C385.332 41.288 384.392 41.06 383.552 40.604C382.72 40.14 382.06 39.492 381.572 38.66C381.084 37.828 380.84 36.856 380.84 35.744C380.84 34.576 381.04 33.588 381.44 32.78C381.84 31.964 382.312 31.22 382.856 30.548L387.164 25.16H389.624L384.404 31.484C384.58 31.292 384.88 31.112 385.304 30.944C385.736 30.768 386.26 30.68 386.876 30.68ZM386.408 39.548C387.064 39.548 387.66 39.388 388.196 39.068C388.74 38.74 389.172 38.304 389.492 37.76C389.812 37.216 389.972 36.616 389.972 35.96C389.972 35.304 389.812 34.708 389.492 34.172C389.172 33.628 388.74 33.196 388.196 32.876C387.66 32.556 387.064 32.396 386.408 32.396C385.744 32.396 385.14 32.556 384.596 32.876C384.06 33.196 383.628 33.628 383.3 34.172C382.98 34.708 382.82 35.304 382.82 35.96C382.82 36.616 382.98 37.216 383.3 37.76C383.628 38.304 384.06 38.74 384.596 39.068C385.14 39.388 385.744 39.548 386.408 39.548Z" fill="black"/>
<path d="M74.32 72.16H79.852C80.708 72.16 81.484 72.34 82.18 72.7C82.884 73.052 83.444 73.572 83.86 74.26C84.284 74.94 84.496 75.772 84.496 76.756C84.496 77.732 84.3 78.54 83.908 79.18C83.524 79.82 83.06 80.304 82.516 80.632C81.972 80.952 81.468 81.128 81.004 81.16L84.928 88H82.6L78.928 81.304H76.372V88H74.32V72.16ZM76.372 79.78H79.132C80.076 79.78 80.856 79.544 81.472 79.072C82.088 78.6 82.396 77.844 82.396 76.804C82.396 75.764 82.088 75.016 81.472 74.56C80.864 74.104 80.088 73.876 79.144 73.876H76.372V79.78ZM92.1325 88.288C91.1165 88.288 90.2125 88.06 89.4205 87.604C88.6365 87.148 88.0205 86.532 87.5725 85.756C87.1245 84.972 86.9005 84.088 86.9005 83.104C86.9005 82.12 87.1245 81.232 87.5725 80.44C88.0205 79.648 88.6365 79.02 89.4205 78.556C90.2125 78.092 91.1165 77.86 92.1325 77.86C93.1405 77.86 94.0325 78.092 94.8085 78.556C95.5925 79.02 96.2045 79.648 96.6445 80.44C97.0845 81.232 97.3045 82.12 97.3045 83.104C97.3045 84.088 97.0845 84.972 96.6445 85.756C96.2045 86.532 95.5925 87.148 94.8085 87.604C94.0325 88.06 93.1405 88.288 92.1325 88.288ZM92.1325 86.5C92.7725 86.5 93.3285 86.352 93.8005 86.056C94.2805 85.76 94.6525 85.356 94.9165 84.844C95.1805 84.324 95.3125 83.74 95.3125 83.092C95.3125 82.444 95.1805 81.86 94.9165 81.34C94.6525 80.82 94.2805 80.408 93.8005 80.104C93.3285 79.8 92.7725 79.648 92.1325 79.648C91.4845 79.648 90.9205 79.8 90.4405 80.104C89.9605 80.408 89.5845 80.82 89.3125 81.34C89.0485 81.86 88.9165 82.444 88.9165 83.092C88.9165 83.74 89.0485 84.324 89.3125 84.844C89.5845 85.356 89.9605 85.76 90.4405 86.056C90.9205 86.352 91.4845 86.5 92.1325 86.5ZM104.263 86.56C104.887 86.56 105.391 86.46 105.775 86.26C106.159 86.06 106.399 85.916 106.495 85.828L107.515 87.328C107.435 87.4 107.243 87.516 106.939 87.676C106.643 87.828 106.259 87.968 105.787 88.096C105.323 88.224 104.795 88.288 104.203 88.288C103.299 88.288 102.459 88.088 101.683 87.688C100.907 87.28 100.279 86.688 99.7994 85.912C99.3274 85.136 99.0914 84.188 99.0914 83.068C99.0914 81.94 99.3274 80.992 99.7994 80.224C100.279 79.448 100.907 78.86 101.683 78.46C102.459 78.06 103.299 77.86 104.203 77.86C104.787 77.86 105.307 77.932 105.763 78.076C106.219 78.212 106.595 78.364 106.891 78.532C107.187 78.7 107.383 78.828 107.479 78.916L106.447 80.416C106.383 80.352 106.259 80.256 106.075 80.128C105.899 79.992 105.659 79.868 105.355 79.756C105.051 79.644 104.687 79.588 104.263 79.588C103.751 79.588 103.251 79.728 102.763 80.008C102.283 80.28 101.887 80.676 101.575 81.196C101.263 81.716 101.107 82.34 101.107 83.068C101.107 83.796 101.263 84.424 101.575 84.952C101.887 85.472 102.283 85.872 102.763 86.152C103.251 86.424 103.751 86.56 104.263 86.56ZM109.436 88V78.148H111.392V88H109.436ZM108.932 76.792L108.2 75.796L111.836 72.784L113.036 74.272L108.932 76.792ZM118.734 88.288C117.718 88.288 116.814 88.06 116.022 87.604C115.238 87.148 114.622 86.532 114.174 85.756C113.726 84.972 113.502 84.088 113.502 83.104C113.502 82.12 113.726 81.232 114.174 80.44C114.622 79.648 115.238 79.02 116.022 78.556C116.814 78.092 117.718 77.86 118.734 77.86C119.742 77.86 120.634 78.092 121.41 78.556C122.194 79.02 122.806 79.648 123.246 80.44C123.686 81.232 123.906 82.12 123.906 83.104C123.906 84.088 123.686 84.972 123.246 85.756C122.806 86.532 122.194 87.148 121.41 87.604C120.634 88.06 119.742 88.288 118.734 88.288ZM118.734 86.5C119.374 86.5 119.93 86.352 120.402 86.056C120.882 85.76 121.254 85.356 121.518 84.844C121.782 84.324 121.914 83.74 121.914 83.092C121.914 82.444 121.782 81.86 121.518 81.34C121.254 80.82 120.882 80.408 120.402 80.104C119.93 79.8 119.374 79.648 118.734 79.648C118.086 79.648 117.522 79.8 117.042 80.104C116.562 80.408 116.186 80.82 115.914 81.34C115.65 81.86 115.518 82.444 115.518 83.092C115.518 83.74 115.65 84.324 115.914 84.844C116.186 85.356 116.562 85.76 117.042 86.056C117.522 86.352 118.086 86.5 118.734 86.5ZM141.894 80.98H134.298V88H132.27V72.16H134.298V79.132H141.894V72.16H143.922V88H141.894V80.98ZM148.388 83.5C148.396 84.092 148.524 84.632 148.772 85.12C149.02 85.608 149.388 85.996 149.876 86.284C150.372 86.572 150.98 86.716 151.7 86.716C152.308 86.716 152.824 86.628 153.248 86.452C153.68 86.268 154.032 86.052 154.304 85.804C154.576 85.548 154.772 85.32 154.892 85.12L155.912 86.38C155.648 86.764 155.324 87.1 154.94 87.388C154.564 87.676 154.104 87.896 153.56 88.048C153.016 88.208 152.352 88.288 151.568 88.288C150.512 88.288 149.596 88.064 148.82 87.616C148.052 87.16 147.46 86.532 147.044 85.732C146.628 84.924 146.42 84 146.42 82.96C146.42 82 146.616 81.136 147.008 80.368C147.4 79.592 147.968 78.98 148.712 78.532C149.464 78.084 150.368 77.86 151.424 77.86C152.392 77.86 153.232 78.064 153.944 78.472C154.664 78.872 155.22 79.44 155.612 80.176C156.012 80.912 156.212 81.792 156.212 82.816C156.212 82.88 156.208 82.996 156.2 83.164C156.192 83.324 156.184 83.436 156.176 83.5H148.388ZM154.22 81.928C154.212 81.6 154.116 81.24 153.932 80.848C153.756 80.456 153.468 80.12 153.068 79.84C152.668 79.56 152.128 79.42 151.448 79.42C150.744 79.42 150.176 79.556 149.744 79.828C149.32 80.1 149.008 80.432 148.808 80.824C148.608 81.208 148.492 81.576 148.46 81.928H154.22ZM160.57 88H158.494V78.148H160.57V79.852H160.51C160.55 79.644 160.698 79.384 160.954 79.072C161.21 78.76 161.562 78.48 162.01 78.232C162.458 77.984 162.994 77.86 163.618 77.86C164.074 77.86 164.474 77.924 164.818 78.052C165.17 78.172 165.418 78.292 165.562 78.412L164.71 80.14C164.598 80.028 164.402 79.916 164.122 79.804C163.842 79.684 163.494 79.624 163.078 79.624C162.55 79.624 162.098 79.788 161.722 80.116C161.346 80.444 161.058 80.84 160.858 81.304C160.666 81.76 160.57 82.184 160.57 82.576V88ZM172.416 77.86C173.064 77.86 173.692 77.996 174.3 78.268C174.916 78.54 175.42 78.972 175.812 79.564C176.212 80.148 176.412 80.912 176.412 81.856V88H174.3V82.264C174.3 81.288 174.072 80.58 173.616 80.14C173.16 79.692 172.572 79.468 171.852 79.468C171.38 79.468 170.924 79.604 170.484 79.876C170.052 80.14 169.696 80.508 169.416 80.98C169.136 81.444 168.996 81.972 168.996 82.564V88H166.908V78.148H168.996V79.9C169.068 79.628 169.264 79.332 169.584 79.012C169.904 78.692 170.312 78.42 170.808 78.196C171.304 77.972 171.84 77.86 172.416 77.86ZM187.063 88V86.08C186.999 86.28 186.811 86.556 186.499 86.908C186.195 87.26 185.775 87.58 185.239 87.868C184.711 88.148 184.087 88.288 183.367 88.288C182.455 88.288 181.627 88.072 180.883 87.64C180.147 87.208 179.559 86.604 179.119 85.828C178.687 85.044 178.471 84.128 178.471 83.08C178.471 82.032 178.687 81.12 179.119 80.344C179.559 79.56 180.147 78.952 180.883 78.52C181.627 78.08 182.455 77.86 183.367 77.86C184.079 77.86 184.695 77.988 185.215 78.244C185.743 78.5 186.163 78.796 186.475 79.132C186.795 79.468 186.983 79.756 187.039 79.996V78.148H189.103V88H187.063ZM180.535 83.08C180.535 83.792 180.691 84.408 181.003 84.928C181.315 85.448 181.719 85.852 182.215 86.14C182.719 86.42 183.255 86.56 183.823 86.56C184.431 86.56 184.975 86.416 185.455 86.128C185.935 85.84 186.315 85.436 186.595 84.916C186.875 84.388 187.015 83.776 187.015 83.08C187.015 82.384 186.875 81.776 186.595 81.256C186.315 80.728 185.935 80.32 185.455 80.032C184.975 79.736 184.431 79.588 183.823 79.588C183.255 79.588 182.719 79.732 182.215 80.02C181.719 80.308 181.315 80.712 181.003 81.232C180.691 81.752 180.535 82.368 180.535 83.08ZM182.455 76.792L181.723 75.796L185.359 72.784L186.559 74.272L182.455 76.792ZM197.401 77.86C198.049 77.86 198.677 77.996 199.285 78.268C199.901 78.54 200.405 78.972 200.797 79.564C201.197 80.148 201.397 80.912 201.397 81.856V88H199.285V82.264C199.285 81.288 199.057 80.58 198.601 80.14C198.145 79.692 197.557 79.468 196.837 79.468C196.365 79.468 195.909 79.604 195.469 79.876C195.037 80.14 194.681 80.508 194.401 80.98C194.121 81.444 193.981 81.972 193.981 82.564V88H191.893V78.148H193.981V79.9C194.053 79.628 194.249 79.332 194.569 79.012C194.889 78.692 195.297 78.42 195.793 78.196C196.289 77.972 196.825 77.86 197.401 77.86ZM208.471 88.288C207.567 88.288 206.755 88.072 206.035 87.64C205.323 87.208 204.759 86.604 204.343 85.828C203.935 85.044 203.731 84.128 203.731 83.08C203.731 82.032 203.935 81.12 204.343 80.344C204.759 79.56 205.323 78.952 206.035 78.52C206.755 78.08 207.567 77.86 208.471 77.86C209.199 77.86 209.839 77.988 210.391 78.244C210.943 78.492 211.383 78.784 211.711 79.12C212.039 79.456 212.227 79.748 212.275 79.996V71.488H214.375V88H212.311V86.08C212.223 86.352 212.003 86.66 211.651 87.004C211.307 87.348 210.863 87.648 210.319 87.904C209.775 88.16 209.159 88.288 208.471 88.288ZM208.951 86.56C209.559 86.56 210.115 86.416 210.619 86.128C211.123 85.84 211.523 85.436 211.819 84.916C212.123 84.388 212.275 83.776 212.275 83.08C212.275 82.384 212.123 81.776 211.819 81.256C211.523 80.728 211.123 80.32 210.619 80.032C210.115 79.736 209.559 79.588 208.951 79.588C208.391 79.588 207.871 79.732 207.391 80.02C206.911 80.308 206.523 80.712 206.227 81.232C205.939 81.752 205.795 82.368 205.795 83.08C205.795 83.792 205.939 84.408 206.227 84.928C206.523 85.448 206.911 85.852 207.391 86.14C207.871 86.42 208.391 86.56 208.951 86.56ZM218.021 83.5C218.029 84.092 218.157 84.632 218.405 85.12C218.653 85.608 219.021 85.996 219.509 86.284C220.005 86.572 220.613 86.716 221.333 86.716C221.941 86.716 222.457 86.628 222.881 86.452C223.313 86.268 223.665 86.052 223.937 85.804C224.209 85.548 224.405 85.32 224.525 85.12L225.545 86.38C225.281 86.764 224.957 87.1 224.573 87.388C224.197 87.676 223.737 87.896 223.193 88.048C222.649 88.208 221.985 88.288 221.201 88.288C220.145 88.288 219.229 88.064 218.453 87.616C217.685 87.16 217.093 86.532 216.677 85.732C216.261 84.924 216.053 84 216.053 82.96C216.053 82 216.249 81.136 216.641 80.368C217.033 79.592 217.601 78.98 218.345 78.532C219.097 78.084 220.001 77.86 221.057 77.86C222.025 77.86 222.865 78.064 223.577 78.472C224.297 78.872 224.853 79.44 225.245 80.176C225.645 80.912 225.845 81.792 225.845 82.816C225.845 82.88 225.841 82.996 225.833 83.164C225.825 83.324 225.817 83.436 225.809 83.5H218.021ZM223.853 81.928C223.845 81.6 223.749 81.24 223.565 80.848C223.389 80.456 223.101 80.12 222.701 79.84C222.301 79.56 221.761 79.42 221.081 79.42C220.377 79.42 219.809 79.556 219.377 79.828C218.953 80.1 218.641 80.432 218.441 80.824C218.241 81.208 218.125 81.576 218.093 81.928H223.853ZM227.767 78.148H236.359L230.467 86.416H236.119V88H227.095L232.987 79.72H227.767V78.148Z" fill="black"/>
<path d="M268 23L270.47 30.9463H278.462L271.996 35.8574L274.466 43.8037L268 38.8926L261.534 43.8037L264.004 35.8574L257.538 30.9463H265.53L268 23Z" fill="black"/>
<path d="M21 34C21 22.9543 29.9543 14 41 14C52.0457 14 61 22.9543 61 34C61 45.0457 52.0457 54 41 54C29.9543 54 21 45.0457 21 34Z" fill="#B3261E"/>
<path d="M42.8999 26.4545H44.6612V36.8523C44.6612 37.7803 44.4908 38.5687 44.1499 39.2173C43.8089 39.866 43.3284 40.3584 42.7081 40.6946C42.0878 41.0308 41.3563 41.1989 40.5135 41.1989C39.718 41.1989 39.0102 41.0545 38.3899 40.7656C37.7696 40.4721 37.282 40.0554 36.9268 39.5156C36.5717 38.9759 36.3942 38.3343 36.3942 37.5909H38.1271C38.1271 38.0028 38.2289 38.3627 38.4325 38.6705C38.6409 38.9735 38.925 39.2102 39.2848 39.3807C39.6446 39.5511 40.0542 39.6364 40.5135 39.6364C41.0201 39.6364 41.451 39.5298 41.8061 39.3168C42.1612 39.1037 42.4311 38.7912 42.6158 38.3793C42.8052 37.9626 42.8999 37.4536 42.8999 36.8523V26.4545Z" fill="#F5F5F5"/>
<path d="M21 82C21 70.9543 29.9543 62 41 62C52.0457 62 61 70.9543 61 82C61 93.0457 52.0457 102 41 102C29.9543 102 21 93.0457 21 82Z" fill="#4F378B"/>
<path d="M36.3649 89V74.4545H41.2797C42.416 74.4545 43.3488 74.6487 44.0779 75.0369C44.8071 75.4205 45.3469 75.9484 45.6973 76.6207C46.0476 77.2931 46.2228 78.0578 46.2228 78.9148C46.2228 79.7718 46.0476 80.5317 45.6973 81.1946C45.3469 81.8575 44.8095 82.3783 44.085 82.7571C43.3606 83.1312 42.435 83.3182 41.3081 83.3182H37.3308V81.7273H41.2512C42.0278 81.7273 42.6528 81.6136 43.1262 81.3864C43.6045 81.1591 43.9501 80.8371 44.1632 80.4205C44.381 79.9991 44.4899 79.4972 44.4899 78.9148C44.4899 78.3324 44.381 77.8234 44.1632 77.3878C43.9454 76.9522 43.5974 76.616 43.1191 76.3793C42.6409 76.1378 42.0088 76.017 41.2228 76.017H38.1262V89H36.3649ZM43.2115 82.4659L46.791 89H44.7456L41.2228 82.4659H43.2115Z" fill="#F5F5F5"/>
</svg>
