<svg width="415" height="70" viewBox="0 0 415 70" fill="none" xmlns="http://www.w3.org/2000/svg">
<path d="M0 20C0 8.9543 8.9543 0 20 0H395C406.046 0 415 8.95431 415 20V50C415 61.0457 406.046 70 395 70H20C8.95432 70 0 61.0457 0 50V20Z" fill="#D9ECD4"/>
<path d="M20 1H395V-1H20V1ZM414 20V50H416V20H414ZM395 69H20V71H395V69ZM1 50V20H-1V50H1ZM20 69C9.5066 69 1 60.4934 1 50H-1C-1 61.598 8.40203 71 20 71V69ZM414 50C414 60.4934 405.493 69 395 69V71C406.598 71 416 61.598 416 50H414ZM395 1C405.493 1 414 9.50659 414 20H416C416 8.40202 406.598 -1 395 -1V1ZM20 -1C8.40202 -1 -1 8.40202 -1 20H1C1 9.50659 9.50659 1 20 1V-1Z" fill="white" fill-opacity="0.1"/>
<path d="M21 35C21 23.9543 29.9543 15 41 15C52.0457 15 61 23.9543 61 35C61 46.0457 52.0457 55 41 55C29.9543 55 21 46.0457 21 35Z" fill="#B3261E"/>
<path d="M42.8999 27.4545H44.6612V37.8523C44.6612 38.7803 44.4908 39.5687 44.1499 40.2173C43.8089 40.866 43.3284 41.3584 42.7081 41.6946C42.0878 42.0308 41.3563 42.1989 40.5135 42.1989C39.718 42.1989 39.0102 42.0545 38.3899 41.7656C37.7696 41.4721 37.282 41.0554 36.9268 40.5156C36.5717 39.9759 36.3942 39.3343 36.3942 38.5909H38.1271C38.1271 39.0028 38.2289 39.3627 38.4325 39.6705C38.6409 39.9735 38.925 40.2102 39.2848 40.3807C39.6446 40.5511 40.0542 40.6364 40.5135 40.6364C41.0201 40.6364 41.451 40.5298 41.8061 40.3168C42.1612 40.1037 42.4311 39.7912 42.6158 39.3793C42.8052 38.9626 42.8999 38.4536 42.8999 37.8523V27.4545Z" fill="#F5F5F5"/>
<path d="M83.836 36.188C83.836 37.244 83.672 38.152 83.344 38.912C83.016 39.672 82.524 40.26 81.868 40.676C81.22 41.084 80.412 41.288 79.444 41.288C78.684 41.288 78.044 41.184 77.524 40.976C77.004 40.768 76.6 40.54 76.312 40.292C76.024 40.036 75.844 39.848 75.772 39.728L76.672 37.964C76.76 38.108 76.9 38.288 77.092 38.504C77.284 38.712 77.552 38.896 77.896 39.056C78.24 39.216 78.672 39.296 79.192 39.296C79.808 39.296 80.304 39.156 80.68 38.876C81.064 38.588 81.344 38.192 81.52 37.688C81.696 37.184 81.784 36.6 81.784 35.936V25.16H83.836V36.188ZM94.5081 41V39.08C94.4441 39.28 94.2561 39.556 93.9441 39.908C93.6401 40.26 93.2201 40.58 92.6841 40.868C92.1561 41.148 91.5321 41.288 90.8121 41.288C89.9001 41.288 89.0721 41.072 88.3281 40.64C87.5921 40.208 87.0041 39.604 86.5641 38.828C86.1321 38.044 85.9161 37.128 85.9161 36.08C85.9161 35.032 86.1321 34.12 86.5641 33.344C87.0041 32.56 87.5921 31.952 88.3281 31.52C89.0721 31.08 89.9001 30.86 90.8121 30.86C91.5241 30.86 92.1401 30.988 92.6601 31.244C93.1881 31.5 93.6081 31.796 93.9201 32.132C94.2401 32.468 94.4281 32.756 94.4841 32.996V31.148H96.5481V41H94.5081ZM87.9801 36.08C87.9801 36.792 88.1361 37.408 88.4481 37.928C88.7601 38.448 89.1641 38.852 89.6601 39.14C90.1641 39.42 90.7001 39.56 91.2681 39.56C91.8761 39.56 92.4201 39.416 92.9001 39.128C93.3801 38.84 93.7601 38.436 94.0401 37.916C94.3201 37.388 94.4601 36.776 94.4601 36.08C94.4601 35.384 94.3201 34.776 94.0401 34.256C93.7601 33.728 93.3801 33.32 92.9001 33.032C92.4201 32.736 91.8761 32.588 91.2681 32.588C90.7001 32.588 90.1641 32.732 89.6601 33.02C89.1641 33.308 88.7601 33.712 88.4481 34.232C88.1361 34.752 87.9801 35.368 87.9801 36.08ZM98.3541 31.148H100.598L103.814 39.068L107.03 31.148H109.262L105.05 41H102.59L98.3541 31.148ZM111.449 41V31.148H113.537V41H111.449ZM112.517 27.776C112.141 27.776 111.817 27.644 111.545 27.38C111.281 27.108 111.149 26.784 111.149 26.408C111.149 26.032 111.281 25.708 111.545 25.436C111.817 25.164 112.141 25.028 112.517 25.028C112.765 25.028 112.993 25.092 113.201 25.22C113.417 25.348 113.589 25.516 113.717 25.724C113.845 25.924 113.909 26.152 113.909 26.408C113.909 26.784 113.773 27.108 113.501 27.38C113.229 27.644 112.901 27.776 112.517 27.776ZM118.037 36.5C118.045 37.092 118.173 37.632 118.421 38.12C118.669 38.608 119.037 38.996 119.525 39.284C120.021 39.572 120.629 39.716 121.349 39.716C121.957 39.716 122.473 39.628 122.897 39.452C123.329 39.268 123.681 39.052 123.953 38.804C124.225 38.548 124.421 38.32 124.541 38.12L125.561 39.38C125.297 39.764 124.973 40.1 124.589 40.388C124.213 40.676 123.753 40.896 123.209 41.048C122.665 41.208 122.001 41.288 121.217 41.288C120.161 41.288 119.245 41.064 118.469 40.616C117.701 40.16 117.109 39.532 116.693 38.732C116.277 37.924 116.069 37 116.069 35.96C116.069 35 116.265 34.136 116.657 33.368C117.049 32.592 117.617 31.98 118.361 31.532C119.113 31.084 120.017 30.86 121.073 30.86C122.041 30.86 122.881 31.064 123.593 31.472C124.313 31.872 124.869 32.44 125.261 33.176C125.661 33.912 125.861 34.792 125.861 35.816C125.861 35.88 125.857 35.996 125.849 36.164C125.841 36.324 125.833 36.436 125.825 36.5H118.037ZM123.869 34.928C123.861 34.6 123.765 34.24 123.581 33.848C123.405 33.456 123.117 33.12 122.717 32.84C122.317 32.56 121.777 32.42 121.097 32.42C120.393 32.42 119.825 32.556 119.393 32.828C118.969 33.1 118.657 33.432 118.457 33.824C118.257 34.208 118.141 34.576 118.109 34.928H123.869ZM130.218 41H128.142V31.148H130.218V32.852H130.158C130.198 32.644 130.346 32.384 130.602 32.072C130.858 31.76 131.21 31.48 131.658 31.232C132.106 30.984 132.642 30.86 133.266 30.86C133.722 30.86 134.122 30.924 134.466 31.052C134.818 31.172 135.066 31.292 135.21 31.412L134.358 33.14C134.246 33.028 134.05 32.916 133.77 32.804C133.49 32.684 133.142 32.624 132.726 32.624C132.198 32.624 131.746 32.788 131.37 33.116C130.994 33.444 130.706 33.84 130.506 34.304C130.314 34.76 130.218 35.184 130.218 35.576V41ZM149.469 32.396H157.461V33.26C157.461 34.364 157.269 35.404 156.885 36.38C156.501 37.348 155.957 38.2 155.253 38.936C154.557 39.672 153.737 40.248 152.793 40.664C151.849 41.08 150.813 41.288 149.685 41.288C148.533 41.288 147.477 41.076 146.517 40.652C145.557 40.22 144.725 39.628 144.021 38.876C143.317 38.116 142.773 37.24 142.389 36.248C142.005 35.256 141.813 34.196 141.813 33.068C141.813 31.948 142.005 30.892 142.389 29.9C142.773 28.908 143.317 28.036 144.021 27.284C144.725 26.532 145.557 25.944 146.517 25.52C147.477 25.088 148.533 24.872 149.685 24.872C150.469 24.872 151.185 24.96 151.833 25.136C152.489 25.304 153.077 25.544 153.597 25.856C154.125 26.16 154.593 26.508 155.001 26.9C155.409 27.284 155.761 27.692 156.057 28.124L154.197 29.12C153.717 28.456 153.101 27.908 152.349 27.476C151.597 27.044 150.709 26.828 149.685 26.828C148.853 26.828 148.085 26.992 147.381 27.32C146.677 27.648 146.065 28.1 145.545 28.676C145.033 29.252 144.637 29.916 144.357 30.668C144.077 31.42 143.937 32.22 143.937 33.068C143.937 33.916 144.077 34.72 144.357 35.48C144.637 36.232 145.033 36.9 145.545 37.484C146.065 38.06 146.677 38.512 147.381 38.84C148.085 39.168 148.853 39.332 149.685 39.332C150.477 39.332 151.201 39.196 151.857 38.924C152.513 38.652 153.085 38.276 153.573 37.796C154.061 37.316 154.445 36.756 154.725 36.116C155.005 35.476 155.161 34.788 155.193 34.052H149.469V32.396ZM167.703 41V39.08C167.639 39.28 167.451 39.556 167.139 39.908C166.835 40.26 166.415 40.58 165.879 40.868C165.351 41.148 164.727 41.288 164.007 41.288C163.095 41.288 162.267 41.072 161.523 40.64C160.787 40.208 160.199 39.604 159.759 38.828C159.327 38.044 159.111 37.128 159.111 36.08C159.111 35.032 159.327 34.12 159.759 33.344C160.199 32.56 160.787 31.952 161.523 31.52C162.267 31.08 163.095 30.86 164.007 30.86C164.719 30.86 165.335 30.988 165.855 31.244C166.383 31.5 166.803 31.796 167.115 32.132C167.435 32.468 167.623 32.756 167.679 32.996V31.148H169.743V41H167.703ZM161.175 36.08C161.175 36.792 161.331 37.408 161.643 37.928C161.955 38.448 162.359 38.852 162.855 39.14C163.359 39.42 163.895 39.56 164.463 39.56C165.071 39.56 165.615 39.416 166.095 39.128C166.575 38.84 166.955 38.436 167.235 37.916C167.515 37.388 167.655 36.776 167.655 36.08C167.655 35.384 167.515 34.776 167.235 34.256C166.955 33.728 166.575 33.32 166.095 33.032C165.615 32.736 165.071 32.588 164.463 32.588C163.895 32.588 163.359 32.732 162.855 33.02C162.359 33.308 161.955 33.712 161.643 34.232C161.331 34.752 161.175 35.368 161.175 36.08ZM174.585 41H172.509V31.148H174.585V32.852H174.525C174.565 32.644 174.713 32.384 174.969 32.072C175.225 31.76 175.577 31.48 176.025 31.232C176.473 30.984 177.009 30.86 177.633 30.86C178.089 30.86 178.489 30.924 178.833 31.052C179.185 31.172 179.433 31.292 179.577 31.412L178.725 33.14C178.613 33.028 178.417 32.916 178.137 32.804C177.857 32.684 177.509 32.624 177.093 32.624C176.565 32.624 176.113 32.788 175.737 33.116C175.361 33.444 175.073 33.84 174.873 34.304C174.681 34.76 174.585 35.184 174.585 35.576V41ZM185.357 39.56C185.981 39.56 186.485 39.46 186.869 39.26C187.253 39.06 187.493 38.916 187.589 38.828L188.609 40.328C188.529 40.4 188.337 40.516 188.033 40.676C187.737 40.828 187.353 40.968 186.881 41.096C186.417 41.224 185.889 41.288 185.297 41.288C184.393 41.288 183.553 41.088 182.777 40.688C182.001 40.28 181.373 39.688 180.893 38.912C180.421 38.136 180.185 37.188 180.185 36.068C180.185 34.94 180.421 33.992 180.893 33.224C181.373 32.448 182.001 31.86 182.777 31.46C183.553 31.06 184.393 30.86 185.297 30.86C185.881 30.86 186.401 30.932 186.857 31.076C187.313 31.212 187.689 31.364 187.985 31.532C188.281 31.7 188.477 31.828 188.573 31.916L187.541 33.416C187.477 33.352 187.353 33.256 187.169 33.128C186.993 32.992 186.753 32.868 186.449 32.756C186.145 32.644 185.781 32.588 185.357 32.588C184.845 32.588 184.345 32.728 183.857 33.008C183.377 33.28 182.981 33.676 182.669 34.196C182.357 34.716 182.201 35.34 182.201 36.068C182.201 36.796 182.357 37.424 182.669 37.952C182.981 38.472 183.377 38.872 183.857 39.152C184.345 39.424 184.845 39.56 185.357 39.56ZM190.53 41V31.148H192.486V41H190.53ZM190.026 29.792L189.294 28.796L192.93 25.784L194.13 27.272L190.026 29.792ZM203.188 41V39.08C203.124 39.28 202.936 39.556 202.624 39.908C202.32 40.26 201.9 40.58 201.364 40.868C200.836 41.148 200.212 41.288 199.492 41.288C198.58 41.288 197.752 41.072 197.008 40.64C196.272 40.208 195.684 39.604 195.244 38.828C194.812 38.044 194.596 37.128 194.596 36.08C194.596 35.032 194.812 34.12 195.244 33.344C195.684 32.56 196.272 31.952 197.008 31.52C197.752 31.08 198.58 30.86 199.492 30.86C200.204 30.86 200.82 30.988 201.34 31.244C201.868 31.5 202.288 31.796 202.6 32.132C202.92 32.468 203.108 32.756 203.164 32.996V31.148H205.228V41H203.188ZM196.66 36.08C196.66 36.792 196.816 37.408 197.128 37.928C197.44 38.448 197.844 38.852 198.34 39.14C198.844 39.42 199.38 39.56 199.948 39.56C200.556 39.56 201.1 39.416 201.58 39.128C202.06 38.84 202.44 38.436 202.72 37.916C203 37.388 203.14 36.776 203.14 36.08C203.14 35.384 203 34.776 202.72 34.256C202.44 33.728 202.06 33.32 201.58 33.032C201.1 32.736 200.556 32.588 199.948 32.588C199.38 32.588 198.844 32.732 198.34 33.02C197.844 33.308 197.44 33.712 197.128 34.232C196.816 34.752 196.66 35.368 196.66 36.08Z" fill="black"/>
<path d="M335.975 25.16H339.707C341.395 25.16 342.783 25.5 343.871 26.18C344.967 26.852 345.779 27.784 346.307 28.976C346.835 30.168 347.099 31.532 347.099 33.068C347.099 34.612 346.835 35.98 346.307 37.172C345.779 38.364 344.971 39.3 343.883 39.98C342.795 40.66 341.403 41 339.707 41H335.975V25.16ZM338.015 27.032V39.128H339.539C340.787 39.128 341.807 38.868 342.599 38.348C343.391 37.828 343.975 37.116 344.351 36.212C344.735 35.3 344.931 34.26 344.939 33.092C344.939 31.916 344.751 30.876 344.375 29.972C343.999 29.06 343.411 28.344 342.611 27.824C341.811 27.296 340.787 27.032 339.539 27.032H338.015ZM349.879 41V31.148H351.967V41H349.879ZM350.947 27.776C350.571 27.776 350.247 27.644 349.975 27.38C349.711 27.108 349.579 26.784 349.579 26.408C349.579 26.032 349.711 25.708 349.975 25.436C350.247 25.164 350.571 25.028 350.947 25.028C351.195 25.028 351.423 25.092 351.631 25.22C351.847 25.348 352.019 25.516 352.147 25.724C352.275 25.924 352.339 26.152 352.339 26.408C352.339 26.784 352.203 27.108 351.931 27.38C351.659 27.644 351.331 27.776 350.947 27.776ZM356.466 36.5C356.474 37.092 356.602 37.632 356.85 38.12C357.098 38.608 357.466 38.996 357.954 39.284C358.45 39.572 359.058 39.716 359.778 39.716C360.386 39.716 360.902 39.628 361.326 39.452C361.758 39.268 362.11 39.052 362.382 38.804C362.654 38.548 362.85 38.32 362.97 38.12L363.99 39.38C363.726 39.764 363.402 40.1 363.018 40.388C362.642 40.676 362.182 40.896 361.638 41.048C361.094 41.208 360.43 41.288 359.646 41.288C358.59 41.288 357.674 41.064 356.898 40.616C356.13 40.16 355.538 39.532 355.122 38.732C354.706 37.924 354.498 37 354.498 35.96C354.498 35 354.694 34.136 355.086 33.368C355.478 32.592 356.046 31.98 356.79 31.532C357.542 31.084 358.446 30.86 359.502 30.86C360.47 30.86 361.31 31.064 362.022 31.472C362.742 31.872 363.298 32.44 363.69 33.176C364.09 33.912 364.29 34.792 364.29 35.816C364.29 35.88 364.286 35.996 364.278 36.164C364.27 36.324 364.262 36.436 364.254 36.5H356.466ZM362.298 34.928C362.29 34.6 362.194 34.24 362.01 33.848C361.834 33.456 361.546 33.12 361.146 32.84C360.746 32.56 360.206 32.42 359.526 32.42C358.822 32.42 358.254 32.556 357.822 32.828C357.398 33.1 357.086 33.432 356.886 33.824C356.686 34.208 356.57 34.576 356.538 34.928H362.298ZM370.292 30.86C370.804 30.86 371.28 30.912 371.72 31.016C372.168 31.12 372.552 31.244 372.872 31.388C373.2 31.532 373.432 31.66 373.568 31.772L372.74 33.092C372.58 32.948 372.292 32.788 371.876 32.612C371.46 32.428 370.996 32.336 370.484 32.336C369.924 32.336 369.448 32.448 369.056 32.672C368.664 32.888 368.468 33.204 368.468 33.62C368.468 34.036 368.668 34.368 369.068 34.616C369.476 34.856 370.02 35.056 370.7 35.216C371.244 35.344 371.752 35.516 372.224 35.732C372.704 35.948 373.092 36.248 373.388 36.632C373.684 37.008 373.832 37.512 373.832 38.144C373.832 38.72 373.712 39.212 373.472 39.62C373.232 40.02 372.908 40.344 372.5 40.592C372.092 40.832 371.636 41.008 371.132 41.12C370.628 41.232 370.116 41.288 369.596 41.288C368.988 41.288 368.44 41.224 367.952 41.096C367.464 40.976 367.052 40.832 366.716 40.664C366.388 40.488 366.148 40.336 365.996 40.208L366.824 38.72C367.032 38.92 367.372 39.132 367.844 39.356C368.324 39.58 368.868 39.692 369.476 39.692C370.148 39.692 370.692 39.552 371.108 39.272C371.524 38.984 371.732 38.612 371.732 38.156C371.732 37.812 371.632 37.536 371.432 37.328C371.232 37.12 370.964 36.952 370.628 36.824C370.292 36.696 369.924 36.584 369.524 36.488C369.14 36.4 368.764 36.284 368.396 36.14C368.036 35.996 367.704 35.812 367.4 35.588C367.104 35.356 366.868 35.076 366.692 34.748C366.516 34.412 366.428 34.02 366.428 33.572C366.428 33.004 366.608 32.52 366.968 32.12C367.328 31.712 367.8 31.4 368.384 31.184C368.968 30.968 369.604 30.86 370.292 30.86ZM375.248 31.148H377.18V27.104H379.256V31.148H381.788V32.936H379.256V37.808C379.256 38.384 379.356 38.808 379.556 39.08C379.764 39.352 380.04 39.488 380.384 39.488C380.688 39.488 380.924 39.432 381.092 39.32C381.26 39.208 381.36 39.132 381.392 39.092L382.22 40.628C382.172 40.668 382.044 40.744 381.836 40.856C381.628 40.968 381.36 41.068 381.032 41.156C380.704 41.244 380.32 41.288 379.88 41.288C379.112 41.288 378.468 41.056 377.948 40.592C377.436 40.12 377.18 39.376 377.18 38.36V32.936H375.248V31.148ZM386.085 41H384.009V31.148H386.085V32.852H386.025C386.065 32.644 386.213 32.384 386.469 32.072C386.725 31.76 387.077 31.48 387.525 31.232C387.973 30.984 388.509 30.86 389.133 30.86C389.589 30.86 389.989 30.924 390.333 31.052C390.685 31.172 390.933 31.292 391.077 31.412L390.225 33.14C390.113 33.028 389.917 32.916 389.637 32.804C389.357 32.684 389.009 32.624 388.593 32.624C388.065 32.624 387.613 32.788 387.237 33.116C386.861 33.444 386.573 33.84 386.373 34.304C386.181 34.76 386.085 35.184 386.085 35.576V41ZM396.773 41.288C395.757 41.288 394.853 41.06 394.061 40.604C393.277 40.148 392.661 39.532 392.213 38.756C391.765 37.972 391.541 37.088 391.541 36.104C391.541 35.12 391.765 34.232 392.213 33.44C392.661 32.648 393.277 32.02 394.061 31.556C394.853 31.092 395.757 30.86 396.773 30.86C397.781 30.86 398.673 31.092 399.449 31.556C400.233 32.02 400.845 32.648 401.285 33.44C401.725 34.232 401.945 35.12 401.945 36.104C401.945 37.088 401.725 37.972 401.285 38.756C400.845 39.532 400.233 40.148 399.449 40.604C398.673 41.06 397.781 41.288 396.773 41.288ZM396.773 39.5C397.413 39.5 397.969 39.352 398.441 39.056C398.921 38.76 399.293 38.356 399.557 37.844C399.821 37.324 399.953 36.74 399.953 36.092C399.953 35.444 399.821 34.86 399.557 34.34C399.293 33.82 398.921 33.408 398.441 33.104C397.969 32.8 397.413 32.648 396.773 32.648C396.125 32.648 395.561 32.8 395.081 33.104C394.601 33.408 394.225 33.82 393.953 34.34C393.689 34.86 393.557 35.444 393.557 36.092C393.557 36.74 393.689 37.324 393.953 37.844C394.225 38.356 394.601 38.76 395.081 39.056C395.561 39.352 396.125 39.5 396.773 39.5Z" fill="black"/>
</svg>
