<svg width="415" height="70" viewBox="0 0 415 70" fill="none" xmlns="http://www.w3.org/2000/svg">
<path d="M0 20C0 8.9543 8.9543 0 20 0H395C406.046 0 415 8.95431 415 20V50C415 61.0457 406.046 70 395 70H20C8.95432 70 0 61.0457 0 50V20Z" fill="#D9ECD4"/>
<path d="M20 1H395V-1H20V1ZM414 20V50H416V20H414ZM395 69H20V71H395V69ZM1 50V20H-1V50H1ZM20 69C9.5066 69 1 60.4934 1 50H-1C-1 61.598 8.40203 71 20 71V69ZM414 50C414 60.4934 405.493 69 395 69V71C406.598 71 416 61.598 416 50H414ZM395 1C405.493 1 414 9.50659 414 20H416C416 8.40202 406.598 -1 395 -1V1ZM20 -1C8.40202 -1 -1 8.40202 -1 20H1C1 9.50659 9.50659 1 20 1V-1Z" fill="white" fill-opacity="0.1"/>
<path d="M21 35C21 23.9543 29.9543 15 41 15C52.0457 15 61 23.9543 61 35C61 46.0457 52.0457 55 41 55C29.9543 55 21 46.0457 21 35Z" fill="#009951"/>
<path d="M46.9169 34.7273C46.9169 36.2614 46.6399 37.5871 46.0859 38.7045C45.532 39.822 44.772 40.6837 43.8061 41.2898C42.8402 41.8958 41.737 42.1989 40.4964 42.1989C39.2559 42.1989 38.1527 41.8958 37.1868 41.2898C36.2209 40.6837 35.4609 39.822 34.907 38.7045C34.353 37.5871 34.076 36.2614 34.076 34.7273C34.076 33.1932 34.353 31.8674 34.907 30.75C35.4609 29.6326 36.2209 28.7708 37.1868 28.1648C38.1527 27.5587 39.2559 27.2557 40.4964 27.2557C41.737 27.2557 42.8402 27.5587 43.8061 28.1648C44.772 28.7708 45.532 29.6326 46.0859 30.75C46.6399 31.8674 46.9169 33.1932 46.9169 34.7273ZM45.2124 34.7273C45.2124 33.4678 45.0017 32.4048 44.5803 31.5384C44.1636 30.6719 43.5978 30.0161 42.8828 29.571C42.1726 29.1259 41.3771 28.9034 40.4964 28.9034C39.6158 28.9034 38.8179 29.1259 38.103 29.571C37.3928 30.0161 36.8269 30.6719 36.4055 31.5384C35.9889 32.4048 35.7805 33.4678 35.7805 34.7273C35.7805 35.9867 35.9889 37.0497 36.4055 37.9162C36.8269 38.7827 37.3928 39.4384 38.103 39.8835C38.8179 40.3286 39.6158 40.5511 40.4964 40.5511C41.3771 40.5511 42.1726 40.3286 42.8828 39.8835C43.5978 39.4384 44.1636 38.7827 44.5803 37.9162C45.0017 37.0497 45.2124 35.9867 45.2124 34.7273Z" fill="#F5F5F5"/>
<path d="M78.664 33.068C78.664 34.244 78.908 35.304 79.396 36.248C79.892 37.192 80.572 37.944 81.436 38.504C82.3 39.056 83.292 39.332 84.412 39.332C85.54 39.332 86.532 39.056 87.388 38.504C88.252 37.944 88.928 37.192 89.416 36.248C89.904 35.304 90.148 34.244 90.148 33.068C90.148 31.892 89.904 30.836 89.416 29.9C88.928 28.956 88.252 28.208 87.388 27.656C86.532 27.104 85.54 26.828 84.412 26.828C83.292 26.828 82.3 27.104 81.436 27.656C80.572 28.208 79.892 28.956 79.396 29.9C78.908 30.836 78.664 31.892 78.664 33.068ZM76.54 33.068C76.54 31.916 76.736 30.844 77.128 29.852C77.528 28.852 78.084 27.98 78.796 27.236C79.508 26.492 80.34 25.912 81.292 25.496C82.252 25.08 83.292 24.872 84.412 24.872C85.54 24.872 86.58 25.08 87.532 25.496C88.492 25.912 89.324 26.492 90.028 27.236C90.74 27.98 91.292 28.852 91.684 29.852C92.076 30.844 92.272 31.916 92.272 33.068C92.272 34.228 92.076 35.308 91.684 36.308C91.3 37.3 90.752 38.172 90.04 38.924C89.336 39.668 88.508 40.248 87.556 40.664C86.604 41.08 85.556 41.288 84.412 41.288C83.268 41.288 82.212 41.08 81.244 40.664C80.284 40.248 79.452 39.668 78.748 38.924C78.044 38.172 77.5 37.3 77.116 36.308C76.732 35.308 76.54 34.228 76.54 33.068ZM83.464 24.488L82.72 23.492L86.38 20.48L87.556 21.968L83.464 24.488ZM98.2998 30.86C98.8118 30.86 99.2878 30.912 99.7278 31.016C100.176 31.12 100.56 31.244 100.88 31.388C101.208 31.532 101.44 31.66 101.576 31.772L100.748 33.092C100.588 32.948 100.3 32.788 99.8838 32.612C99.4678 32.428 99.0038 32.336 98.4918 32.336C97.9318 32.336 97.4558 32.448 97.0638 32.672C96.6718 32.888 96.4758 33.204 96.4758 33.62C96.4758 34.036 96.6758 34.368 97.0758 34.616C97.4838 34.856 98.0278 35.056 98.7078 35.216C99.2518 35.344 99.7598 35.516 100.232 35.732C100.712 35.948 101.1 36.248 101.396 36.632C101.692 37.008 101.84 37.512 101.84 38.144C101.84 38.72 101.72 39.212 101.48 39.62C101.24 40.02 100.916 40.344 100.508 40.592C100.1 40.832 99.6438 41.008 99.1398 41.12C98.6358 41.232 98.1238 41.288 97.6038 41.288C96.9958 41.288 96.4478 41.224 95.9598 41.096C95.4718 40.976 95.0598 40.832 94.7238 40.664C94.3958 40.488 94.1558 40.336 94.0038 40.208L94.8318 38.72C95.0398 38.92 95.3798 39.132 95.8518 39.356C96.3318 39.58 96.8758 39.692 97.4838 39.692C98.1558 39.692 98.6998 39.552 99.1158 39.272C99.5318 38.984 99.7398 38.612 99.7398 38.156C99.7398 37.812 99.6398 37.536 99.4398 37.328C99.2398 37.12 98.9718 36.952 98.6358 36.824C98.2998 36.696 97.9318 36.584 97.5318 36.488C97.1478 36.4 96.7718 36.284 96.4038 36.14C96.0438 35.996 95.7118 35.812 95.4078 35.588C95.1118 35.356 94.8758 35.076 94.6998 34.748C94.5238 34.412 94.4358 34.02 94.4358 33.572C94.4358 33.004 94.6158 32.52 94.9758 32.12C95.3358 31.712 95.8078 31.4 96.3918 31.184C96.9758 30.968 97.6118 30.86 98.2998 30.86ZM108.904 39.56C109.528 39.56 110.032 39.46 110.416 39.26C110.8 39.06 111.04 38.916 111.136 38.828L112.156 40.328C112.076 40.4 111.884 40.516 111.58 40.676C111.284 40.828 110.9 40.968 110.428 41.096C109.964 41.224 109.436 41.288 108.844 41.288C107.94 41.288 107.1 41.088 106.324 40.688C105.548 40.28 104.92 39.688 104.44 38.912C103.968 38.136 103.732 37.188 103.732 36.068C103.732 34.94 103.968 33.992 104.44 33.224C104.92 32.448 105.548 31.86 106.324 31.46C107.1 31.06 107.94 30.86 108.844 30.86C109.428 30.86 109.948 30.932 110.404 31.076C110.86 31.212 111.236 31.364 111.532 31.532C111.828 31.7 112.024 31.828 112.12 31.916L111.088 33.416C111.024 33.352 110.9 33.256 110.716 33.128C110.54 32.992 110.3 32.868 109.996 32.756C109.692 32.644 109.328 32.588 108.904 32.588C108.392 32.588 107.892 32.728 107.404 33.008C106.924 33.28 106.528 33.676 106.216 34.196C105.904 34.716 105.748 35.34 105.748 36.068C105.748 36.796 105.904 37.424 106.216 37.952C106.528 38.472 106.924 38.872 107.404 39.152C107.892 39.424 108.392 39.56 108.904 39.56ZM122.141 41V39.08C122.077 39.28 121.889 39.556 121.577 39.908C121.273 40.26 120.853 40.58 120.317 40.868C119.789 41.148 119.165 41.288 118.445 41.288C117.533 41.288 116.705 41.072 115.961 40.64C115.225 40.208 114.637 39.604 114.197 38.828C113.765 38.044 113.549 37.128 113.549 36.08C113.549 35.032 113.765 34.12 114.197 33.344C114.637 32.56 115.225 31.952 115.961 31.52C116.705 31.08 117.533 30.86 118.445 30.86C119.157 30.86 119.773 30.988 120.293 31.244C120.821 31.5 121.241 31.796 121.553 32.132C121.873 32.468 122.061 32.756 122.117 32.996V31.148H124.181V41H122.141ZM115.613 36.08C115.613 36.792 115.769 37.408 116.081 37.928C116.393 38.448 116.797 38.852 117.293 39.14C117.797 39.42 118.333 39.56 118.901 39.56C119.509 39.56 120.053 39.416 120.533 39.128C121.013 38.84 121.393 38.436 121.673 37.916C121.953 37.388 122.093 36.776 122.093 36.08C122.093 35.384 121.953 34.776 121.673 34.256C121.393 33.728 121.013 33.32 120.533 33.032C120.053 32.736 119.509 32.588 118.901 32.588C118.333 32.588 117.797 32.732 117.293 33.02C116.797 33.308 116.393 33.712 116.081 34.232C115.769 34.752 115.613 35.368 115.613 36.08ZM129.023 41H126.947V31.148H129.023V32.852H128.963C129.003 32.644 129.151 32.384 129.407 32.072C129.663 31.76 130.015 31.48 130.463 31.232C130.911 30.984 131.447 30.86 132.071 30.86C132.527 30.86 132.927 30.924 133.271 31.052C133.623 31.172 133.871 31.292 134.015 31.412L133.163 33.14C133.051 33.028 132.855 32.916 132.575 32.804C132.295 32.684 131.947 32.624 131.531 32.624C131.003 32.624 130.551 32.788 130.175 33.116C129.799 33.444 129.511 33.84 129.311 34.304C129.119 34.76 129.023 35.184 129.023 35.576V41ZM146.33 24.872C147.242 24.872 148.026 24.976 148.682 25.184C149.346 25.392 149.866 25.612 150.242 25.844C150.626 26.076 150.854 26.228 150.926 26.3L149.87 27.992C149.75 27.888 149.538 27.74 149.234 27.548C148.93 27.348 148.55 27.172 148.094 27.02C147.638 26.86 147.118 26.78 146.534 26.78C145.63 26.78 144.914 26.964 144.386 27.332C143.866 27.692 143.606 28.204 143.606 28.868C143.606 29.316 143.742 29.712 144.014 30.056C144.294 30.392 144.686 30.7 145.19 30.98C145.694 31.26 146.282 31.548 146.954 31.844C147.506 32.076 148.046 32.34 148.574 32.636C149.11 32.932 149.594 33.28 150.026 33.68C150.466 34.08 150.814 34.544 151.07 35.072C151.334 35.6 151.466 36.208 151.466 36.896C151.466 37.576 151.326 38.188 151.046 38.732C150.774 39.276 150.386 39.74 149.882 40.124C149.386 40.5 148.806 40.788 148.142 40.988C147.478 41.188 146.762 41.288 145.994 41.288C145.026 41.288 144.15 41.168 143.366 40.928C142.59 40.688 141.962 40.436 141.482 40.172C141.01 39.908 140.738 39.744 140.666 39.68L141.782 37.916C141.878 37.996 142.054 38.116 142.31 38.276C142.566 38.428 142.882 38.588 143.258 38.756C143.634 38.924 144.058 39.068 144.53 39.188C145.002 39.3 145.506 39.356 146.042 39.356C147.114 39.356 147.926 39.116 148.478 38.636C149.03 38.156 149.306 37.54 149.306 36.788C149.306 36.212 149.13 35.716 148.778 35.3C148.426 34.884 147.958 34.512 147.374 34.184C146.79 33.856 146.146 33.54 145.442 33.236C144.722 32.908 144.062 32.548 143.462 32.156C142.862 31.764 142.378 31.296 142.01 30.752C141.65 30.2 141.47 29.536 141.47 28.76C141.47 27.992 141.686 27.316 142.118 26.732C142.558 26.148 143.146 25.692 143.882 25.364C144.626 25.036 145.442 24.872 146.33 24.872ZM161.938 41V39.08C161.874 39.28 161.686 39.556 161.374 39.908C161.07 40.26 160.65 40.58 160.114 40.868C159.586 41.148 158.962 41.288 158.242 41.288C157.33 41.288 156.502 41.072 155.758 40.64C155.022 40.208 154.434 39.604 153.994 38.828C153.562 38.044 153.346 37.128 153.346 36.08C153.346 35.032 153.562 34.12 153.994 33.344C154.434 32.56 155.022 31.952 155.758 31.52C156.502 31.08 157.33 30.86 158.242 30.86C158.954 30.86 159.57 30.988 160.09 31.244C160.618 31.5 161.038 31.796 161.35 32.132C161.67 32.468 161.858 32.756 161.914 32.996V31.148H163.978V41H161.938ZM155.41 36.08C155.41 36.792 155.566 37.408 155.878 37.928C156.19 38.448 156.594 38.852 157.09 39.14C157.594 39.42 158.13 39.56 158.698 39.56C159.306 39.56 159.85 39.416 160.33 39.128C160.81 38.84 161.19 38.436 161.47 37.916C161.75 37.388 161.89 36.776 161.89 36.08C161.89 35.384 161.75 34.776 161.47 34.256C161.19 33.728 160.81 33.32 160.33 33.032C159.85 32.736 159.306 32.588 158.698 32.588C158.13 32.588 157.594 32.732 157.09 33.02C156.594 33.308 156.19 33.712 155.878 34.232C155.566 34.752 155.41 35.368 155.41 36.08ZM168.94 41H166.84V24.488H168.94V41ZM176.592 39.56C177.216 39.56 177.72 39.46 178.104 39.26C178.488 39.06 178.728 38.916 178.824 38.828L179.844 40.328C179.764 40.4 179.572 40.516 179.268 40.676C178.972 40.828 178.588 40.968 178.116 41.096C177.652 41.224 177.124 41.288 176.532 41.288C175.628 41.288 174.788 41.088 174.012 40.688C173.236 40.28 172.608 39.688 172.128 38.912C171.656 38.136 171.42 37.188 171.42 36.068C171.42 34.94 171.656 33.992 172.128 33.224C172.608 32.448 173.236 31.86 174.012 31.46C174.788 31.06 175.628 30.86 176.532 30.86C177.116 30.86 177.636 30.932 178.092 31.076C178.548 31.212 178.924 31.364 179.22 31.532C179.516 31.7 179.712 31.828 179.808 31.916L178.776 33.416C178.712 33.352 178.588 33.256 178.404 33.128C178.228 32.992 177.988 32.868 177.684 32.756C177.38 32.644 177.016 32.588 176.592 32.588C176.08 32.588 175.58 32.728 175.092 33.008C174.612 33.28 174.216 33.676 173.904 34.196C173.592 34.716 173.436 35.34 173.436 36.068C173.436 36.796 173.592 37.424 173.904 37.952C174.216 38.472 174.612 38.872 175.092 39.152C175.58 39.424 176.08 39.56 176.592 39.56ZM182.09 41V31.148H184.178V41H182.09ZM183.158 27.776C182.782 27.776 182.458 27.644 182.186 27.38C181.922 27.108 181.79 26.784 181.79 26.408C181.79 26.032 181.922 25.708 182.186 25.436C182.458 25.164 182.782 25.028 183.158 25.028C183.406 25.028 183.634 25.092 183.842 25.22C184.058 25.348 184.23 25.516 184.358 25.724C184.486 25.924 184.55 26.152 184.55 26.408C184.55 26.784 184.414 27.108 184.142 27.38C183.87 27.644 183.542 27.776 183.158 27.776ZM192.877 30.86C193.525 30.86 194.153 30.996 194.761 31.268C195.377 31.54 195.881 31.972 196.273 32.564C196.673 33.148 196.873 33.912 196.873 34.856V41H194.761V35.264C194.761 34.288 194.533 33.58 194.077 33.14C193.621 32.692 193.033 32.468 192.313 32.468C191.841 32.468 191.385 32.604 190.945 32.876C190.513 33.14 190.157 33.508 189.877 33.98C189.597 34.444 189.457 34.972 189.457 35.564V41H187.369V31.148H189.457V32.9C189.529 32.628 189.725 32.332 190.045 32.012C190.365 31.692 190.773 31.42 191.269 31.196C191.765 30.972 192.301 30.86 192.877 30.86ZM200.912 36.5C200.92 37.092 201.048 37.632 201.296 38.12C201.544 38.608 201.912 38.996 202.4 39.284C202.896 39.572 203.504 39.716 204.224 39.716C204.832 39.716 205.348 39.628 205.772 39.452C206.204 39.268 206.556 39.052 206.828 38.804C207.1 38.548 207.296 38.32 207.416 38.12L208.436 39.38C208.172 39.764 207.848 40.1 207.464 40.388C207.088 40.676 206.628 40.896 206.084 41.048C205.54 41.208 204.876 41.288 204.092 41.288C203.036 41.288 202.12 41.064 201.344 40.616C200.576 40.16 199.984 39.532 199.568 38.732C199.152 37.924 198.944 37 198.944 35.96C198.944 35 199.14 34.136 199.532 33.368C199.924 32.592 200.492 31.98 201.236 31.532C201.988 31.084 202.892 30.86 203.948 30.86C204.916 30.86 205.756 31.064 206.468 31.472C207.188 31.872 207.744 32.44 208.136 33.176C208.536 33.912 208.736 34.792 208.736 35.816C208.736 35.88 208.732 35.996 208.724 36.164C208.716 36.324 208.708 36.436 208.7 36.5H200.912ZM206.744 34.928C206.736 34.6 206.64 34.24 206.456 33.848C206.28 33.456 205.992 33.12 205.592 32.84C205.192 32.56 204.652 32.42 203.972 32.42C203.268 32.42 202.7 32.556 202.268 32.828C201.844 33.1 201.532 33.432 201.332 33.824C201.132 34.208 201.016 34.576 200.984 34.928H206.744ZM214.737 30.86C215.249 30.86 215.725 30.912 216.165 31.016C216.613 31.12 216.997 31.244 217.317 31.388C217.645 31.532 217.877 31.66 218.013 31.772L217.185 33.092C217.025 32.948 216.737 32.788 216.321 32.612C215.905 32.428 215.441 32.336 214.929 32.336C214.369 32.336 213.893 32.448 213.501 32.672C213.109 32.888 212.913 33.204 212.913 33.62C212.913 34.036 213.113 34.368 213.513 34.616C213.921 34.856 214.465 35.056 215.145 35.216C215.689 35.344 216.197 35.516 216.669 35.732C217.149 35.948 217.537 36.248 217.833 36.632C218.129 37.008 218.277 37.512 218.277 38.144C218.277 38.72 218.157 39.212 217.917 39.62C217.677 40.02 217.353 40.344 216.945 40.592C216.537 40.832 216.081 41.008 215.577 41.12C215.073 41.232 214.561 41.288 214.041 41.288C213.433 41.288 212.885 41.224 212.397 41.096C211.909 40.976 211.497 40.832 211.161 40.664C210.833 40.488 210.593 40.336 210.441 40.208L211.269 38.72C211.477 38.92 211.817 39.132 212.289 39.356C212.769 39.58 213.313 39.692 213.921 39.692C214.593 39.692 215.137 39.552 215.553 39.272C215.969 38.984 216.177 38.612 216.177 38.156C216.177 37.812 216.077 37.536 215.877 37.328C215.677 37.12 215.409 36.952 215.073 36.824C214.737 36.696 214.369 36.584 213.969 36.488C213.585 36.4 213.209 36.284 212.841 36.14C212.481 35.996 212.149 35.812 211.845 35.588C211.549 35.356 211.313 35.076 211.137 34.748C210.961 34.412 210.873 34.02 210.873 33.572C210.873 33.004 211.053 32.52 211.413 32.12C211.773 31.712 212.245 31.4 212.829 31.184C213.413 30.968 214.049 30.86 214.737 30.86Z" fill="black"/>
<path d="M335.975 25.16H339.707C341.395 25.16 342.783 25.5 343.871 26.18C344.967 26.852 345.779 27.784 346.307 28.976C346.835 30.168 347.099 31.532 347.099 33.068C347.099 34.612 346.835 35.98 346.307 37.172C345.779 38.364 344.971 39.3 343.883 39.98C342.795 40.66 341.403 41 339.707 41H335.975V25.16ZM338.015 27.032V39.128H339.539C340.787 39.128 341.807 38.868 342.599 38.348C343.391 37.828 343.975 37.116 344.351 36.212C344.735 35.3 344.931 34.26 344.939 33.092C344.939 31.916 344.751 30.876 344.375 29.972C343.999 29.06 343.411 28.344 342.611 27.824C341.811 27.296 340.787 27.032 339.539 27.032H338.015ZM349.879 41V31.148H351.967V41H349.879ZM350.947 27.776C350.571 27.776 350.247 27.644 349.975 27.38C349.711 27.108 349.579 26.784 349.579 26.408C349.579 26.032 349.711 25.708 349.975 25.436C350.247 25.164 350.571 25.028 350.947 25.028C351.195 25.028 351.423 25.092 351.631 25.22C351.847 25.348 352.019 25.516 352.147 25.724C352.275 25.924 352.339 26.152 352.339 26.408C352.339 26.784 352.203 27.108 351.931 27.38C351.659 27.644 351.331 27.776 350.947 27.776ZM356.466 36.5C356.474 37.092 356.602 37.632 356.85 38.12C357.098 38.608 357.466 38.996 357.954 39.284C358.45 39.572 359.058 39.716 359.778 39.716C360.386 39.716 360.902 39.628 361.326 39.452C361.758 39.268 362.11 39.052 362.382 38.804C362.654 38.548 362.85 38.32 362.97 38.12L363.99 39.38C363.726 39.764 363.402 40.1 363.018 40.388C362.642 40.676 362.182 40.896 361.638 41.048C361.094 41.208 360.43 41.288 359.646 41.288C358.59 41.288 357.674 41.064 356.898 40.616C356.13 40.16 355.538 39.532 355.122 38.732C354.706 37.924 354.498 37 354.498 35.96C354.498 35 354.694 34.136 355.086 33.368C355.478 32.592 356.046 31.98 356.79 31.532C357.542 31.084 358.446 30.86 359.502 30.86C360.47 30.86 361.31 31.064 362.022 31.472C362.742 31.872 363.298 32.44 363.69 33.176C364.09 33.912 364.29 34.792 364.29 35.816C364.29 35.88 364.286 35.996 364.278 36.164C364.27 36.324 364.262 36.436 364.254 36.5H356.466ZM362.298 34.928C362.29 34.6 362.194 34.24 362.01 33.848C361.834 33.456 361.546 33.12 361.146 32.84C360.746 32.56 360.206 32.42 359.526 32.42C358.822 32.42 358.254 32.556 357.822 32.828C357.398 33.1 357.086 33.432 356.886 33.824C356.686 34.208 356.57 34.576 356.538 34.928H362.298ZM370.292 30.86C370.804 30.86 371.28 30.912 371.72 31.016C372.168 31.12 372.552 31.244 372.872 31.388C373.2 31.532 373.432 31.66 373.568 31.772L372.74 33.092C372.58 32.948 372.292 32.788 371.876 32.612C371.46 32.428 370.996 32.336 370.484 32.336C369.924 32.336 369.448 32.448 369.056 32.672C368.664 32.888 368.468 33.204 368.468 33.62C368.468 34.036 368.668 34.368 369.068 34.616C369.476 34.856 370.02 35.056 370.7 35.216C371.244 35.344 371.752 35.516 372.224 35.732C372.704 35.948 373.092 36.248 373.388 36.632C373.684 37.008 373.832 37.512 373.832 38.144C373.832 38.72 373.712 39.212 373.472 39.62C373.232 40.02 372.908 40.344 372.5 40.592C372.092 40.832 371.636 41.008 371.132 41.12C370.628 41.232 370.116 41.288 369.596 41.288C368.988 41.288 368.44 41.224 367.952 41.096C367.464 40.976 367.052 40.832 366.716 40.664C366.388 40.488 366.148 40.336 365.996 40.208L366.824 38.72C367.032 38.92 367.372 39.132 367.844 39.356C368.324 39.58 368.868 39.692 369.476 39.692C370.148 39.692 370.692 39.552 371.108 39.272C371.524 38.984 371.732 38.612 371.732 38.156C371.732 37.812 371.632 37.536 371.432 37.328C371.232 37.12 370.964 36.952 370.628 36.824C370.292 36.696 369.924 36.584 369.524 36.488C369.14 36.4 368.764 36.284 368.396 36.14C368.036 35.996 367.704 35.812 367.4 35.588C367.104 35.356 366.868 35.076 366.692 34.748C366.516 34.412 366.428 34.02 366.428 33.572C366.428 33.004 366.608 32.52 366.968 32.12C367.328 31.712 367.8 31.4 368.384 31.184C368.968 30.968 369.604 30.86 370.292 30.86ZM375.248 31.148H377.18V27.104H379.256V31.148H381.788V32.936H379.256V37.808C379.256 38.384 379.356 38.808 379.556 39.08C379.764 39.352 380.04 39.488 380.384 39.488C380.688 39.488 380.924 39.432 381.092 39.32C381.26 39.208 381.36 39.132 381.392 39.092L382.22 40.628C382.172 40.668 382.044 40.744 381.836 40.856C381.628 40.968 381.36 41.068 381.032 41.156C380.704 41.244 380.32 41.288 379.88 41.288C379.112 41.288 378.468 41.056 377.948 40.592C377.436 40.12 377.18 39.376 377.18 38.36V32.936H375.248V31.148ZM386.085 41H384.009V31.148H386.085V32.852H386.025C386.065 32.644 386.213 32.384 386.469 32.072C386.725 31.76 387.077 31.48 387.525 31.232C387.973 30.984 388.509 30.86 389.133 30.86C389.589 30.86 389.989 30.924 390.333 31.052C390.685 31.172 390.933 31.292 391.077 31.412L390.225 33.14C390.113 33.028 389.917 32.916 389.637 32.804C389.357 32.684 389.009 32.624 388.593 32.624C388.065 32.624 387.613 32.788 387.237 33.116C386.861 33.444 386.573 33.84 386.373 34.304C386.181 34.76 386.085 35.184 386.085 35.576V41ZM396.773 41.288C395.757 41.288 394.853 41.06 394.061 40.604C393.277 40.148 392.661 39.532 392.213 38.756C391.765 37.972 391.541 37.088 391.541 36.104C391.541 35.12 391.765 34.232 392.213 33.44C392.661 32.648 393.277 32.02 394.061 31.556C394.853 31.092 395.757 30.86 396.773 30.86C397.781 30.86 398.673 31.092 399.449 31.556C400.233 32.02 400.845 32.648 401.285 33.44C401.725 34.232 401.945 35.12 401.945 36.104C401.945 37.088 401.725 37.972 401.285 38.756C400.845 39.532 400.233 40.148 399.449 40.604C398.673 41.06 397.781 41.288 396.773 41.288ZM396.773 39.5C397.413 39.5 397.969 39.352 398.441 39.056C398.921 38.76 399.293 38.356 399.557 37.844C399.821 37.324 399.953 36.74 399.953 36.092C399.953 35.444 399.821 34.86 399.557 34.34C399.293 33.82 398.921 33.408 398.441 33.104C397.969 32.8 397.413 32.648 396.773 32.648C396.125 32.648 395.561 32.8 395.081 33.104C394.601 33.408 394.225 33.82 393.953 34.34C393.689 34.86 393.557 35.444 393.557 36.092C393.557 36.74 393.689 37.324 393.953 37.844C394.225 38.356 394.601 38.76 395.081 39.056C395.561 39.352 396.125 39.5 396.773 39.5Z" fill="black"/>
</svg>
