<svg width="415" height="70" viewBox="0 0 415 70" fill="none" xmlns="http://www.w3.org/2000/svg">
<path d="M0 20C0 8.9543 8.9543 0 20 0H395C406.046 0 415 8.95431 415 20V50C415 61.0457 406.046 70 395 70H20C8.95432 70 0 61.0457 0 50V20Z" fill="#D9ECD4"/>
<path d="M20 1H395V-1H20V1ZM414 20V50H416V20H414ZM395 69H20V71H395V69ZM1 50V20H-1V50H1ZM20 69C9.5066 69 1 60.4934 1 50H-1C-1 61.598 8.40203 71 20 71V69ZM414 50C414 60.4934 405.493 69 395 69V71C406.598 71 416 61.598 416 50H414ZM395 1C405.493 1 414 9.50659 414 20H416C416 8.40202 406.598 -1 395 -1V1ZM20 -1C8.40202 -1 -1 8.40202 -1 20H1C1 9.50659 9.50659 1 20 1V-1Z" fill="white" fill-opacity="0.1"/>
<path d="M44.5833 31.9167C43.0617 31.9167 41.8333 30.7162 41.8333 29.2292V20.2708C41.8333 18.7837 43.0617 17.5833 44.5833 17.5833C46.105 17.5833 47.3333 18.7837 47.3333 20.2708V29.2292C47.3333 30.7162 46.105 31.9167 44.5833 31.9167Z" stroke="#1E1E1E" stroke-width="4" stroke-linecap="round" stroke-linejoin="round"/>
<path d="M55.5833 31.9167H52.8333V29.2292C52.8333 27.7421 54.0617 26.5417 55.5833 26.5417C57.105 26.5417 58.3333 27.7421 58.3333 29.2292C58.3333 30.7162 57.105 31.9167 55.5833 31.9167Z" stroke="#1E1E1E" stroke-width="4" stroke-linecap="round" stroke-linejoin="round"/>
<path d="M35.4167 39.0833C36.9383 39.0833 38.1667 40.2837 38.1667 41.7708V50.7292C38.1667 52.2162 36.9383 53.4167 35.4167 53.4167C33.895 53.4167 32.6667 52.2162 32.6667 50.7292V41.7708C32.6667 40.2837 33.895 39.0833 35.4167 39.0833Z" stroke="#1E1E1E" stroke-width="4" stroke-linecap="round" stroke-linejoin="round"/>
<path d="M24.4167 39.0833H27.1667V41.7708C27.1667 43.2579 25.9383 44.4583 24.4167 44.4583C22.895 44.4583 21.6667 43.2579 21.6667 41.7708C21.6667 40.2837 22.895 39.0833 24.4167 39.0833Z" stroke="#1E1E1E" stroke-width="4" stroke-linecap="round" stroke-linejoin="round"/>
<path d="M43.6667 39.9792C43.6667 38.4921 44.895 37.2917 46.4167 37.2917H55.5833C57.105 37.2917 58.3333 38.4921 58.3333 39.9792C58.3333 41.4662 57.105 42.6667 55.5833 42.6667H46.4167C44.895 42.6667 43.6667 41.4662 43.6667 39.9792Z" stroke="#1E1E1E" stroke-width="4" stroke-linecap="round" stroke-linejoin="round"/>
<path d="M46.4167 48.0417H43.6667V50.7292C43.6667 52.2162 44.895 53.4167 46.4167 53.4167C47.9383 53.4167 49.1667 52.2162 49.1667 50.7292C49.1667 49.2421 47.9383 48.0417 46.4167 48.0417Z" stroke="#1E1E1E" stroke-width="4" stroke-linecap="round" stroke-linejoin="round"/>
<path d="M36.3333 31.0208C36.3333 29.5337 35.105 28.3333 33.5833 28.3333H24.4167C22.895 28.3333 21.6667 29.5337 21.6667 31.0208C21.6667 32.5079 22.895 33.7083 24.4167 33.7083H33.5833C35.105 33.7083 36.3333 32.5079 36.3333 31.0208Z" stroke="#1E1E1E" stroke-width="4" stroke-linecap="round" stroke-linejoin="round"/>
<path d="M33.5833 22.9583H36.3333V20.2708C36.3333 18.7837 35.105 17.5833 33.5833 17.5833C32.0617 17.5833 30.8333 18.7837 30.8333 20.2708C30.8333 21.7579 32.0617 22.9583 33.5833 22.9583Z" stroke="#1E1E1E" stroke-width="4" stroke-linecap="round" stroke-linejoin="round"/>
<path d="M85.5 25.16H87.564V41H85.5V25.16ZM96.3696 30.86C97.0176 30.86 97.6456 30.996 98.2536 31.268C98.8696 31.54 99.3736 31.972 99.7656 32.564C100.166 33.148 100.366 33.912 100.366 34.856V41H98.2536V35.264C98.2536 34.288 98.0256 33.58 97.5696 33.14C97.1136 32.692 96.5256 32.468 95.8056 32.468C95.3336 32.468 94.8776 32.604 94.4376 32.876C94.0056 33.14 93.6496 33.508 93.3696 33.98C93.0896 34.444 92.9496 34.972 92.9496 35.564V41H90.8616V31.148H92.9496V32.9C93.0216 32.628 93.2176 32.332 93.5376 32.012C93.8576 31.692 94.2656 31.42 94.7616 31.196C95.2576 30.972 95.7936 30.86 96.3696 30.86ZM102.256 31.148H104.188V27.104H106.264V31.148H108.796V32.936H106.264V37.808C106.264 38.384 106.364 38.808 106.564 39.08C106.772 39.352 107.048 39.488 107.392 39.488C107.696 39.488 107.932 39.432 108.1 39.32C108.268 39.208 108.368 39.132 108.4 39.092L109.228 40.628C109.18 40.668 109.052 40.744 108.844 40.856C108.636 40.968 108.368 41.068 108.04 41.156C107.712 41.244 107.328 41.288 106.888 41.288C106.12 41.288 105.476 41.056 104.956 40.592C104.444 40.12 104.188 39.376 104.188 38.36V32.936H102.256V31.148ZM112.349 36.5C112.357 37.092 112.485 37.632 112.733 38.12C112.981 38.608 113.349 38.996 113.837 39.284C114.333 39.572 114.941 39.716 115.661 39.716C116.269 39.716 116.785 39.628 117.209 39.452C117.641 39.268 117.993 39.052 118.265 38.804C118.537 38.548 118.733 38.32 118.853 38.12L119.873 39.38C119.609 39.764 119.285 40.1 118.901 40.388C118.525 40.676 118.065 40.896 117.521 41.048C116.977 41.208 116.313 41.288 115.529 41.288C114.473 41.288 113.557 41.064 112.781 40.616C112.013 40.16 111.421 39.532 111.005 38.732C110.589 37.924 110.381 37 110.381 35.96C110.381 35 110.577 34.136 110.969 33.368C111.361 32.592 111.929 31.98 112.673 31.532C113.425 31.084 114.329 30.86 115.385 30.86C116.353 30.86 117.193 31.064 117.905 31.472C118.625 31.872 119.181 32.44 119.573 33.176C119.973 33.912 120.173 34.792 120.173 35.816C120.173 35.88 120.169 35.996 120.161 36.164C120.153 36.324 120.145 36.436 120.137 36.5H112.349ZM118.181 34.928C118.173 34.6 118.077 34.24 117.893 33.848C117.717 33.456 117.429 33.12 117.029 32.84C116.629 32.56 116.089 32.42 115.409 32.42C114.705 32.42 114.137 32.556 113.705 32.828C113.281 33.1 112.969 33.432 112.769 33.824C112.569 34.208 112.453 34.576 112.421 34.928H118.181ZM124.531 41H122.455V31.148H124.531V32.852H124.471C124.511 32.644 124.659 32.384 124.915 32.072C125.171 31.76 125.523 31.48 125.971 31.232C126.419 30.984 126.955 30.86 127.579 30.86C128.035 30.86 128.435 30.924 128.779 31.052C129.131 31.172 129.379 31.292 129.523 31.412L128.671 33.14C128.559 33.028 128.363 32.916 128.083 32.804C127.803 32.684 127.455 32.624 127.039 32.624C126.511 32.624 126.059 32.788 125.683 33.116C125.307 33.444 125.019 33.84 124.819 34.304C124.627 34.76 124.531 35.184 124.531 35.576V41ZM135.302 39.56C135.926 39.56 136.43 39.46 136.814 39.26C137.198 39.06 137.438 38.916 137.534 38.828L138.554 40.328C138.474 40.4 138.282 40.516 137.978 40.676C137.682 40.828 137.298 40.968 136.826 41.096C136.362 41.224 135.834 41.288 135.242 41.288C134.338 41.288 133.498 41.088 132.722 40.688C131.946 40.28 131.318 39.688 130.838 38.912C130.366 38.136 130.13 37.188 130.13 36.068C130.13 34.94 130.366 33.992 130.838 33.224C131.318 32.448 131.946 31.86 132.722 31.46C133.498 31.06 134.338 30.86 135.242 30.86C135.826 30.86 136.346 30.932 136.802 31.076C137.258 31.212 137.634 31.364 137.93 31.532C138.226 31.7 138.422 31.828 138.518 31.916L137.486 33.416C137.422 33.352 137.298 33.256 137.114 33.128C136.938 32.992 136.698 32.868 136.394 32.756C136.09 32.644 135.726 32.588 135.302 32.588C134.79 32.588 134.29 32.728 133.802 33.008C133.322 33.28 132.926 33.676 132.614 34.196C132.302 34.716 132.146 35.34 132.146 36.068C132.146 36.796 132.302 37.424 132.614 37.952C132.926 38.472 133.322 38.872 133.802 39.152C134.29 39.424 134.79 39.56 135.302 39.56ZM142.791 41H140.691V24.488H142.791V41ZM147.755 36.116C147.755 37.148 147.975 37.972 148.415 38.588C148.863 39.196 149.547 39.5 150.467 39.5C151.395 39.5 152.079 39.196 152.519 38.588C152.959 37.972 153.179 37.148 153.179 36.116V31.148H155.243V36.404C155.243 37.364 155.055 38.212 154.679 38.948C154.311 39.684 153.771 40.26 153.059 40.676C152.355 41.084 151.491 41.288 150.467 41.288C149.451 41.288 148.587 41.084 147.875 40.676C147.171 40.26 146.631 39.684 146.255 38.948C145.887 38.212 145.703 37.364 145.703 36.404V31.148H147.755V36.116ZM158.032 41V24.488H160.144V32.996C160.192 32.748 160.38 32.456 160.708 32.12C161.036 31.784 161.476 31.492 162.028 31.244C162.58 30.988 163.216 30.86 163.936 30.86C164.856 30.86 165.672 31.08 166.384 31.52C167.096 31.952 167.656 32.56 168.064 33.344C168.48 34.12 168.688 35.032 168.688 36.08C168.688 37.128 168.48 38.044 168.064 38.828C167.656 39.604 167.096 40.208 166.384 40.64C165.672 41.072 164.856 41.288 163.936 41.288C163.256 41.288 162.64 41.16 162.088 40.904C161.544 40.648 161.1 40.348 160.756 40.004C160.412 39.66 160.196 39.352 160.108 39.08V41H158.032ZM166.612 36.08C166.612 35.368 166.468 34.752 166.18 34.232C165.892 33.712 165.508 33.308 165.028 33.02C164.556 32.732 164.036 32.588 163.468 32.588C162.852 32.588 162.292 32.736 161.788 33.032C161.284 33.32 160.884 33.728 160.588 34.256C160.292 34.776 160.144 35.384 160.144 36.08C160.144 36.776 160.292 37.388 160.588 37.916C160.884 38.436 161.284 38.84 161.788 39.128C162.292 39.416 162.852 39.56 163.468 39.56C164.036 39.56 164.556 39.42 165.028 39.14C165.508 38.852 165.892 38.448 166.18 37.928C166.468 37.408 166.612 36.792 166.612 36.08Z" fill="black"/>
</svg>
