<svg width="415" height="70" viewBox="0 0 415 70" fill="none" xmlns="http://www.w3.org/2000/svg">
<path d="M0 20C0 8.9543 8.9543 0 20 0H395C406.046 0 415 8.95431 415 20V50C415 61.0457 406.046 70 395 70H20C8.95432 70 0 61.0457 0 50V20Z" fill="#D9ECD4"/>
<path d="M20 1H395V-1H20V1ZM414 20V50H416V20H414ZM395 69H20V71H395V69ZM1 50V20H-1V50H1ZM20 69C9.5066 69 1 60.4934 1 50H-1C-1 61.598 8.40203 71 20 71V69ZM414 50C414 60.4934 405.493 69 395 69V71C406.598 71 416 61.598 416 50H414ZM395 1C405.493 1 414 9.50659 414 20H416C416 8.40202 406.598 -1 395 -1V1ZM20 -1C8.40202 -1 -1 8.40202 -1 20H1C1 9.50659 9.50659 1 20 1V-1Z" fill="white" fill-opacity="0.1"/>
<path d="M21 35C21 23.9543 29.9543 15 41 15C52.0457 15 61 23.9543 61 35C61 46.0457 52.0457 55 41 55C29.9543 55 21 46.0457 21 35Z" fill="#2C2C2C"/>
<path d="M33.3649 27.4545H35.4672L40.4103 39.5284H40.5808L45.524 27.4545H47.6262V42H45.9785V30.9489H45.8365L41.291 42H39.7001L35.1547 30.9489H35.0126V42H33.3649V27.4545Z" fill="#F5F5F5"/>
<path d="M91.66 25.16V41H89.62V29.564L89.728 27.812L89.296 29.744L85.48 40.1H83.452L79.636 29.744L79.216 27.812L79.312 29.564V41H77.26V25.16H79.996L84.316 37.592L84.46 38.396L84.616 37.592L88.948 25.16H91.66ZM102.875 41V39.08C102.811 39.28 102.623 39.556 102.311 39.908C102.007 40.26 101.587 40.58 101.051 40.868C100.523 41.148 99.8993 41.288 99.1793 41.288C98.2673 41.288 97.4393 41.072 96.6953 40.64C95.9593 40.208 95.3713 39.604 94.9313 38.828C94.4993 38.044 94.2833 37.128 94.2833 36.08C94.2833 35.032 94.4993 34.12 94.9313 33.344C95.3713 32.56 95.9593 31.952 96.6953 31.52C97.4393 31.08 98.2673 30.86 99.1793 30.86C99.8913 30.86 100.507 30.988 101.027 31.244C101.555 31.5 101.975 31.796 102.287 32.132C102.607 32.468 102.795 32.756 102.851 32.996V31.148H104.915V41H102.875ZM96.3473 36.08C96.3473 36.792 96.5033 37.408 96.8153 37.928C97.1273 38.448 97.5313 38.852 98.0273 39.14C98.5313 39.42 99.0673 39.56 99.6353 39.56C100.243 39.56 100.787 39.416 101.267 39.128C101.747 38.84 102.127 38.436 102.407 37.916C102.687 37.388 102.827 36.776 102.827 36.08C102.827 35.384 102.687 34.776 102.407 34.256C102.127 33.728 101.747 33.32 101.267 33.032C100.787 32.736 100.243 32.588 99.6353 32.588C99.0673 32.588 98.5313 32.732 98.0273 33.02C97.5313 33.308 97.1273 33.712 96.8153 34.232C96.5033 34.752 96.3473 35.368 96.3473 36.08ZM113.213 30.86C113.861 30.86 114.489 30.996 115.097 31.268C115.713 31.54 116.217 31.972 116.609 32.564C117.009 33.148 117.209 33.912 117.209 34.856V41H115.097V35.264C115.097 34.288 114.869 33.58 114.413 33.14C113.957 32.692 113.369 32.468 112.649 32.468C112.177 32.468 111.721 32.604 111.281 32.876C110.849 33.14 110.493 33.508 110.213 33.98C109.933 34.444 109.793 34.972 109.793 35.564V41H107.705V31.148H109.793V32.9C109.865 32.628 110.061 32.332 110.381 32.012C110.701 31.692 111.109 31.42 111.605 31.196C112.101 30.972 112.637 30.86 113.213 30.86ZM121.896 36.116C121.896 37.148 122.116 37.972 122.556 38.588C123.004 39.196 123.688 39.5 124.608 39.5C125.536 39.5 126.22 39.196 126.66 38.588C127.1 37.972 127.32 37.148 127.32 36.116V31.148H129.384V36.404C129.384 37.364 129.196 38.212 128.82 38.948C128.452 39.684 127.912 40.26 127.2 40.676C126.496 41.084 125.632 41.288 124.608 41.288C123.592 41.288 122.728 41.084 122.016 40.676C121.312 40.26 120.772 39.684 120.396 38.948C120.028 38.212 119.844 37.364 119.844 36.404V31.148H121.896V36.116ZM133.529 36.5C133.537 37.092 133.665 37.632 133.913 38.12C134.161 38.608 134.529 38.996 135.017 39.284C135.513 39.572 136.121 39.716 136.841 39.716C137.449 39.716 137.965 39.628 138.389 39.452C138.821 39.268 139.173 39.052 139.445 38.804C139.717 38.548 139.913 38.32 140.033 38.12L141.053 39.38C140.789 39.764 140.465 40.1 140.081 40.388C139.705 40.676 139.245 40.896 138.701 41.048C138.157 41.208 137.493 41.288 136.709 41.288C135.653 41.288 134.737 41.064 133.961 40.616C133.193 40.16 132.601 39.532 132.185 38.732C131.769 37.924 131.561 37 131.561 35.96C131.561 35 131.757 34.136 132.149 33.368C132.541 32.592 133.109 31.98 133.853 31.532C134.605 31.084 135.509 30.86 136.565 30.86C137.533 30.86 138.373 31.064 139.085 31.472C139.805 31.872 140.361 32.44 140.753 33.176C141.153 33.912 141.353 34.792 141.353 35.816C141.353 35.88 141.349 35.996 141.341 36.164C141.333 36.324 141.325 36.436 141.317 36.5H133.529ZM139.361 34.928C139.353 34.6 139.257 34.24 139.073 33.848C138.897 33.456 138.609 33.12 138.209 32.84C137.809 32.56 137.269 32.42 136.589 32.42C135.885 32.42 135.317 32.556 134.885 32.828C134.461 33.1 134.149 33.432 133.949 33.824C133.749 34.208 133.633 34.576 133.601 34.928H139.361ZM145.83 41H143.73V24.488H145.83V41ZM162.567 39.26C163.551 39.26 164.403 39.124 165.123 38.852C165.851 38.58 166.367 38.316 166.671 38.06L167.571 39.824C167.211 40.144 166.583 40.468 165.687 40.796C164.799 41.124 163.731 41.288 162.483 41.288C161.315 41.288 160.231 41.08 159.231 40.664C158.231 40.248 157.355 39.668 156.603 38.924C155.859 38.18 155.275 37.312 154.851 36.32C154.435 35.328 154.227 34.256 154.227 33.104C154.227 31.952 154.435 30.876 154.851 29.876C155.267 28.876 155.847 28.004 156.591 27.26C157.343 26.508 158.219 25.924 159.219 25.508C160.227 25.084 161.315 24.872 162.483 24.872C163.731 24.872 164.799 25.036 165.687 25.364C166.583 25.692 167.211 26.016 167.571 26.336L166.671 28.1C166.367 27.836 165.851 27.572 165.123 27.308C164.403 27.036 163.551 26.9 162.567 26.9C161.671 26.9 160.851 27.052 160.107 27.356C159.363 27.66 158.715 28.092 158.163 28.652C157.619 29.204 157.195 29.856 156.891 30.608C156.595 31.36 156.447 32.18 156.447 33.068C156.447 33.964 156.595 34.792 156.891 35.552C157.195 36.304 157.619 36.96 158.163 37.52C158.715 38.072 159.363 38.5 160.107 38.804C160.851 39.108 161.671 39.26 162.567 39.26ZM177.899 41V39.08C177.835 39.28 177.647 39.556 177.335 39.908C177.031 40.26 176.611 40.58 176.075 40.868C175.547 41.148 174.923 41.288 174.203 41.288C173.291 41.288 172.463 41.072 171.719 40.64C170.983 40.208 170.395 39.604 169.955 38.828C169.523 38.044 169.307 37.128 169.307 36.08C169.307 35.032 169.523 34.12 169.955 33.344C170.395 32.56 170.983 31.952 171.719 31.52C172.463 31.08 173.291 30.86 174.203 30.86C174.915 30.86 175.531 30.988 176.051 31.244C176.579 31.5 176.999 31.796 177.311 32.132C177.631 32.468 177.819 32.756 177.875 32.996V31.148H179.939V41H177.899ZM171.371 36.08C171.371 36.792 171.527 37.408 171.839 37.928C172.151 38.448 172.555 38.852 173.051 39.14C173.555 39.42 174.091 39.56 174.659 39.56C175.267 39.56 175.811 39.416 176.291 39.128C176.771 38.84 177.151 38.436 177.431 37.916C177.711 37.388 177.851 36.776 177.851 36.08C177.851 35.384 177.711 34.776 177.431 34.256C177.151 33.728 176.771 33.32 176.291 33.032C175.811 32.736 175.267 32.588 174.659 32.588C174.091 32.588 173.555 32.732 173.051 33.02C172.555 33.308 172.151 33.712 171.839 34.232C171.527 34.752 171.371 35.368 171.371 36.08ZM184.901 41H182.801V24.488H184.901V41ZM186.924 31.148H189.168L192.384 39.068L195.6 31.148H197.832L193.62 41H191.16L186.924 31.148ZM201.099 36.5C201.107 37.092 201.235 37.632 201.483 38.12C201.731 38.608 202.099 38.996 202.587 39.284C203.083 39.572 203.691 39.716 204.411 39.716C205.019 39.716 205.535 39.628 205.959 39.452C206.391 39.268 206.743 39.052 207.015 38.804C207.287 38.548 207.483 38.32 207.603 38.12L208.623 39.38C208.359 39.764 208.035 40.1 207.651 40.388C207.275 40.676 206.815 40.896 206.271 41.048C205.727 41.208 205.063 41.288 204.279 41.288C203.223 41.288 202.307 41.064 201.531 40.616C200.763 40.16 200.171 39.532 199.755 38.732C199.339 37.924 199.131 37 199.131 35.96C199.131 35 199.327 34.136 199.719 33.368C200.111 32.592 200.679 31.98 201.423 31.532C202.175 31.084 203.079 30.86 204.135 30.86C205.103 30.86 205.943 31.064 206.655 31.472C207.375 31.872 207.931 32.44 208.323 33.176C208.723 33.912 208.923 34.792 208.923 35.816C208.923 35.88 208.919 35.996 208.911 36.164C208.903 36.324 208.895 36.436 208.887 36.5H201.099ZM206.931 34.928C206.923 34.6 206.827 34.24 206.643 33.848C206.467 33.456 206.179 33.12 205.779 32.84C205.379 32.56 204.839 32.42 204.159 32.42C203.455 32.42 202.887 32.556 202.455 32.828C202.031 33.1 201.719 33.432 201.519 33.824C201.319 34.208 201.203 34.576 201.171 34.928H206.931ZM216.737 30.86C217.385 30.86 218.013 30.996 218.621 31.268C219.237 31.54 219.741 31.972 220.133 32.564C220.533 33.148 220.733 33.912 220.733 34.856V41H218.621V35.264C218.621 34.288 218.393 33.58 217.937 33.14C217.481 32.692 216.893 32.468 216.173 32.468C215.701 32.468 215.245 32.604 214.805 32.876C214.373 33.14 214.017 33.508 213.737 33.98C213.457 34.444 213.317 34.972 213.317 35.564V41H211.229V31.148H213.317V32.9C213.389 32.628 213.585 32.332 213.905 32.012C214.225 31.692 214.633 31.42 215.129 31.196C215.625 30.972 216.161 30.86 216.737 30.86ZM222.623 31.148H224.555V27.104H226.631V31.148H229.163V32.936H226.631V37.808C226.631 38.384 226.731 38.808 226.931 39.08C227.139 39.352 227.415 39.488 227.759 39.488C228.063 39.488 228.299 39.432 228.467 39.32C228.635 39.208 228.735 39.132 228.767 39.092L229.595 40.628C229.547 40.668 229.419 40.744 229.211 40.856C229.003 40.968 228.735 41.068 228.407 41.156C228.079 41.244 227.695 41.288 227.255 41.288C226.487 41.288 225.843 41.056 225.323 40.592C224.811 40.12 224.555 39.376 224.555 38.36V32.936H222.623V31.148ZM232.716 36.5C232.724 37.092 232.852 37.632 233.1 38.12C233.348 38.608 233.716 38.996 234.204 39.284C234.7 39.572 235.308 39.716 236.028 39.716C236.636 39.716 237.152 39.628 237.576 39.452C238.008 39.268 238.36 39.052 238.632 38.804C238.904 38.548 239.1 38.32 239.22 38.12L240.24 39.38C239.976 39.764 239.652 40.1 239.268 40.388C238.892 40.676 238.432 40.896 237.888 41.048C237.344 41.208 236.68 41.288 235.896 41.288C234.84 41.288 233.924 41.064 233.148 40.616C232.38 40.16 231.788 39.532 231.372 38.732C230.956 37.924 230.748 37 230.748 35.96C230.748 35 230.944 34.136 231.336 33.368C231.728 32.592 232.296 31.98 233.04 31.532C233.792 31.084 234.696 30.86 235.752 30.86C236.72 30.86 237.56 31.064 238.272 31.472C238.992 31.872 239.548 32.44 239.94 33.176C240.34 33.912 240.54 34.792 240.54 35.816C240.54 35.88 240.536 35.996 240.528 36.164C240.52 36.324 240.512 36.436 240.504 36.5H232.716ZM238.548 34.928C238.54 34.6 238.444 34.24 238.26 33.848C238.084 33.456 237.796 33.12 237.396 32.84C236.996 32.56 236.456 32.42 235.776 32.42C235.072 32.42 234.504 32.556 234.072 32.828C233.648 33.1 233.336 33.432 233.136 33.824C232.936 34.208 232.82 34.576 232.788 34.928H238.548Z" fill="black"/>
<path d="M335.975 25.16H339.707C341.395 25.16 342.783 25.5 343.871 26.18C344.967 26.852 345.779 27.784 346.307 28.976C346.835 30.168 347.099 31.532 347.099 33.068C347.099 34.612 346.835 35.98 346.307 37.172C345.779 38.364 344.971 39.3 343.883 39.98C342.795 40.66 341.403 41 339.707 41H335.975V25.16ZM338.015 27.032V39.128H339.539C340.787 39.128 341.807 38.868 342.599 38.348C343.391 37.828 343.975 37.116 344.351 36.212C344.735 35.3 344.931 34.26 344.939 33.092C344.939 31.916 344.751 30.876 344.375 29.972C343.999 29.06 343.411 28.344 342.611 27.824C341.811 27.296 340.787 27.032 339.539 27.032H338.015ZM349.879 41V31.148H351.967V41H349.879ZM350.947 27.776C350.571 27.776 350.247 27.644 349.975 27.38C349.711 27.108 349.579 26.784 349.579 26.408C349.579 26.032 349.711 25.708 349.975 25.436C350.247 25.164 350.571 25.028 350.947 25.028C351.195 25.028 351.423 25.092 351.631 25.22C351.847 25.348 352.019 25.516 352.147 25.724C352.275 25.924 352.339 26.152 352.339 26.408C352.339 26.784 352.203 27.108 351.931 27.38C351.659 27.644 351.331 27.776 350.947 27.776ZM356.466 36.5C356.474 37.092 356.602 37.632 356.85 38.12C357.098 38.608 357.466 38.996 357.954 39.284C358.45 39.572 359.058 39.716 359.778 39.716C360.386 39.716 360.902 39.628 361.326 39.452C361.758 39.268 362.11 39.052 362.382 38.804C362.654 38.548 362.85 38.32 362.97 38.12L363.99 39.38C363.726 39.764 363.402 40.1 363.018 40.388C362.642 40.676 362.182 40.896 361.638 41.048C361.094 41.208 360.43 41.288 359.646 41.288C358.59 41.288 357.674 41.064 356.898 40.616C356.13 40.16 355.538 39.532 355.122 38.732C354.706 37.924 354.498 37 354.498 35.96C354.498 35 354.694 34.136 355.086 33.368C355.478 32.592 356.046 31.98 356.79 31.532C357.542 31.084 358.446 30.86 359.502 30.86C360.47 30.86 361.31 31.064 362.022 31.472C362.742 31.872 363.298 32.44 363.69 33.176C364.09 33.912 364.29 34.792 364.29 35.816C364.29 35.88 364.286 35.996 364.278 36.164C364.27 36.324 364.262 36.436 364.254 36.5H356.466ZM362.298 34.928C362.29 34.6 362.194 34.24 362.01 33.848C361.834 33.456 361.546 33.12 361.146 32.84C360.746 32.56 360.206 32.42 359.526 32.42C358.822 32.42 358.254 32.556 357.822 32.828C357.398 33.1 357.086 33.432 356.886 33.824C356.686 34.208 356.57 34.576 356.538 34.928H362.298ZM370.292 30.86C370.804 30.86 371.28 30.912 371.72 31.016C372.168 31.12 372.552 31.244 372.872 31.388C373.2 31.532 373.432 31.66 373.568 31.772L372.74 33.092C372.58 32.948 372.292 32.788 371.876 32.612C371.46 32.428 370.996 32.336 370.484 32.336C369.924 32.336 369.448 32.448 369.056 32.672C368.664 32.888 368.468 33.204 368.468 33.62C368.468 34.036 368.668 34.368 369.068 34.616C369.476 34.856 370.02 35.056 370.7 35.216C371.244 35.344 371.752 35.516 372.224 35.732C372.704 35.948 373.092 36.248 373.388 36.632C373.684 37.008 373.832 37.512 373.832 38.144C373.832 38.72 373.712 39.212 373.472 39.62C373.232 40.02 372.908 40.344 372.5 40.592C372.092 40.832 371.636 41.008 371.132 41.12C370.628 41.232 370.116 41.288 369.596 41.288C368.988 41.288 368.44 41.224 367.952 41.096C367.464 40.976 367.052 40.832 366.716 40.664C366.388 40.488 366.148 40.336 365.996 40.208L366.824 38.72C367.032 38.92 367.372 39.132 367.844 39.356C368.324 39.58 368.868 39.692 369.476 39.692C370.148 39.692 370.692 39.552 371.108 39.272C371.524 38.984 371.732 38.612 371.732 38.156C371.732 37.812 371.632 37.536 371.432 37.328C371.232 37.12 370.964 36.952 370.628 36.824C370.292 36.696 369.924 36.584 369.524 36.488C369.14 36.4 368.764 36.284 368.396 36.14C368.036 35.996 367.704 35.812 367.4 35.588C367.104 35.356 366.868 35.076 366.692 34.748C366.516 34.412 366.428 34.02 366.428 33.572C366.428 33.004 366.608 32.52 366.968 32.12C367.328 31.712 367.8 31.4 368.384 31.184C368.968 30.968 369.604 30.86 370.292 30.86ZM375.248 31.148H377.18V27.104H379.256V31.148H381.788V32.936H379.256V37.808C379.256 38.384 379.356 38.808 379.556 39.08C379.764 39.352 380.04 39.488 380.384 39.488C380.688 39.488 380.924 39.432 381.092 39.32C381.26 39.208 381.36 39.132 381.392 39.092L382.22 40.628C382.172 40.668 382.044 40.744 381.836 40.856C381.628 40.968 381.36 41.068 381.032 41.156C380.704 41.244 380.32 41.288 379.88 41.288C379.112 41.288 378.468 41.056 377.948 40.592C377.436 40.12 377.18 39.376 377.18 38.36V32.936H375.248V31.148ZM386.085 41H384.009V31.148H386.085V32.852H386.025C386.065 32.644 386.213 32.384 386.469 32.072C386.725 31.76 387.077 31.48 387.525 31.232C387.973 30.984 388.509 30.86 389.133 30.86C389.589 30.86 389.989 30.924 390.333 31.052C390.685 31.172 390.933 31.292 391.077 31.412L390.225 33.14C390.113 33.028 389.917 32.916 389.637 32.804C389.357 32.684 389.009 32.624 388.593 32.624C388.065 32.624 387.613 32.788 387.237 33.116C386.861 33.444 386.573 33.84 386.373 34.304C386.181 34.76 386.085 35.184 386.085 35.576V41ZM396.773 41.288C395.757 41.288 394.853 41.06 394.061 40.604C393.277 40.148 392.661 39.532 392.213 38.756C391.765 37.972 391.541 37.088 391.541 36.104C391.541 35.12 391.765 34.232 392.213 33.44C392.661 32.648 393.277 32.02 394.061 31.556C394.853 31.092 395.757 30.86 396.773 30.86C397.781 30.86 398.673 31.092 399.449 31.556C400.233 32.02 400.845 32.648 401.285 33.44C401.725 34.232 401.945 35.12 401.945 36.104C401.945 37.088 401.725 37.972 401.285 38.756C400.845 39.532 400.233 40.148 399.449 40.604C398.673 41.06 397.781 41.288 396.773 41.288ZM396.773 39.5C397.413 39.5 397.969 39.352 398.441 39.056C398.921 38.76 399.293 38.356 399.557 37.844C399.821 37.324 399.953 36.74 399.953 36.092C399.953 35.444 399.821 34.86 399.557 34.34C399.293 33.82 398.921 33.408 398.441 33.104C397.969 32.8 397.413 32.648 396.773 32.648C396.125 32.648 395.561 32.8 395.081 33.104C394.601 33.408 394.225 33.82 393.953 34.34C393.689 34.86 393.557 35.444 393.557 36.092C393.557 36.74 393.689 37.324 393.953 37.844C394.225 38.356 394.601 38.76 395.081 39.056C395.561 39.352 396.125 39.5 396.773 39.5Z" fill="black"/>
</svg>
