<svg width="415" height="70" viewBox="0 0 415 70" fill="none" xmlns="http://www.w3.org/2000/svg">
<path d="M0 20C0 8.9543 8.9543 0 20 0H395C406.046 0 415 8.95431 415 20V50C415 61.0457 406.046 70 395 70H20C8.95432 70 0 61.0457 0 50V20Z" fill="#D9ECD4"/>
<path d="M20 1H395V-1H20V1ZM414 20V50H416V20H414ZM395 69H20V71H395V69ZM1 50V20H-1V50H1ZM20 69C9.5066 69 1 60.4934 1 50H-1C-1 61.598 8.40203 71 20 71V69ZM414 50C414 60.4934 405.493 69 395 69V71C406.598 71 416 61.598 416 50H414ZM395 1C405.493 1 414 9.50659 414 20H416C416 8.40202 406.598 -1 395 -1V1ZM20 -1C8.40202 -1 -1 8.40202 -1 20H1C1 9.50659 9.50659 1 20 1V-1Z" fill="white" fill-opacity="0.1"/>
<path d="M21 35C21 23.9543 29.9543 15 41 15C52.0457 15 61 23.9543 61 35C61 46.0457 52.0457 55 41 55C29.9543 55 21 46.0457 21 35Z" fill="#4F378B"/>
<path d="M36.3649 42V27.4545H41.2797C42.416 27.4545 43.3488 27.6487 44.0779 28.0369C44.8071 28.4205 45.3469 28.9484 45.6973 29.6207C46.0476 30.2931 46.2228 31.0578 46.2228 31.9148C46.2228 32.7718 46.0476 33.5317 45.6973 34.1946C45.3469 34.8575 44.8095 35.3783 44.085 35.7571C43.3606 36.1312 42.435 36.3182 41.3081 36.3182H37.3308V34.7273H41.2512C42.0278 34.7273 42.6528 34.6136 43.1262 34.3864C43.6045 34.1591 43.9501 33.8371 44.1632 33.4205C44.381 32.9991 44.4899 32.4972 44.4899 31.9148C44.4899 31.3324 44.381 30.8234 44.1632 30.3878C43.9454 29.9522 43.5974 29.616 43.1191 29.3793C42.6409 29.1378 42.0088 29.017 41.2228 29.017H38.1262V42H36.3649ZM43.2115 35.4659L46.791 42H44.7456L41.2228 35.4659H43.2115Z" fill="#F5F5F5"/>
<path d="M77.32 25.16H82.852C83.708 25.16 84.484 25.34 85.18 25.7C85.884 26.052 86.444 26.572 86.86 27.26C87.284 27.94 87.496 28.772 87.496 29.756C87.496 30.732 87.3 31.54 86.908 32.18C86.524 32.82 86.06 33.304 85.516 33.632C84.972 33.952 84.468 34.128 84.004 34.16L87.928 41H85.6L81.928 34.304H79.372V41H77.32V25.16ZM79.372 32.78H82.132C83.076 32.78 83.856 32.544 84.472 32.072C85.088 31.6 85.396 30.844 85.396 29.804C85.396 28.764 85.088 28.016 84.472 27.56C83.864 27.104 83.088 26.876 82.144 26.876H79.372V32.78ZM95.1325 41.288C94.1165 41.288 93.2125 41.06 92.4205 40.604C91.6365 40.148 91.0205 39.532 90.5725 38.756C90.1245 37.972 89.9005 37.088 89.9005 36.104C89.9005 35.12 90.1245 34.232 90.5725 33.44C91.0205 32.648 91.6365 32.02 92.4205 31.556C93.2125 31.092 94.1165 30.86 95.1325 30.86C96.1405 30.86 97.0325 31.092 97.8085 31.556C98.5925 32.02 99.2045 32.648 99.6445 33.44C100.085 34.232 100.305 35.12 100.305 36.104C100.305 37.088 100.085 37.972 99.6445 38.756C99.2045 39.532 98.5925 40.148 97.8085 40.604C97.0325 41.06 96.1405 41.288 95.1325 41.288ZM95.1325 39.5C95.7725 39.5 96.3285 39.352 96.8005 39.056C97.2805 38.76 97.6525 38.356 97.9165 37.844C98.1805 37.324 98.3125 36.74 98.3125 36.092C98.3125 35.444 98.1805 34.86 97.9165 34.34C97.6525 33.82 97.2805 33.408 96.8005 33.104C96.3285 32.8 95.7725 32.648 95.1325 32.648C94.4845 32.648 93.9205 32.8 93.4405 33.104C92.9605 33.408 92.5845 33.82 92.3125 34.34C92.0485 34.86 91.9165 35.444 91.9165 36.092C91.9165 36.74 92.0485 37.324 92.3125 37.844C92.5845 38.356 92.9605 38.76 93.4405 39.056C93.9205 39.352 94.4845 39.5 95.1325 39.5ZM107.263 39.56C107.887 39.56 108.391 39.46 108.775 39.26C109.159 39.06 109.399 38.916 109.495 38.828L110.515 40.328C110.435 40.4 110.243 40.516 109.939 40.676C109.643 40.828 109.259 40.968 108.787 41.096C108.323 41.224 107.795 41.288 107.203 41.288C106.299 41.288 105.459 41.088 104.683 40.688C103.907 40.28 103.279 39.688 102.799 38.912C102.327 38.136 102.091 37.188 102.091 36.068C102.091 34.94 102.327 33.992 102.799 33.224C103.279 32.448 103.907 31.86 104.683 31.46C105.459 31.06 106.299 30.86 107.203 30.86C107.787 30.86 108.307 30.932 108.763 31.076C109.219 31.212 109.595 31.364 109.891 31.532C110.187 31.7 110.383 31.828 110.479 31.916L109.447 33.416C109.383 33.352 109.259 33.256 109.075 33.128C108.899 32.992 108.659 32.868 108.355 32.756C108.051 32.644 107.687 32.588 107.263 32.588C106.751 32.588 106.251 32.728 105.763 33.008C105.283 33.28 104.887 33.676 104.575 34.196C104.263 34.716 104.107 35.34 104.107 36.068C104.107 36.796 104.263 37.424 104.575 37.952C104.887 38.472 105.283 38.872 105.763 39.152C106.251 39.424 106.751 39.56 107.263 39.56ZM112.436 41V31.148H114.392V41H112.436ZM111.932 29.792L111.2 28.796L114.836 25.784L116.036 27.272L111.932 29.792ZM121.734 41.288C120.718 41.288 119.814 41.06 119.022 40.604C118.238 40.148 117.622 39.532 117.174 38.756C116.726 37.972 116.502 37.088 116.502 36.104C116.502 35.12 116.726 34.232 117.174 33.44C117.622 32.648 118.238 32.02 119.022 31.556C119.814 31.092 120.718 30.86 121.734 30.86C122.742 30.86 123.634 31.092 124.41 31.556C125.194 32.02 125.806 32.648 126.246 33.44C126.686 34.232 126.906 35.12 126.906 36.104C126.906 37.088 126.686 37.972 126.246 38.756C125.806 39.532 125.194 40.148 124.41 40.604C123.634 41.06 122.742 41.288 121.734 41.288ZM121.734 39.5C122.374 39.5 122.93 39.352 123.402 39.056C123.882 38.76 124.254 38.356 124.518 37.844C124.782 37.324 124.914 36.74 124.914 36.092C124.914 35.444 124.782 34.86 124.518 34.34C124.254 33.82 123.882 33.408 123.402 33.104C122.93 32.8 122.374 32.648 121.734 32.648C121.086 32.648 120.522 32.8 120.042 33.104C119.562 33.408 119.186 33.82 118.914 34.34C118.65 34.86 118.518 35.444 118.518 36.092C118.518 36.74 118.65 37.324 118.914 37.844C119.186 38.356 119.562 38.76 120.042 39.056C120.522 39.352 121.086 39.5 121.734 39.5ZM144.894 33.98H137.298V41H135.27V25.16H137.298V32.132H144.894V25.16H146.922V41H144.894V33.98ZM151.388 36.5C151.396 37.092 151.524 37.632 151.772 38.12C152.02 38.608 152.388 38.996 152.876 39.284C153.372 39.572 153.98 39.716 154.7 39.716C155.308 39.716 155.824 39.628 156.248 39.452C156.68 39.268 157.032 39.052 157.304 38.804C157.576 38.548 157.772 38.32 157.892 38.12L158.912 39.38C158.648 39.764 158.324 40.1 157.94 40.388C157.564 40.676 157.104 40.896 156.56 41.048C156.016 41.208 155.352 41.288 154.568 41.288C153.512 41.288 152.596 41.064 151.82 40.616C151.052 40.16 150.46 39.532 150.044 38.732C149.628 37.924 149.42 37 149.42 35.96C149.42 35 149.616 34.136 150.008 33.368C150.4 32.592 150.968 31.98 151.712 31.532C152.464 31.084 153.368 30.86 154.424 30.86C155.392 30.86 156.232 31.064 156.944 31.472C157.664 31.872 158.22 32.44 158.612 33.176C159.012 33.912 159.212 34.792 159.212 35.816C159.212 35.88 159.208 35.996 159.2 36.164C159.192 36.324 159.184 36.436 159.176 36.5H151.388ZM157.22 34.928C157.212 34.6 157.116 34.24 156.932 33.848C156.756 33.456 156.468 33.12 156.068 32.84C155.668 32.56 155.128 32.42 154.448 32.42C153.744 32.42 153.176 32.556 152.744 32.828C152.32 33.1 152.008 33.432 151.808 33.824C151.608 34.208 151.492 34.576 151.46 34.928H157.22ZM163.57 41H161.494V31.148H163.57V32.852H163.51C163.55 32.644 163.698 32.384 163.954 32.072C164.21 31.76 164.562 31.48 165.01 31.232C165.458 30.984 165.994 30.86 166.618 30.86C167.074 30.86 167.474 30.924 167.818 31.052C168.17 31.172 168.418 31.292 168.562 31.412L167.71 33.14C167.598 33.028 167.402 32.916 167.122 32.804C166.842 32.684 166.494 32.624 166.078 32.624C165.55 32.624 165.098 32.788 164.722 33.116C164.346 33.444 164.058 33.84 163.858 34.304C163.666 34.76 163.57 35.184 163.57 35.576V41ZM175.416 30.86C176.064 30.86 176.692 30.996 177.3 31.268C177.916 31.54 178.42 31.972 178.812 32.564C179.212 33.148 179.412 33.912 179.412 34.856V41H177.3V35.264C177.3 34.288 177.072 33.58 176.616 33.14C176.16 32.692 175.572 32.468 174.852 32.468C174.38 32.468 173.924 32.604 173.484 32.876C173.052 33.14 172.696 33.508 172.416 33.98C172.136 34.444 171.996 34.972 171.996 35.564V41H169.908V31.148H171.996V32.9C172.068 32.628 172.264 32.332 172.584 32.012C172.904 31.692 173.312 31.42 173.808 31.196C174.304 30.972 174.84 30.86 175.416 30.86ZM190.063 41V39.08C189.999 39.28 189.811 39.556 189.499 39.908C189.195 40.26 188.775 40.58 188.239 40.868C187.711 41.148 187.087 41.288 186.367 41.288C185.455 41.288 184.627 41.072 183.883 40.64C183.147 40.208 182.559 39.604 182.119 38.828C181.687 38.044 181.471 37.128 181.471 36.08C181.471 35.032 181.687 34.12 182.119 33.344C182.559 32.56 183.147 31.952 183.883 31.52C184.627 31.08 185.455 30.86 186.367 30.86C187.079 30.86 187.695 30.988 188.215 31.244C188.743 31.5 189.163 31.796 189.475 32.132C189.795 32.468 189.983 32.756 190.039 32.996V31.148H192.103V41H190.063ZM183.535 36.08C183.535 36.792 183.691 37.408 184.003 37.928C184.315 38.448 184.719 38.852 185.215 39.14C185.719 39.42 186.255 39.56 186.823 39.56C187.431 39.56 187.975 39.416 188.455 39.128C188.935 38.84 189.315 38.436 189.595 37.916C189.875 37.388 190.015 36.776 190.015 36.08C190.015 35.384 189.875 34.776 189.595 34.256C189.315 33.728 188.935 33.32 188.455 33.032C187.975 32.736 187.431 32.588 186.823 32.588C186.255 32.588 185.719 32.732 185.215 33.02C184.719 33.308 184.315 33.712 184.003 34.232C183.691 34.752 183.535 35.368 183.535 36.08ZM185.455 29.792L184.723 28.796L188.359 25.784L189.559 27.272L185.455 29.792ZM200.401 30.86C201.049 30.86 201.677 30.996 202.285 31.268C202.901 31.54 203.405 31.972 203.797 32.564C204.197 33.148 204.397 33.912 204.397 34.856V41H202.285V35.264C202.285 34.288 202.057 33.58 201.601 33.14C201.145 32.692 200.557 32.468 199.837 32.468C199.365 32.468 198.909 32.604 198.469 32.876C198.037 33.14 197.681 33.508 197.401 33.98C197.121 34.444 196.981 34.972 196.981 35.564V41H194.893V31.148H196.981V32.9C197.053 32.628 197.249 32.332 197.569 32.012C197.889 31.692 198.297 31.42 198.793 31.196C199.289 30.972 199.825 30.86 200.401 30.86ZM211.471 41.288C210.567 41.288 209.755 41.072 209.035 40.64C208.323 40.208 207.759 39.604 207.343 38.828C206.935 38.044 206.731 37.128 206.731 36.08C206.731 35.032 206.935 34.12 207.343 33.344C207.759 32.56 208.323 31.952 209.035 31.52C209.755 31.08 210.567 30.86 211.471 30.86C212.199 30.86 212.839 30.988 213.391 31.244C213.943 31.492 214.383 31.784 214.711 32.12C215.039 32.456 215.227 32.748 215.275 32.996V24.488H217.375V41H215.311V39.08C215.223 39.352 215.003 39.66 214.651 40.004C214.307 40.348 213.863 40.648 213.319 40.904C212.775 41.16 212.159 41.288 211.471 41.288ZM211.951 39.56C212.559 39.56 213.115 39.416 213.619 39.128C214.123 38.84 214.523 38.436 214.819 37.916C215.123 37.388 215.275 36.776 215.275 36.08C215.275 35.384 215.123 34.776 214.819 34.256C214.523 33.728 214.123 33.32 213.619 33.032C213.115 32.736 212.559 32.588 211.951 32.588C211.391 32.588 210.871 32.732 210.391 33.02C209.911 33.308 209.523 33.712 209.227 34.232C208.939 34.752 208.795 35.368 208.795 36.08C208.795 36.792 208.939 37.408 209.227 37.928C209.523 38.448 209.911 38.852 210.391 39.14C210.871 39.42 211.391 39.56 211.951 39.56ZM221.021 36.5C221.029 37.092 221.157 37.632 221.405 38.12C221.653 38.608 222.021 38.996 222.509 39.284C223.005 39.572 223.613 39.716 224.333 39.716C224.941 39.716 225.457 39.628 225.881 39.452C226.313 39.268 226.665 39.052 226.937 38.804C227.209 38.548 227.405 38.32 227.525 38.12L228.545 39.38C228.281 39.764 227.957 40.1 227.573 40.388C227.197 40.676 226.737 40.896 226.193 41.048C225.649 41.208 224.985 41.288 224.201 41.288C223.145 41.288 222.229 41.064 221.453 40.616C220.685 40.16 220.093 39.532 219.677 38.732C219.261 37.924 219.053 37 219.053 35.96C219.053 35 219.249 34.136 219.641 33.368C220.033 32.592 220.601 31.98 221.345 31.532C222.097 31.084 223.001 30.86 224.057 30.86C225.025 30.86 225.865 31.064 226.577 31.472C227.297 31.872 227.853 32.44 228.245 33.176C228.645 33.912 228.845 34.792 228.845 35.816C228.845 35.88 228.841 35.996 228.833 36.164C228.825 36.324 228.817 36.436 228.809 36.5H221.021ZM226.853 34.928C226.845 34.6 226.749 34.24 226.565 33.848C226.389 33.456 226.101 33.12 225.701 32.84C225.301 32.56 224.761 32.42 224.081 32.42C223.377 32.42 222.809 32.556 222.377 32.828C221.953 33.1 221.641 33.432 221.441 33.824C221.241 34.208 221.125 34.576 221.093 34.928H226.853ZM230.767 31.148H239.359L233.467 39.416H239.119V41H230.095L235.987 32.72H230.767V31.148Z" fill="black"/>
<path d="M335.975 25.16H339.707C341.395 25.16 342.783 25.5 343.871 26.18C344.967 26.852 345.779 27.784 346.307 28.976C346.835 30.168 347.099 31.532 347.099 33.068C347.099 34.612 346.835 35.98 346.307 37.172C345.779 38.364 344.971 39.3 343.883 39.98C342.795 40.66 341.403 41 339.707 41H335.975V25.16ZM338.015 27.032V39.128H339.539C340.787 39.128 341.807 38.868 342.599 38.348C343.391 37.828 343.975 37.116 344.351 36.212C344.735 35.3 344.931 34.26 344.939 33.092C344.939 31.916 344.751 30.876 344.375 29.972C343.999 29.06 343.411 28.344 342.611 27.824C341.811 27.296 340.787 27.032 339.539 27.032H338.015ZM349.879 41V31.148H351.967V41H349.879ZM350.947 27.776C350.571 27.776 350.247 27.644 349.975 27.38C349.711 27.108 349.579 26.784 349.579 26.408C349.579 26.032 349.711 25.708 349.975 25.436C350.247 25.164 350.571 25.028 350.947 25.028C351.195 25.028 351.423 25.092 351.631 25.22C351.847 25.348 352.019 25.516 352.147 25.724C352.275 25.924 352.339 26.152 352.339 26.408C352.339 26.784 352.203 27.108 351.931 27.38C351.659 27.644 351.331 27.776 350.947 27.776ZM356.466 36.5C356.474 37.092 356.602 37.632 356.85 38.12C357.098 38.608 357.466 38.996 357.954 39.284C358.45 39.572 359.058 39.716 359.778 39.716C360.386 39.716 360.902 39.628 361.326 39.452C361.758 39.268 362.11 39.052 362.382 38.804C362.654 38.548 362.85 38.32 362.97 38.12L363.99 39.38C363.726 39.764 363.402 40.1 363.018 40.388C362.642 40.676 362.182 40.896 361.638 41.048C361.094 41.208 360.43 41.288 359.646 41.288C358.59 41.288 357.674 41.064 356.898 40.616C356.13 40.16 355.538 39.532 355.122 38.732C354.706 37.924 354.498 37 354.498 35.96C354.498 35 354.694 34.136 355.086 33.368C355.478 32.592 356.046 31.98 356.79 31.532C357.542 31.084 358.446 30.86 359.502 30.86C360.47 30.86 361.31 31.064 362.022 31.472C362.742 31.872 363.298 32.44 363.69 33.176C364.09 33.912 364.29 34.792 364.29 35.816C364.29 35.88 364.286 35.996 364.278 36.164C364.27 36.324 364.262 36.436 364.254 36.5H356.466ZM362.298 34.928C362.29 34.6 362.194 34.24 362.01 33.848C361.834 33.456 361.546 33.12 361.146 32.84C360.746 32.56 360.206 32.42 359.526 32.42C358.822 32.42 358.254 32.556 357.822 32.828C357.398 33.1 357.086 33.432 356.886 33.824C356.686 34.208 356.57 34.576 356.538 34.928H362.298ZM370.292 30.86C370.804 30.86 371.28 30.912 371.72 31.016C372.168 31.12 372.552 31.244 372.872 31.388C373.2 31.532 373.432 31.66 373.568 31.772L372.74 33.092C372.58 32.948 372.292 32.788 371.876 32.612C371.46 32.428 370.996 32.336 370.484 32.336C369.924 32.336 369.448 32.448 369.056 32.672C368.664 32.888 368.468 33.204 368.468 33.62C368.468 34.036 368.668 34.368 369.068 34.616C369.476 34.856 370.02 35.056 370.7 35.216C371.244 35.344 371.752 35.516 372.224 35.732C372.704 35.948 373.092 36.248 373.388 36.632C373.684 37.008 373.832 37.512 373.832 38.144C373.832 38.72 373.712 39.212 373.472 39.62C373.232 40.02 372.908 40.344 372.5 40.592C372.092 40.832 371.636 41.008 371.132 41.12C370.628 41.232 370.116 41.288 369.596 41.288C368.988 41.288 368.44 41.224 367.952 41.096C367.464 40.976 367.052 40.832 366.716 40.664C366.388 40.488 366.148 40.336 365.996 40.208L366.824 38.72C367.032 38.92 367.372 39.132 367.844 39.356C368.324 39.58 368.868 39.692 369.476 39.692C370.148 39.692 370.692 39.552 371.108 39.272C371.524 38.984 371.732 38.612 371.732 38.156C371.732 37.812 371.632 37.536 371.432 37.328C371.232 37.12 370.964 36.952 370.628 36.824C370.292 36.696 369.924 36.584 369.524 36.488C369.14 36.4 368.764 36.284 368.396 36.14C368.036 35.996 367.704 35.812 367.4 35.588C367.104 35.356 366.868 35.076 366.692 34.748C366.516 34.412 366.428 34.02 366.428 33.572C366.428 33.004 366.608 32.52 366.968 32.12C367.328 31.712 367.8 31.4 368.384 31.184C368.968 30.968 369.604 30.86 370.292 30.86ZM375.248 31.148H377.18V27.104H379.256V31.148H381.788V32.936H379.256V37.808C379.256 38.384 379.356 38.808 379.556 39.08C379.764 39.352 380.04 39.488 380.384 39.488C380.688 39.488 380.924 39.432 381.092 39.32C381.26 39.208 381.36 39.132 381.392 39.092L382.22 40.628C382.172 40.668 382.044 40.744 381.836 40.856C381.628 40.968 381.36 41.068 381.032 41.156C380.704 41.244 380.32 41.288 379.88 41.288C379.112 41.288 378.468 41.056 377.948 40.592C377.436 40.12 377.18 39.376 377.18 38.36V32.936H375.248V31.148ZM386.085 41H384.009V31.148H386.085V32.852H386.025C386.065 32.644 386.213 32.384 386.469 32.072C386.725 31.76 387.077 31.48 387.525 31.232C387.973 30.984 388.509 30.86 389.133 30.86C389.589 30.86 389.989 30.924 390.333 31.052C390.685 31.172 390.933 31.292 391.077 31.412L390.225 33.14C390.113 33.028 389.917 32.916 389.637 32.804C389.357 32.684 389.009 32.624 388.593 32.624C388.065 32.624 387.613 32.788 387.237 33.116C386.861 33.444 386.573 33.84 386.373 34.304C386.181 34.76 386.085 35.184 386.085 35.576V41ZM396.773 41.288C395.757 41.288 394.853 41.06 394.061 40.604C393.277 40.148 392.661 39.532 392.213 38.756C391.765 37.972 391.541 37.088 391.541 36.104C391.541 35.12 391.765 34.232 392.213 33.44C392.661 32.648 393.277 32.02 394.061 31.556C394.853 31.092 395.757 30.86 396.773 30.86C397.781 30.86 398.673 31.092 399.449 31.556C400.233 32.02 400.845 32.648 401.285 33.44C401.725 34.232 401.945 35.12 401.945 36.104C401.945 37.088 401.725 37.972 401.285 38.756C400.845 39.532 400.233 40.148 399.449 40.604C398.673 41.06 397.781 41.288 396.773 41.288ZM396.773 39.5C397.413 39.5 397.969 39.352 398.441 39.056C398.921 38.76 399.293 38.356 399.557 37.844C399.821 37.324 399.953 36.74 399.953 36.092C399.953 35.444 399.821 34.86 399.557 34.34C399.293 33.82 398.921 33.408 398.441 33.104C397.969 32.8 397.413 32.648 396.773 32.648C396.125 32.648 395.561 32.8 395.081 33.104C394.601 33.408 394.225 33.82 393.953 34.34C393.689 34.86 393.557 35.444 393.557 36.092C393.557 36.74 393.689 37.324 393.953 37.844C394.225 38.356 394.601 38.76 395.081 39.056C395.561 39.352 396.125 39.5 396.773 39.5Z" fill="black"/>
</svg>
