<svg width="415" height="70" viewBox="0 0 415 70" fill="none" xmlns="http://www.w3.org/2000/svg">
<path d="M0 20C0 8.9543 8.9543 0 20 0H395C406.046 0 415 8.95431 415 20V50C415 61.0457 406.046 70 395 70H20C8.95432 70 0 61.0457 0 50V20Z" fill="#D9ECD4"/>
<path d="M20 1H395V-1H20V1ZM414 20V50H416V20H414ZM395 69H20V71H395V69ZM1 50V20H-1V50H1ZM20 69C9.5066 69 1 60.4934 1 50H-1C-1 61.598 8.40203 71 20 71V69ZM414 50C414 60.4934 405.493 69 395 69V71C406.598 71 416 61.598 416 50H414ZM395 1C405.493 1 414 9.50659 414 20H416C416 8.40202 406.598 -1 395 -1V1ZM20 -1C8.40202 -1 -1 8.40202 -1 20H1C1 9.50659 9.50659 1 20 1V-1Z" fill="white" fill-opacity="0.1"/>
<path d="M44.5833 31.9167C43.0617 31.9167 41.8333 30.7163 41.8333 29.2292V20.2708C41.8333 18.7838 43.0617 17.5833 44.5833 17.5833C46.105 17.5833 47.3333 18.7838 47.3333 20.2708V29.2292C47.3333 30.7163 46.105 31.9167 44.5833 31.9167Z" stroke="#1E1E1E" stroke-width="4" stroke-linecap="round" stroke-linejoin="round"/>
<path d="M55.5833 31.9167H52.8333V29.2292C52.8333 27.7421 54.0617 26.5417 55.5833 26.5417C57.105 26.5417 58.3333 27.7421 58.3333 29.2292C58.3333 30.7163 57.105 31.9167 55.5833 31.9167Z" stroke="#1E1E1E" stroke-width="4" stroke-linecap="round" stroke-linejoin="round"/>
<path d="M35.4167 39.0833C36.9383 39.0833 38.1667 40.2838 38.1667 41.7708V50.7292C38.1667 52.2163 36.9383 53.4167 35.4167 53.4167C33.895 53.4167 32.6667 52.2163 32.6667 50.7292V41.7708C32.6667 40.2838 33.895 39.0833 35.4167 39.0833Z" stroke="#1E1E1E" stroke-width="4" stroke-linecap="round" stroke-linejoin="round"/>
<path d="M24.4167 39.0833H27.1667V41.7708C27.1667 43.2579 25.9383 44.4583 24.4167 44.4583C22.895 44.4583 21.6667 43.2579 21.6667 41.7708C21.6667 40.2838 22.895 39.0833 24.4167 39.0833Z" stroke="#1E1E1E" stroke-width="4" stroke-linecap="round" stroke-linejoin="round"/>
<path d="M43.6667 39.9792C43.6667 38.4921 44.895 37.2917 46.4167 37.2917H55.5833C57.105 37.2917 58.3333 38.4921 58.3333 39.9792C58.3333 41.4663 57.105 42.6667 55.5833 42.6667H46.4167C44.895 42.6667 43.6667 41.4663 43.6667 39.9792Z" stroke="#1E1E1E" stroke-width="4" stroke-linecap="round" stroke-linejoin="round"/>
<path d="M46.4167 48.0417H43.6667V50.7292C43.6667 52.2163 44.895 53.4167 46.4167 53.4167C47.9383 53.4167 49.1667 52.2163 49.1667 50.7292C49.1667 49.2421 47.9383 48.0417 46.4167 48.0417Z" stroke="#1E1E1E" stroke-width="4" stroke-linecap="round" stroke-linejoin="round"/>
<path d="M36.3333 31.0208C36.3333 29.5338 35.105 28.3333 33.5833 28.3333H24.4167C22.895 28.3333 21.6667 29.5338 21.6667 31.0208C21.6667 32.5079 22.895 33.7083 24.4167 33.7083H33.5833C35.105 33.7083 36.3333 32.5079 36.3333 31.0208Z" stroke="#1E1E1E" stroke-width="4" stroke-linecap="round" stroke-linejoin="round"/>
<path d="M33.5833 22.9583H36.3333V20.2708C36.3333 18.7838 35.105 17.5833 33.5833 17.5833C32.0617 17.5833 30.8333 18.7838 30.8333 20.2708C30.8333 21.7579 32.0617 22.9583 33.5833 22.9583Z" stroke="#1E1E1E" stroke-width="4" stroke-linecap="round" stroke-linejoin="round"/>
<path d="M85.5 25.16H87.564V41H85.5V25.16ZM91.1016 25.16H93.1656V41H91.1016V25.16ZM116.84 25.16V41H114.8V29.564L114.908 27.812L114.476 29.744L110.66 40.1H108.632L104.816 29.744L104.396 27.812L104.492 29.564V41H102.44V25.16H105.176L109.496 37.592L109.64 38.396L109.796 37.592L114.128 25.16H116.84ZM121.443 36.5C121.451 37.092 121.579 37.632 121.827 38.12C122.075 38.608 122.443 38.996 122.931 39.284C123.427 39.572 124.035 39.716 124.755 39.716C125.363 39.716 125.879 39.628 126.303 39.452C126.735 39.268 127.087 39.052 127.359 38.804C127.631 38.548 127.827 38.32 127.947 38.12L128.967 39.38C128.703 39.764 128.379 40.1 127.995 40.388C127.619 40.676 127.159 40.896 126.615 41.048C126.071 41.208 125.407 41.288 124.623 41.288C123.567 41.288 122.651 41.064 121.875 40.616C121.107 40.16 120.515 39.532 120.099 38.732C119.683 37.924 119.475 37 119.475 35.96C119.475 35 119.671 34.136 120.063 33.368C120.455 32.592 121.023 31.98 121.767 31.532C122.519 31.084 123.423 30.86 124.479 30.86C125.447 30.86 126.287 31.064 126.999 31.472C127.719 31.872 128.275 32.44 128.667 33.176C129.067 33.912 129.267 34.792 129.267 35.816C129.267 35.88 129.263 35.996 129.255 36.164C129.247 36.324 129.239 36.436 129.231 36.5H121.443ZM127.275 34.928C127.267 34.6 127.171 34.24 126.987 33.848C126.811 33.456 126.523 33.12 126.123 32.84C125.723 32.56 125.183 32.42 124.503 32.42C123.799 32.42 123.231 32.556 122.799 32.828C122.375 33.1 122.063 33.432 121.863 33.824C121.663 34.208 121.547 34.576 121.515 34.928H127.275ZM143.393 30.86C144.121 30.86 144.745 31.02 145.265 31.34C145.785 31.652 146.181 32.132 146.453 32.78C146.733 33.428 146.873 34.256 146.873 35.264V41H144.809V35.684C144.809 34.62 144.661 33.82 144.365 33.284C144.069 32.748 143.529 32.48 142.745 32.48C142.329 32.48 141.929 32.596 141.545 32.828C141.169 33.052 140.857 33.4 140.609 33.872C140.369 34.344 140.249 34.948 140.249 35.684V41H138.305V35.684C138.305 34.62 138.121 33.82 137.753 33.284C137.385 32.748 136.869 32.48 136.205 32.48C135.781 32.48 135.381 32.592 135.005 32.816C134.637 33.032 134.337 33.376 134.105 33.848C133.873 34.32 133.757 34.932 133.757 35.684V41H131.681V31.148H133.757V32.66C133.845 32.412 134.033 32.148 134.321 31.868C134.617 31.588 134.993 31.352 135.449 31.16C135.913 30.96 136.429 30.86 136.997 30.86C137.589 30.86 138.085 30.98 138.485 31.22C138.885 31.46 139.201 31.756 139.433 32.108C139.665 32.452 139.825 32.784 139.913 33.104C140.025 32.76 140.241 32.416 140.561 32.072C140.881 31.72 141.285 31.432 141.773 31.208C142.261 30.976 142.801 30.86 143.393 30.86ZM154.32 41.288C153.304 41.288 152.4 41.06 151.608 40.604C150.824 40.148 150.208 39.532 149.76 38.756C149.312 37.972 149.088 37.088 149.088 36.104C149.088 35.12 149.312 34.232 149.76 33.44C150.208 32.648 150.824 32.02 151.608 31.556C152.4 31.092 153.304 30.86 154.32 30.86C155.328 30.86 156.22 31.092 156.996 31.556C157.78 32.02 158.392 32.648 158.832 33.44C159.272 34.232 159.492 35.12 159.492 36.104C159.492 37.088 159.272 37.972 158.832 38.756C158.392 39.532 157.78 40.148 156.996 40.604C156.22 41.06 155.328 41.288 154.32 41.288ZM154.32 39.5C154.96 39.5 155.516 39.352 155.988 39.056C156.468 38.76 156.84 38.356 157.104 37.844C157.368 37.324 157.5 36.74 157.5 36.092C157.5 35.444 157.368 34.86 157.104 34.34C156.84 33.82 156.468 33.408 155.988 33.104C155.516 32.8 154.96 32.648 154.32 32.648C153.672 32.648 153.108 32.8 152.628 33.104C152.148 33.408 151.772 33.82 151.5 34.34C151.236 34.86 151.104 35.444 151.104 36.092C151.104 36.74 151.236 37.324 151.5 37.844C151.772 38.356 152.148 38.76 152.628 39.056C153.108 39.352 153.672 39.5 154.32 39.5ZM163.859 41H161.783V31.148H163.859V32.852H163.799C163.839 32.644 163.987 32.384 164.243 32.072C164.499 31.76 164.851 31.48 165.299 31.232C165.747 30.984 166.283 30.86 166.907 30.86C167.363 30.86 167.763 30.924 168.107 31.052C168.459 31.172 168.707 31.292 168.851 31.412L167.999 33.14C167.887 33.028 167.691 32.916 167.411 32.804C167.131 32.684 166.783 32.624 166.367 32.624C165.839 32.624 165.387 32.788 165.011 33.116C164.635 33.444 164.347 33.84 164.147 34.304C163.955 34.76 163.859 35.184 163.859 35.576V41ZM170.426 41V31.148H172.514V41H170.426ZM171.494 27.776C171.118 27.776 170.794 27.644 170.521 27.38C170.258 27.108 170.126 26.784 170.126 26.408C170.126 26.032 170.258 25.708 170.521 25.436C170.794 25.164 171.118 25.028 171.494 25.028C171.742 25.028 171.97 25.092 172.178 25.22C172.394 25.348 172.566 25.516 172.694 25.724C172.822 25.924 172.886 26.152 172.886 26.408C172.886 26.784 172.75 27.108 172.478 27.38C172.206 27.644 171.878 27.776 171.494 27.776ZM183.625 41V39.08C183.561 39.28 183.373 39.556 183.061 39.908C182.757 40.26 182.337 40.58 181.801 40.868C181.273 41.148 180.649 41.288 179.929 41.288C179.017 41.288 178.189 41.072 177.445 40.64C176.709 40.208 176.121 39.604 175.681 38.828C175.249 38.044 175.033 37.128 175.033 36.08C175.033 35.032 175.249 34.12 175.681 33.344C176.121 32.56 176.709 31.952 177.445 31.52C178.189 31.08 179.017 30.86 179.929 30.86C180.641 30.86 181.257 30.988 181.777 31.244C182.305 31.5 182.725 31.796 183.037 32.132C183.357 32.468 183.545 32.756 183.601 32.996V31.148H185.665V41H183.625ZM177.097 36.08C177.097 36.792 177.253 37.408 177.565 37.928C177.877 38.448 178.281 38.852 178.777 39.14C179.281 39.42 179.817 39.56 180.385 39.56C180.993 39.56 181.537 39.416 182.017 39.128C182.497 38.84 182.877 38.436 183.157 37.916C183.437 37.388 183.577 36.776 183.577 36.08C183.577 35.384 183.437 34.776 183.157 34.256C182.877 33.728 182.497 33.32 182.017 33.032C181.537 32.736 180.993 32.588 180.385 32.588C179.817 32.588 179.281 32.732 178.777 33.02C178.281 33.308 177.877 33.712 177.565 34.232C177.253 34.752 177.097 35.368 177.097 36.08ZM190.627 41H188.527V24.488H190.627V41ZM204.472 25.16H206.608L212.464 41H210.268L208.9 37.184H202.18L200.788 41H198.592L204.472 25.16ZM202.84 35.336H208.252L205.564 27.68H205.528L202.84 35.336ZM219.604 30.86C220.252 30.86 220.88 30.996 221.488 31.268C222.104 31.54 222.608 31.972 223 32.564C223.4 33.148 223.6 33.912 223.6 34.856V41H221.488V35.264C221.488 34.288 221.26 33.58 220.804 33.14C220.348 32.692 219.76 32.468 219.04 32.468C218.568 32.468 218.112 32.604 217.672 32.876C217.24 33.14 216.884 33.508 216.604 33.98C216.324 34.444 216.184 34.972 216.184 35.564V41H214.096V31.148H216.184V32.9C216.256 32.628 216.452 32.332 216.772 32.012C217.092 31.692 217.5 31.42 217.996 31.196C218.492 30.972 219.028 30.86 219.604 30.86ZM230.674 41.288C229.77 41.288 228.958 41.072 228.238 40.64C227.526 40.208 226.962 39.604 226.546 38.828C226.138 38.044 225.934 37.128 225.934 36.08C225.934 35.032 226.138 34.12 226.546 33.344C226.962 32.56 227.526 31.952 228.238 31.52C228.958 31.08 229.77 30.86 230.674 30.86C231.402 30.86 232.042 30.988 232.594 31.244C233.146 31.492 233.586 31.784 233.914 32.12C234.242 32.456 234.43 32.748 234.478 32.996V24.488H236.578V41H234.514V39.08C234.426 39.352 234.206 39.66 233.854 40.004C233.51 40.348 233.066 40.648 232.522 40.904C231.978 41.16 231.362 41.288 230.674 41.288ZM231.154 39.56C231.762 39.56 232.318 39.416 232.822 39.128C233.326 38.84 233.726 38.436 234.022 37.916C234.326 37.388 234.478 36.776 234.478 36.08C234.478 35.384 234.326 34.776 234.022 34.256C233.726 33.728 233.326 33.32 232.822 33.032C232.318 32.736 231.762 32.588 231.154 32.588C230.594 32.588 230.074 32.732 229.594 33.02C229.114 33.308 228.726 33.712 228.43 34.232C228.142 34.752 227.998 35.368 227.998 36.08C227.998 36.792 228.142 37.408 228.43 37.928C228.726 38.448 229.114 38.852 229.594 39.14C230.074 39.42 230.594 39.56 231.154 39.56ZM240.968 41H238.892V31.148H240.968V32.852H240.908C240.948 32.644 241.096 32.384 241.352 32.072C241.608 31.76 241.96 31.48 242.408 31.232C242.856 30.984 243.392 30.86 244.016 30.86C244.472 30.86 244.872 30.924 245.216 31.052C245.568 31.172 245.816 31.292 245.96 31.412L245.108 33.14C244.996 33.028 244.8 32.916 244.52 32.804C244.24 32.684 243.892 32.624 243.476 32.624C242.948 32.624 242.496 32.788 242.12 33.116C241.744 33.444 241.456 33.84 241.256 34.304C241.064 34.76 240.968 35.184 240.968 35.576V41ZM248.404 36.5C248.412 37.092 248.54 37.632 248.788 38.12C249.036 38.608 249.404 38.996 249.892 39.284C250.388 39.572 250.996 39.716 251.716 39.716C252.324 39.716 252.84 39.628 253.264 39.452C253.696 39.268 254.048 39.052 254.32 38.804C254.592 38.548 254.788 38.32 254.908 38.12L255.928 39.38C255.664 39.764 255.34 40.1 254.956 40.388C254.58 40.676 254.12 40.896 253.576 41.048C253.032 41.208 252.368 41.288 251.584 41.288C250.528 41.288 249.612 41.064 248.836 40.616C248.068 40.16 247.476 39.532 247.06 38.732C246.644 37.924 246.436 37 246.436 35.96C246.436 35 246.632 34.136 247.024 33.368C247.416 32.592 247.984 31.98 248.728 31.532C249.48 31.084 250.384 30.86 251.44 30.86C252.408 30.86 253.248 31.064 253.96 31.472C254.68 31.872 255.236 32.44 255.628 33.176C256.028 33.912 256.228 34.792 256.228 35.816C256.228 35.88 256.224 35.996 256.216 36.164C256.208 36.324 256.2 36.436 256.192 36.5H248.404ZM254.236 34.928C254.228 34.6 254.132 34.24 253.948 33.848C253.772 33.456 253.484 33.12 253.084 32.84C252.684 32.56 252.144 32.42 251.464 32.42C250.76 32.42 250.192 32.556 249.76 32.828C249.336 33.1 249.024 33.432 248.824 33.824C248.624 34.208 248.508 34.576 248.476 34.928H254.236ZM249.964 29.792L249.232 28.796L252.868 25.784L254.068 27.272L249.964 29.792ZM262.253 30.86C262.765 30.86 263.241 30.912 263.681 31.016C264.129 31.12 264.513 31.244 264.833 31.388C265.161 31.532 265.393 31.66 265.529 31.772L264.701 33.092C264.541 32.948 264.253 32.788 263.837 32.612C263.421 32.428 262.957 32.336 262.445 32.336C261.885 32.336 261.409 32.448 261.017 32.672C260.625 32.888 260.429 33.204 260.429 33.62C260.429 34.036 260.629 34.368 261.029 34.616C261.437 34.856 261.981 35.056 262.661 35.216C263.205 35.344 263.713 35.516 264.185 35.732C264.665 35.948 265.053 36.248 265.349 36.632C265.645 37.008 265.793 37.512 265.793 38.144C265.793 38.72 265.673 39.212 265.433 39.62C265.193 40.02 264.869 40.344 264.461 40.592C264.053 40.832 263.597 41.008 263.093 41.12C262.589 41.232 262.077 41.288 261.557 41.288C260.949 41.288 260.401 41.224 259.913 41.096C259.425 40.976 259.013 40.832 258.677 40.664C258.349 40.488 258.109 40.336 257.957 40.208L258.785 38.72C258.993 38.92 259.333 39.132 259.805 39.356C260.285 39.58 260.829 39.692 261.437 39.692C262.109 39.692 262.653 39.552 263.069 39.272C263.485 38.984 263.693 38.612 263.693 38.156C263.693 37.812 263.593 37.536 263.393 37.328C263.193 37.12 262.925 36.952 262.589 36.824C262.253 36.696 261.885 36.584 261.485 36.488C261.101 36.4 260.725 36.284 260.357 36.14C259.997 35.996 259.665 35.812 259.361 35.588C259.065 35.356 258.829 35.076 258.653 34.748C258.477 34.412 258.389 34.02 258.389 33.572C258.389 33.004 258.569 32.52 258.929 32.12C259.289 31.712 259.761 31.4 260.345 31.184C260.929 30.968 261.565 30.86 262.253 30.86ZM281.942 39.26C282.926 39.26 283.778 39.124 284.498 38.852C285.226 38.58 285.742 38.316 286.046 38.06L286.946 39.824C286.586 40.144 285.958 40.468 285.062 40.796C284.174 41.124 283.106 41.288 281.858 41.288C280.69 41.288 279.606 41.08 278.606 40.664C277.606 40.248 276.73 39.668 275.978 38.924C275.234 38.18 274.65 37.312 274.226 36.32C273.81 35.328 273.602 34.256 273.602 33.104C273.602 31.952 273.81 30.876 274.226 29.876C274.642 28.876 275.222 28.004 275.966 27.26C276.718 26.508 277.594 25.924 278.594 25.508C279.602 25.084 280.69 24.872 281.858 24.872C283.106 24.872 284.174 25.036 285.062 25.364C285.958 25.692 286.586 26.016 286.946 26.336L286.046 28.1C285.742 27.836 285.226 27.572 284.498 27.308C283.778 27.036 282.926 26.9 281.942 26.9C281.046 26.9 280.226 27.052 279.482 27.356C278.738 27.66 278.09 28.092 277.538 28.652C276.994 29.204 276.57 29.856 276.266 30.608C275.97 31.36 275.822 32.18 275.822 33.068C275.822 33.964 275.97 34.792 276.266 35.552C276.57 36.304 276.994 36.96 277.538 37.52C278.09 38.072 278.738 38.5 279.482 38.804C280.226 39.108 281.046 39.26 281.942 39.26ZM297.274 41V39.08C297.21 39.28 297.022 39.556 296.71 39.908C296.406 40.26 295.986 40.58 295.45 40.868C294.922 41.148 294.298 41.288 293.578 41.288C292.666 41.288 291.838 41.072 291.094 40.64C290.358 40.208 289.77 39.604 289.33 38.828C288.898 38.044 288.682 37.128 288.682 36.08C288.682 35.032 288.898 34.12 289.33 33.344C289.77 32.56 290.358 31.952 291.094 31.52C291.838 31.08 292.666 30.86 293.578 30.86C294.29 30.86 294.906 30.988 295.426 31.244C295.954 31.5 296.374 31.796 296.686 32.132C297.006 32.468 297.194 32.756 297.25 32.996V31.148H299.314V41H297.274ZM290.746 36.08C290.746 36.792 290.902 37.408 291.214 37.928C291.526 38.448 291.93 38.852 292.426 39.14C292.93 39.42 293.466 39.56 294.034 39.56C294.642 39.56 295.186 39.416 295.666 39.128C296.146 38.84 296.526 38.436 296.806 37.916C297.086 37.388 297.226 36.776 297.226 36.08C297.226 35.384 297.086 34.776 296.806 34.256C296.526 33.728 296.146 33.32 295.666 33.032C295.186 32.736 294.642 32.588 294.034 32.588C293.466 32.588 292.93 32.732 292.426 33.02C291.93 33.308 291.526 33.712 291.214 34.232C290.902 34.752 290.746 35.368 290.746 36.08ZM304.156 41H302.08V31.148H304.156V32.852H304.096C304.136 32.644 304.284 32.384 304.54 32.072C304.796 31.76 305.148 31.48 305.596 31.232C306.044 30.984 306.58 30.86 307.204 30.86C307.66 30.86 308.06 30.924 308.404 31.052C308.756 31.172 309.004 31.292 309.148 31.412L308.296 33.14C308.184 33.028 307.988 32.916 307.708 32.804C307.428 32.684 307.08 32.624 306.664 32.624C306.136 32.624 305.684 32.788 305.308 33.116C304.932 33.444 304.644 33.84 304.444 34.304C304.252 34.76 304.156 35.184 304.156 35.576V41ZM312.546 41H310.47V31.148H312.546V32.852H312.486C312.526 32.644 312.674 32.384 312.93 32.072C313.186 31.76 313.538 31.48 313.986 31.232C314.434 30.984 314.97 30.86 315.594 30.86C316.05 30.86 316.45 30.924 316.794 31.052C317.146 31.172 317.394 31.292 317.538 31.412L316.686 33.14C316.574 33.028 316.378 32.916 316.098 32.804C315.818 32.684 315.47 32.624 315.054 32.624C314.526 32.624 314.074 32.788 313.698 33.116C313.322 33.444 313.034 33.84 312.834 34.304C312.642 34.76 312.546 35.184 312.546 35.576V41ZM326.594 41V39.08C326.53 39.28 326.342 39.556 326.03 39.908C325.726 40.26 325.306 40.58 324.77 40.868C324.242 41.148 323.618 41.288 322.898 41.288C321.986 41.288 321.158 41.072 320.414 40.64C319.678 40.208 319.09 39.604 318.65 38.828C318.218 38.044 318.002 37.128 318.002 36.08C318.002 35.032 318.218 34.12 318.65 33.344C319.09 32.56 319.678 31.952 320.414 31.52C321.158 31.08 321.986 30.86 322.898 30.86C323.61 30.86 324.226 30.988 324.746 31.244C325.274 31.5 325.694 31.796 326.006 32.132C326.326 32.468 326.514 32.756 326.57 32.996V31.148H328.634V41H326.594ZM320.066 36.08C320.066 36.792 320.222 37.408 320.534 37.928C320.846 38.448 321.25 38.852 321.746 39.14C322.25 39.42 322.786 39.56 323.354 39.56C323.962 39.56 324.506 39.416 324.986 39.128C325.466 38.84 325.846 38.436 326.126 37.916C326.406 37.388 326.546 36.776 326.546 36.08C326.546 35.384 326.406 34.776 326.126 34.256C325.846 33.728 325.466 33.32 324.986 33.032C324.506 32.736 323.962 32.588 323.354 32.588C322.786 32.588 322.25 32.732 321.746 33.02C321.25 33.308 320.846 33.712 320.534 34.232C320.222 34.752 320.066 35.368 320.066 36.08ZM335.12 30.86C335.632 30.86 336.108 30.912 336.548 31.016C336.996 31.12 337.38 31.244 337.7 31.388C338.028 31.532 338.26 31.66 338.396 31.772L337.568 33.092C337.408 32.948 337.12 32.788 336.704 32.612C336.288 32.428 335.824 32.336 335.312 32.336C334.752 32.336 334.276 32.448 333.884 32.672C333.492 32.888 333.296 33.204 333.296 33.62C333.296 34.036 333.496 34.368 333.896 34.616C334.304 34.856 334.848 35.056 335.528 35.216C336.072 35.344 336.58 35.516 337.052 35.732C337.532 35.948 337.92 36.248 338.216 36.632C338.512 37.008 338.66 37.512 338.66 38.144C338.66 38.72 338.54 39.212 338.3 39.62C338.06 40.02 337.736 40.344 337.328 40.592C336.92 40.832 336.464 41.008 335.96 41.12C335.456 41.232 334.944 41.288 334.424 41.288C333.816 41.288 333.268 41.224 332.78 41.096C332.292 40.976 331.88 40.832 331.544 40.664C331.216 40.488 330.976 40.336 330.824 40.208L331.652 38.72C331.86 38.92 332.2 39.132 332.672 39.356C333.152 39.58 333.696 39.692 334.304 39.692C334.976 39.692 335.52 39.552 335.936 39.272C336.352 38.984 336.56 38.612 336.56 38.156C336.56 37.812 336.46 37.536 336.26 37.328C336.06 37.12 335.792 36.952 335.456 36.824C335.12 36.696 334.752 36.584 334.352 36.488C333.968 36.4 333.592 36.284 333.224 36.14C332.864 35.996 332.532 35.812 332.228 35.588C331.932 35.356 331.696 35.076 331.52 34.748C331.344 34.412 331.256 34.02 331.256 33.572C331.256 33.004 331.436 32.52 331.796 32.12C332.156 31.712 332.628 31.4 333.212 31.184C333.796 30.968 334.432 30.86 335.12 30.86ZM345.724 39.56C346.348 39.56 346.852 39.46 347.236 39.26C347.62 39.06 347.86 38.916 347.956 38.828L348.976 40.328C348.896 40.4 348.704 40.516 348.4 40.676C348.104 40.828 347.72 40.968 347.248 41.096C346.784 41.224 346.256 41.288 345.664 41.288C344.76 41.288 343.92 41.088 343.144 40.688C342.368 40.28 341.74 39.688 341.26 38.912C340.788 38.136 340.552 37.188 340.552 36.068C340.552 34.94 340.788 33.992 341.26 33.224C341.74 32.448 342.368 31.86 343.144 31.46C343.92 31.06 344.76 30.86 345.664 30.86C346.248 30.86 346.768 30.932 347.224 31.076C347.68 31.212 348.056 31.364 348.352 31.532C348.648 31.7 348.844 31.828 348.94 31.916L347.908 33.416C347.844 33.352 347.72 33.256 347.536 33.128C347.36 32.992 347.12 32.868 346.816 32.756C346.512 32.644 346.148 32.588 345.724 32.588C345.212 32.588 344.712 32.728 344.224 33.008C343.744 33.28 343.348 33.676 343.036 34.196C342.724 34.716 342.568 35.34 342.568 36.068C342.568 36.796 342.724 37.424 343.036 37.952C343.348 38.472 343.744 38.872 344.224 39.152C344.712 39.424 345.212 39.56 345.724 39.56ZM355.601 41.288C354.585 41.288 353.681 41.06 352.889 40.604C352.105 40.148 351.489 39.532 351.041 38.756C350.593 37.972 350.369 37.088 350.369 36.104C350.369 35.12 350.593 34.232 351.041 33.44C351.489 32.648 352.105 32.02 352.889 31.556C353.681 31.092 354.585 30.86 355.601 30.86C356.609 30.86 357.501 31.092 358.277 31.556C359.061 32.02 359.673 32.648 360.113 33.44C360.553 34.232 360.773 35.12 360.773 36.104C360.773 37.088 360.553 37.972 360.113 38.756C359.673 39.532 359.061 40.148 358.277 40.604C357.501 41.06 356.609 41.288 355.601 41.288ZM355.601 39.5C356.241 39.5 356.797 39.352 357.269 39.056C357.749 38.76 358.121 38.356 358.385 37.844C358.649 37.324 358.781 36.74 358.781 36.092C358.781 35.444 358.649 34.86 358.385 34.34C358.121 33.82 357.749 33.408 357.269 33.104C356.797 32.8 356.241 32.648 355.601 32.648C354.953 32.648 354.389 32.8 353.909 33.104C353.429 33.408 353.053 33.82 352.781 34.34C352.517 34.86 352.385 35.444 352.385 36.092C352.385 36.74 352.517 37.324 352.781 37.844C353.053 38.356 353.429 38.76 353.909 39.056C354.389 39.352 354.953 39.5 355.601 39.5ZM366.784 30.86C367.296 30.86 367.772 30.912 368.212 31.016C368.66 31.12 369.044 31.244 369.364 31.388C369.692 31.532 369.924 31.66 370.06 31.772L369.232 33.092C369.072 32.948 368.784 32.788 368.368 32.612C367.952 32.428 367.488 32.336 366.976 32.336C366.416 32.336 365.94 32.448 365.548 32.672C365.156 32.888 364.96 33.204 364.96 33.62C364.96 34.036 365.16 34.368 365.56 34.616C365.968 34.856 366.512 35.056 367.192 35.216C367.736 35.344 368.244 35.516 368.716 35.732C369.196 35.948 369.584 36.248 369.88 36.632C370.176 37.008 370.324 37.512 370.324 38.144C370.324 38.72 370.204 39.212 369.964 39.62C369.724 40.02 369.4 40.344 368.992 40.592C368.584 40.832 368.128 41.008 367.624 41.12C367.12 41.232 366.608 41.288 366.088 41.288C365.48 41.288 364.932 41.224 364.444 41.096C363.956 40.976 363.544 40.832 363.208 40.664C362.88 40.488 362.64 40.336 362.488 40.208L363.316 38.72C363.524 38.92 363.864 39.132 364.336 39.356C364.816 39.58 365.36 39.692 365.968 39.692C366.64 39.692 367.184 39.552 367.6 39.272C368.016 38.984 368.224 38.612 368.224 38.156C368.224 37.812 368.124 37.536 367.924 37.328C367.724 37.12 367.456 36.952 367.12 36.824C366.784 36.696 366.416 36.584 366.016 36.488C365.632 36.4 365.256 36.284 364.888 36.14C364.528 35.996 364.196 35.812 363.892 35.588C363.596 35.356 363.36 35.076 363.184 34.748C363.008 34.412 362.92 34.02 362.92 33.572C362.92 33.004 363.1 32.52 363.46 32.12C363.82 31.712 364.292 31.4 364.876 31.184C365.46 30.968 366.096 30.86 366.784 30.86ZM380.664 41V39.08C380.6 39.28 380.412 39.556 380.1 39.908C379.796 40.26 379.376 40.58 378.84 40.868C378.312 41.148 377.688 41.288 376.968 41.288C376.056 41.288 375.228 41.072 374.484 40.64C373.748 40.208 373.16 39.604 372.72 38.828C372.288 38.044 372.072 37.128 372.072 36.08C372.072 35.032 372.288 34.12 372.72 33.344C373.16 32.56 373.748 31.952 374.484 31.52C375.228 31.08 376.056 30.86 376.968 30.86C377.68 30.86 378.296 30.988 378.816 31.244C379.344 31.5 379.764 31.796 380.076 32.132C380.396 32.468 380.584 32.756 380.64 32.996V31.148H382.704V41H380.664ZM374.136 36.08C374.136 36.792 374.292 37.408 374.604 37.928C374.916 38.448 375.32 38.852 375.816 39.14C376.32 39.42 376.856 39.56 377.424 39.56C378.032 39.56 378.576 39.416 379.056 39.128C379.536 38.84 379.916 38.436 380.196 37.916C380.476 37.388 380.616 36.776 380.616 36.08C380.616 35.384 380.476 34.776 380.196 34.256C379.916 33.728 379.536 33.32 379.056 33.032C378.576 32.736 378.032 32.588 377.424 32.588C376.856 32.588 376.32 32.732 375.816 33.02C375.32 33.308 374.916 33.712 374.604 34.232C374.292 34.752 374.136 35.368 374.136 36.08Z" fill="black"/>
</svg>
